<svg width="839" height="104" viewBox="0 0 839 104" fill="none" xmlns="http://www.w3.org/2000/svg">
<rect x="0.75" y="0.75" width="837.5" height="102.5" fill="#F9F7F5" stroke="#A7A7A7" stroke-width="1.5"/>
<path d="M130.143 77.6858V74.2325C130.143 72.9116 129.338 72.0466 127.957 72.0466C127.266 72.0466 126.515 72.2745 125.999 73.0256C125.597 72.3952 125.02 72.0466 124.155 72.0466C123.578 72.0466 123.002 72.2209 122.546 72.8512V72.1606H121.339V77.6858H122.546V74.6348C122.546 73.6559 123.062 73.1932 123.867 73.1932C124.671 73.1932 125.074 73.7095 125.074 74.6348V77.6858H126.281V74.6348C126.281 73.6559 126.857 73.1932 127.602 73.1932C128.406 73.1932 128.809 73.7095 128.809 74.6348V77.6858H130.143ZM148.046 72.1606H146.088V70.4909H144.881V72.1606H143.788V73.2535H144.881V75.7882C144.881 77.0555 145.398 77.7998 146.779 77.7998C147.295 77.7998 147.872 77.6254 148.274 77.3974L147.926 76.3581C147.577 76.5861 147.175 76.6464 146.886 76.6464C146.31 76.6464 146.082 76.2978 146.082 75.7278V73.2535H148.04V72.1606H148.046ZM158.292 72.0399C157.601 72.0399 157.139 72.3885 156.85 72.8445V72.1539H155.644V77.6791H156.85V74.5678C156.85 73.6491 157.253 73.1261 158.004 73.1261C158.232 73.1261 158.52 73.1865 158.755 73.2401L159.103 72.0868C158.862 72.0399 158.52 72.0399 158.292 72.0399ZM142.809 72.6165C142.233 72.2142 141.428 72.0399 140.563 72.0399C139.182 72.0399 138.263 72.7305 138.263 73.8235C138.263 74.7421 138.954 75.2651 140.161 75.4328L140.737 75.4931C141.368 75.6071 141.716 75.7815 141.716 76.0698C141.716 76.4721 141.254 76.7604 140.449 76.7604C139.645 76.7604 139.008 76.4721 138.605 76.1838L138.029 77.1024C138.659 77.5651 139.524 77.7931 140.389 77.7931C141.998 77.7931 142.923 77.0421 142.923 76.0094C142.923 75.0305 142.172 74.5141 141.026 74.3398L140.449 74.2795C139.933 74.2191 139.531 74.1051 139.531 73.7631C139.531 73.3608 139.933 73.1328 140.57 73.1328C141.261 73.1328 141.951 73.4212 142.3 73.5955L142.809 72.6165ZM174.921 72.0399C174.231 72.0399 173.768 72.3885 173.48 72.8445V72.1539H172.273V77.6791H173.48V74.5678C173.48 73.6491 173.882 73.1261 174.633 73.1261C174.861 73.1261 175.149 73.1865 175.384 73.2401L175.733 72.1002C175.498 72.0399 175.156 72.0399 174.921 72.0399ZM159.499 74.9232C159.499 76.5928 160.652 77.7998 162.436 77.7998C163.241 77.7998 163.817 77.6254 164.394 77.1695L163.817 76.1905C163.355 76.5392 162.899 76.7068 162.376 76.7068C161.397 76.7068 160.706 76.0161 160.706 74.9232C160.706 73.8838 161.397 73.1932 162.376 73.1395C162.892 73.1395 163.355 73.3139 163.817 73.6559L164.394 72.6769C163.817 72.2142 163.241 72.0466 162.436 72.0466C160.652 72.0399 159.499 73.2535 159.499 74.9232ZM170.664 74.9232V72.1606H169.457V72.8512C169.054 72.3349 168.478 72.0466 167.727 72.0466C166.171 72.0466 164.964 73.2535 164.964 74.9232C164.964 76.5928 166.171 77.7998 167.727 77.7998C168.531 77.7998 169.108 77.5114 169.457 76.9951V77.6858H170.664V74.9232ZM166.231 74.9232C166.231 73.9442 166.862 73.1395 167.901 73.1395C168.88 73.1395 169.571 73.8905 169.571 74.9232C169.571 75.9022 168.88 76.7068 167.901 76.7068C166.868 76.6464 166.231 75.8954 166.231 74.9232ZM151.788 72.0399C150.179 72.0399 149.025 73.1932 149.025 74.9165C149.025 76.6464 150.179 77.7931 151.848 77.7931C152.653 77.7931 153.458 77.5651 154.095 77.0421L153.518 76.1771C153.055 76.5258 152.479 76.7537 151.909 76.7537C151.158 76.7537 150.413 76.4051 150.239 75.4328H154.323C154.323 75.2584 154.323 75.1444 154.323 74.9701C154.376 73.1932 153.337 72.0399 151.788 72.0399ZM151.788 73.0792C152.539 73.0792 153.055 73.5419 153.169 74.4001H150.293C150.407 73.6559 150.923 73.0792 151.788 73.0792ZM181.774 74.9232V69.9746H180.567V72.8512C180.165 72.3349 179.588 72.0466 178.837 72.0466C177.282 72.0466 176.075 73.2535 176.075 74.9232C176.075 76.5928 177.282 77.7998 178.837 77.7998C179.642 77.7998 180.219 77.5114 180.567 76.9951V77.6858H181.774V74.9232ZM177.342 74.9232C177.342 73.9442 177.972 73.1395 179.012 73.1395C179.991 73.1395 180.681 73.8905 180.681 74.9232C180.681 75.9022 179.991 76.7068 179.012 76.7068C177.972 76.6464 177.342 75.8954 177.342 74.9232ZM136.936 74.9232V72.1606H135.729V72.8512C135.326 72.3349 134.75 72.0466 133.999 72.0466C132.443 72.0466 131.236 73.2535 131.236 74.9232C131.236 76.5928 132.443 77.7998 133.999 77.7998C134.803 77.7998 135.38 77.5114 135.729 76.9951V77.6858H136.936V74.9232ZM132.45 74.9232C132.45 73.9442 133.08 73.1395 134.119 73.1395C135.098 73.1395 135.789 73.8905 135.789 74.9232C135.789 75.9022 135.098 76.7068 134.119 76.7068C133.08 76.6464 132.45 75.8954 132.45 74.9232Z" fill="black"/>
<path d="M160.539 30.1982H142.407V62.7729H160.539V30.1982Z" fill="#FF5A00"/>
<path d="M143.614 46.4852C143.614 39.867 146.726 33.9931 151.5 30.1979C147.986 27.4353 143.554 25.7656 138.72 25.7656C127.267 25.7656 118 35.0324 118 46.4852C118 57.938 127.267 67.2048 138.72 67.2048C143.554 67.2048 147.986 65.5351 151.5 62.7725C146.719 59.0309 143.614 53.1034 143.614 46.4852Z" fill="#EB001B"/>
<path d="M185 46.4852C185 57.938 175.733 67.2048 164.28 67.2048C159.446 67.2048 155.014 65.5351 151.5 62.7725C156.335 58.9706 159.386 53.1034 159.386 46.4852C159.386 39.867 156.274 33.9931 151.5 30.1979C155.007 27.4353 159.439 25.7656 164.274 25.7656C175.733 25.7656 185 35.0928 185 46.4852Z" fill="#F79E1B"/>
<path d="M482.876 42.3502L491 58.4818L473.922 74.6211L482.876 42.3502Z" fill="#008C44"/>
<path d="M477.25 42.3502L485.362 58.4818L468.295 74.6211L477.25 42.3502Z" fill="#F47920"/>
<path d="M347.001 68.751L355.101 39.5684H368.051C372.098 39.5684 374.802 40.2091 376.177 41.5294C377.543 42.8391 377.806 44.9769 376.983 47.9817C376.485 49.7518 375.728 51.2376 374.689 52.4115C373.658 53.5876 372.298 54.5175 370.623 55.2014C372.044 55.5429 372.948 56.2211 373.353 57.238C373.756 58.255 373.709 59.7379 373.22 61.682L372.235 65.7582L372.232 65.8685C371.948 67.0099 372.032 67.6209 372.495 67.6704L372.196 68.751H363.436C363.466 68.0643 363.52 67.4505 363.578 66.9349C363.642 66.4074 363.72 65.9986 363.798 65.7179L364.615 62.8036C365.026 61.2881 365.052 60.2308 364.67 59.622C364.285 58.9968 363.422 58.6892 362.06 58.6892H358.378L355.571 68.751H347.001ZM360.2 52.1131H364.143C365.525 52.1131 366.545 51.9158 367.173 51.5077C367.805 51.0962 368.274 50.401 368.549 49.3954C368.834 48.3728 368.764 47.66 368.355 47.2547C367.947 46.8432 366.97 46.643 365.435 46.643H361.718L360.2 52.1131Z" fill="#1B3281"/>
<path d="M401.023 47.216L395.052 68.7504H387.795L388.687 65.5956C387.41 66.8502 386.103 67.8028 384.786 68.4116C383.479 69.0311 382.1 69.3359 380.648 69.3359C379.448 69.3359 378.418 69.1181 377.588 68.686C376.749 68.2554 376.123 67.6005 375.703 66.737C375.329 65.9811 375.167 65.0476 375.23 63.9324C375.297 62.8348 375.685 60.9834 376.403 58.3909L379.498 47.216H387.436L384.347 58.3385C383.896 59.9665 383.789 61.1107 384.009 61.7337C384.238 62.3624 384.849 62.687 385.842 62.687C386.842 62.687 387.683 62.3249 388.378 61.5859C389.082 60.8533 389.626 59.7607 390.034 58.3067L393.097 47.216H401.023Z" fill="#1B3281"/>
<path d="M398.146 68.751L406.237 39.5684H417.368C419.824 39.5684 421.725 39.7133 423.081 40.0316C424.434 40.3364 425.494 40.8314 426.283 41.5294C427.271 42.4424 427.876 43.5724 428.125 44.9281C428.359 46.2838 428.221 47.8629 427.708 49.7171C426.801 52.9794 425.212 55.4793 422.948 57.226C420.676 58.9501 417.866 59.8164 414.512 59.8164H409.303L406.828 68.751H398.146ZM411.275 52.6894H414.074C415.884 52.6894 417.156 52.466 417.901 52.0346C418.623 51.5975 419.135 50.8211 419.448 49.7171C419.761 48.5984 419.68 47.8162 419.208 47.3792C418.753 46.9443 417.591 46.7243 415.732 46.7243H412.938L411.275 52.6894Z" fill="#1B3281"/>
<path d="M437.047 68.7512L437.128 66.706C435.848 67.6642 434.551 68.3884 433.248 68.841C431.95 69.3021 430.569 69.5361 429.088 69.5361C426.84 69.5361 425.272 68.9251 424.366 67.7427C423.471 66.5582 423.323 64.8574 423.934 62.6878C424.519 60.5464 425.56 58.9701 427.06 57.9624C428.552 56.9426 431.044 56.2128 434.541 55.7461C434.984 55.6739 435.578 55.6159 436.322 55.5261C438.907 55.227 440.358 54.5382 440.671 53.4145C440.833 52.7992 440.734 52.3452 440.352 52.0666C439.984 51.7774 439.295 51.6352 438.301 51.6352C437.476 51.6352 436.812 51.8063 436.267 52.1621C435.723 52.5213 435.317 53.046 435.042 53.7843H427.303C428.002 51.3601 429.43 49.5285 431.573 48.3037C433.709 47.0576 436.525 46.4579 440.013 46.4579C441.653 46.4579 443.122 46.6114 444.42 46.9445C445.721 47.2634 446.671 47.7181 447.288 48.2683C448.047 48.955 448.496 49.7378 448.624 50.6034C448.771 51.4669 448.609 52.7045 448.157 54.3239L444.828 66.3298C444.721 66.723 444.701 67.0737 444.759 67.3927C444.828 67.6967 444.961 67.957 445.196 68.143L445.017 68.7512H437.047ZM438.976 59.1356C438.133 59.4743 437.038 59.7989 435.677 60.1554C433.539 60.7289 432.336 61.494 432.076 62.441C431.895 63.0499 431.968 63.5187 432.266 63.8751C432.559 64.2139 433.069 64.385 433.788 64.385C435.105 64.385 436.163 64.0519 436.952 63.3942C437.742 62.7281 438.333 61.6822 438.747 60.2395C438.819 59.9326 438.883 59.7119 438.924 59.5472L438.976 59.1356Z" fill="#1B3281"/>
<path d="M445.078 77.2368L446.84 70.863H449.111C449.87 70.863 450.467 70.713 450.89 70.4401C451.319 70.1565 451.611 69.6784 451.779 69.0349C451.864 68.7513 451.915 68.4529 451.951 68.1141C451.973 67.7549 451.973 67.3751 451.951 66.9353L450.738 47.2169H458.773L458.648 60.2828L465.662 47.2169H473.133L460.734 68.6474C459.326 71.0426 458.304 72.6882 457.655 73.5863C457.014 74.4731 456.406 75.1626 455.815 75.6294C455.05 76.275 454.196 76.7326 453.274 76.9992C452.349 77.2714 450.942 77.4072 449.05 77.4072C448.506 77.4072 447.879 77.3966 447.202 77.3613C446.529 77.3351 445.811 77.2948 445.078 77.2368Z" fill="#1B3281"/>
<path d="M714.969 42C708.65 42 703.002 45.1804 703.002 51.0564C703.002 57.7951 713.018 58.2606 713.018 61.6459C713.018 63.0713 711.336 64.3473 708.462 64.3473C704.384 64.3473 701.337 62.5644 701.337 62.5644L700.032 68.494C700.032 68.494 703.543 70 708.205 70C715.114 70 720.551 66.6634 720.551 60.6869C720.551 53.5663 710.493 53.1147 710.493 49.9725C710.493 48.8559 711.874 47.6324 714.739 47.6324C717.972 47.6324 720.61 48.9291 720.61 48.9291L721.886 43.2021C721.886 43.2021 719.016 42 714.969 42ZM657.153 42.4322L657 43.2967C657 43.2967 659.659 43.7691 662.053 44.7115C665.136 45.7922 665.356 46.4213 665.875 48.3753L671.533 69.5543H679.118L690.803 42.4322H683.235L675.727 60.8726L672.663 45.2417C672.382 43.4527 670.959 42.4322 669.217 42.4322H657.153ZM693.846 42.4322L687.909 69.5543H695.125L701.041 42.4322H693.846ZM734.093 42.4322C732.352 42.4322 731.431 43.3368 730.754 44.9175L720.182 69.5543H727.749L729.213 65.4481H738.433L739.323 69.5543H746L740.175 42.4322H734.093ZM735.077 49.7598L737.32 59.9373H731.31L735.077 49.7598Z" fill="#1434CB"/>
</svg>
