<svg width="10" height="6" viewBox="0 0 10 6" fill="none" xmlns="http://www.w3.org/2000/svg">
<path d="M8.36538 0.754C7.88063 0.51142 7.34875 0.329342 6.76867 0.199205C6.18914 0.0690676 5.59931 -0.000566867 4.99973 3.8544e-06C4.40124 3.80207e-06 3.81195 0.0690674 3.23187 0.199204C2.65179 0.329341 2.11017 0.511419 1.62541 0.753999C1.14066 0.996578 0.751233 1.31735 0.44684 1.70776C0.152196 2.09818 3.03984e-07 2.52283 2.62268e-07 3C2.08427e-07 3.61587 0.25673 4.15354 0.76044 4.62158C1.26415 5.08961 1.89135 5.43664 2.63283 5.6621C3.38407 5.88756 4.17267 6 4.99973 6C5.82679 6 6.61593 5.88756 7.35742 5.6621C8.10865 5.43664 8.73585 5.08961 9.23956 4.62158C9.74327 4.15297 10 3.6153 10 3C10 2.52283 9.84834 2.09818 9.54395 1.70777C9.24931 1.31735 8.85013 0.996579 8.36538 0.754Z" fill="black"/>
</svg>
