<svg width="87" height="53" viewBox="0 0 87 53" fill="none" xmlns="http://www.w3.org/2000/svg">
<path d="M28.2421 49.9319L28.2422 49.932C33.2442 51.0391 38.332 51.6308 43.5018 51.626H43.5024C48.6634 51.626 53.7467 51.039 58.7532 49.9319C63.7626 48.8242 68.4275 47.277 72.5935 45.2222C76.7326 43.1806 80.0485 40.4866 82.6388 37.2132C85.1273 33.9618 86.4 30.4476 86.4 26.5002C86.4 21.4135 84.2579 16.9562 79.9789 13.0372C75.6727 9.09338 70.2996 6.15822 63.923 4.24701C57.446 2.33114 50.6431 1.37441 43.5024 1.37441C36.3608 1.37441 29.5536 2.33138 23.1627 4.24673L23.1607 4.24735C16.6999 6.15854 11.3272 9.09349 7.02134 13.037L28.2421 49.9319ZM28.2421 49.9319C23.235 48.8247 18.6544 47.2779 14.4866 45.2222C10.3403 43.177 6.94393 40.4817 4.44401 37.2167L4.44407 37.2167M28.2421 49.9319L4.44407 37.2167M4.44407 37.2167L4.43819 37.2092M4.44407 37.2167L4.43819 37.2092M4.43819 37.2092C1.86839 33.9605 0.6 30.4485 0.6 26.5002C0.6 21.4187 2.74189 16.9612 7.02107 13.0372L4.43819 37.2092Z" fill="black" stroke="#D23A3D" stroke-width="1.2"/>
<path d="M52.8914 22.4419C55.8932 24.8275 60.2991 26.0202 66.0606 26.0202V26.9745C60.2991 26.9745 55.8932 28.1672 52.8914 30.5528C49.8896 32.9383 48.3725 36.4213 48.3725 41.0015H47.4042C47.4042 33.654 50.987 28.9783 58.1526 26.9745H20.9365V26.0202H58.1203C50.9547 24.0164 47.3719 19.3407 47.3719 11.9932H48.3725C48.3725 16.5734 49.8411 20.0563 52.8914 22.4419Z" fill="#D23A3D" stroke="#D23A3D" stroke-width="1.2"/>
</svg>
