<svg width="28" height="16" viewBox="0 0 28 16" fill="none" xmlns="http://www.w3.org/2000/svg">
<path d="M9.04772 15.4688C7.4235 15.1218 5.93425 14.6362 4.57694 13.9893C3.21963 13.3425 2.10194 12.4871 1.27693 11.446C0.424635 10.4049 0 9.27245 0 8C0 6.35921 0.718844 4.92542 2.12923 3.6758C3.53962 2.4277 5.29578 1.50228 7.39923 0.901065C9.47538 0.299847 11.685 0 14.0008 0C16.3165 0 18.5246 0.299847 20.6281 0.901065C22.7042 1.50228 24.4604 2.4277 25.8708 3.6758C27.2812 4.92389 28 6.35768 28 8C28 9.27245 27.5738 10.4049 26.7488 11.446C25.8965 12.4871 24.8062 13.3425 23.4488 13.9893C22.0915 14.6362 20.575 15.1218 18.9508 15.4688C17.3265 15.8158 15.6765 16 14.0008 16C12.3219 16.0015 10.6704 15.8158 9.04772 15.4688ZM18.8416 12.6256C20.3581 12.2785 21.6624 11.6773 22.7543 10.8676C23.8189 10.0578 24.3512 9.10958 24.3512 8C24.3512 6.91324 23.8189 5.96499 22.78 5.15525C21.7154 4.34551 20.4112 3.76864 18.8947 3.39878C17.3508 3.02892 15.7281 2.84323 13.9977 2.84323C12.2673 2.84323 10.6446 3.02892 9.12658 3.39878C7.58273 3.76864 6.2785 4.34703 5.24118 5.15525C4.17657 5.96499 3.64426 6.91324 3.64426 8C3.64426 9.10958 4.17657 10.0578 5.26848 10.8676C6.36039 11.6773 7.66463 12.2785 9.18117 12.6256C10.6977 12.9726 12.2946 13.1568 13.9992 13.1568C15.7008 13.1568 17.325 12.9726 18.8416 12.6256Z" fill="#D23A3D"/>
</svg>
