<svg width="21" height="12" viewBox="0 0 21 12" fill="none" xmlns="http://www.w3.org/2000/svg">
<path d="M3.27242 10.492C4.24287 10.9772 5.30766 11.3413 6.46894 11.6016C7.62914 11.8619 8.80995 12.0011 10.0103 12C11.2084 12 12.3881 11.8619 13.5494 11.6016C14.7107 11.3413 15.795 10.9772 16.7655 10.492C17.7359 10.0068 18.5155 9.36529 19.1249 8.58447C19.7148 7.80365 20.0195 6.95433 20.0195 6C20.0195 4.76826 19.5055 3.69292 18.4971 2.75685C17.4887 1.82077 16.2331 1.12671 14.7487 0.675798C13.2447 0.224886 11.666 0 10.0103 0C8.35454 0 6.77472 0.224886 5.29031 0.675798C3.78638 1.12671 2.53076 1.82077 1.52236 2.75685C0.51396 3.69406 0 4.7694 0 6C0 6.95433 0.303606 7.80365 0.912983 8.58447C1.50284 9.36529 2.30197 10.0068 3.27242 10.492Z" fill="white"/>
</svg>
