<svg width="23" height="15" viewBox="0 0 23 15" fill="none" xmlns="http://www.w3.org/2000/svg">
<path d="M3.76133 12.6171C4.85823 13.1942 6.06176 13.6274 7.37437 13.937C8.68575 14.2466 10.0204 14.4122 11.3771 14.4109C12.7314 14.4109 14.0649 14.2466 15.3775 13.937C16.6901 13.6274 17.9157 13.1942 19.0126 12.6171C20.1095 12.04 20.9907 11.2769 21.6795 10.3481C22.3462 9.41935 22.6906 8.4091 22.6906 7.27392C22.6906 5.80878 22.1096 4.52967 20.9698 3.41621C19.83 2.30276 18.4108 1.47718 16.733 0.940821C15.0331 0.404463 13.2486 0.136963 11.3771 0.136963C9.50567 0.136963 7.71999 0.404463 6.04216 0.940821C4.34226 1.47718 2.92303 2.30276 1.78323 3.41621C0.643431 4.53102 0.0625 5.81014 0.0625 7.27392C0.0625 8.4091 0.405667 9.41935 1.09445 10.3481C1.76117 11.2769 2.66443 12.04 3.76133 12.6171Z" fill="black"/>
</svg>
