<svg width="26" height="23" viewBox="0 0 26 23" fill="none" xmlns="http://www.w3.org/2000/svg">
<g clip-path="url(#clip0_1656_306)">
<path d="M23.3387 6.14284C23.354 6.38237 23.354 6.62191 23.354 6.86365C23.354 14.2296 18.1648 22.7249 8.67603 22.7249V22.7204C5.87302 22.7249 3.12823 21.8572 0.768555 20.2213C1.17614 20.2743 1.58576 20.3008 1.9964 20.3019C4.31931 20.3041 6.57581 19.4619 8.40329 17.911C6.19581 17.8657 4.26006 16.3104 3.58382 14.0398C4.3571 14.2009 5.15388 14.1678 5.91286 13.9437C3.50619 13.4183 1.77474 11.1333 1.77474 8.47969C1.77474 8.4554 1.77474 8.43222 1.77474 8.40904C2.49183 8.84064 3.29474 9.08018 4.11603 9.10667C1.84931 7.46966 1.1506 4.2111 2.51941 1.66342C5.13856 5.14606 9.00291 7.26324 13.1512 7.48733C12.7355 5.55117 13.3034 3.5223 14.6437 2.16125C16.7214 0.0506957 19.9892 0.158873 21.9423 2.403C23.0976 2.15684 24.205 1.69874 25.2183 1.04968C24.8332 2.34008 24.0272 3.4362 22.9505 4.13273C23.9731 4.00247 24.9721 3.70664 25.9129 3.25517C25.2203 4.37668 24.348 5.35359 23.3387 6.14284Z" fill="black"/>
</g>
<defs>
<clipPath id="clip0_1656_306">
<rect width="25.3333" height="22.5185" fill="white" transform="translate(0.666992 0.481445)"/>
</clipPath>
</defs>
</svg>
