<svg width="28" height="28" viewBox="0 0 28 28" fill="none" xmlns="http://www.w3.org/2000/svg">
<path d="M14 1C11.4288 1 8.91543 1.76244 6.77759 3.19089C4.63975 4.61935 2.97351 6.64968 1.98957 9.02511C1.00563 11.4006 0.748189 14.0144 1.2498 16.5362C1.7514 19.0579 2.98953 21.3743 4.80762 23.1924C6.6257 25.0105 8.94208 26.2486 11.4638 26.7502C13.9856 27.2518 16.5994 26.9944 18.9749 26.0104C21.3503 25.0265 23.3806 23.3602 24.8091 21.2224C26.2376 19.0846 27 16.5712 27 14C27 10.5522 25.6304 7.24558 23.1924 4.80761C20.7544 2.36964 17.4478 1 14 1ZM23.0244 19.8421C21.9933 18.7715 20.7798 17.893 19.4408 17.2477C19.5565 16.1691 19.6095 15.0847 19.5994 14C19.6002 12.9147 19.5379 11.8304 19.4128 10.7523C20.7518 10.107 21.9653 9.22854 22.9964 8.15793C24.1296 9.89564 24.733 11.9254 24.733 14C24.733 16.0746 24.1296 18.1044 22.9964 19.8421H23.0244ZM14 24.7602C13.2627 24.7602 11.7416 22.6511 11.0136 18.6849C12.9578 18.0749 15.0422 18.0749 16.9864 18.6849C16.2584 22.6511 14.7373 24.7602 14 24.7602ZM14 15.9878C12.8899 15.9894 11.785 16.1401 10.715 16.4357C10.6497 15.6705 10.6124 14.8586 10.6124 14C10.6124 13.1414 10.6124 12.3295 10.715 11.5642C11.7852 11.8592 12.8899 12.0099 14 12.0122C15.1101 12.0106 16.215 11.8599 17.285 11.5642C17.3503 12.3295 17.3877 13.1414 17.3877 14C17.3877 14.8586 17.3877 15.6705 17.285 16.4357C16.2147 16.1413 15.11 15.9907 14 15.9878ZM14 3.23977C14.7373 3.23977 16.2584 5.34889 16.9864 9.31515C16.0187 9.61296 15.0125 9.76703 14 9.77243C12.9885 9.77308 11.9823 9.6253 11.0136 9.33381C11.7416 5.34889 13.2627 3.23977 14 3.23977ZM21.6152 6.40344C20.8815 7.2008 20.0244 7.87511 19.0768 8.40057C18.7758 6.80613 18.2478 5.26304 17.509 3.81838C19.0541 4.36147 20.4575 5.24494 21.6152 6.40344ZM10.491 3.83704C9.75236 5.2752 9.22434 6.8121 8.92319 8.40057C7.97833 7.87477 7.12178 7.20402 6.38479 6.41278C7.54145 5.25512 8.94533 4.3745 10.491 3.83704ZM4.9756 8.15793C6.00672 9.22854 7.22019 10.107 8.55923 10.7523C8.30752 12.9226 8.30752 15.1147 8.55923 17.285C7.22019 17.9303 6.00672 18.8088 4.9756 19.8794C3.84237 18.1417 3.239 16.1119 3.239 14.0373C3.239 11.9628 3.84237 9.93297 4.9756 8.19526V8.15793ZM6.38479 21.5965C7.1214 20.8023 7.97793 20.1284 8.92319 19.5994C9.22276 21.1972 9.75079 22.7436 10.491 24.191C8.94499 23.6451 7.54158 22.7584 6.38479 21.5965ZM17.509 24.163C18.2476 22.7248 18.7757 21.1879 19.0768 19.5994C20.023 20.1309 20.8796 20.808 21.6152 21.6059C20.4567 22.7568 19.0529 23.6309 17.509 24.163Z" fill="black" stroke="black" stroke-width="0.3"/>
</svg>
