<svg width="29" height="21" viewBox="0 0 29 21" fill="none" xmlns="http://www.w3.org/2000/svg">
<path d="M28.9793 7.23254C28.9668 6.88085 28.9494 6.52917 28.922 6.18004C28.8124 4.69176 28.6505 2.98943 27.689 1.79931C26.8671 0.779949 25.5943 0.550588 24.3838 0.410425C22.8544 0.232036 21.3176 0.125005 19.7783 0.0663915C16.6598 -0.0559324 13.5389 0.0154212 10.4229 0.0842284C8.82131 0.122455 7.21724 0.158133 5.62064 0.288102C3.66039 0.448653 1.63537 0.741723 0.728725 2.74733C-0.0907447 4.54651 0.0113781 6.82479 0.00141494 8.76923C0.00141494 10.5047 -0.01353 12.2402 0.0537213 13.9756C0.14339 16.2284 0.272911 19.1591 2.64913 20.1479C3.91694 20.6754 5.44877 20.7927 6.80127 20.8819C8.23846 20.9787 9.67814 20.9659 11.1153 20.9889C14.1292 21.0348 17.1455 20.9277 20.1594 20.8666C22.2517 20.8258 24.3937 20.8003 26.4063 20.102C28.1349 19.4981 28.5857 17.5791 28.8199 15.9175C29.054 14.256 28.9917 12.5868 28.9892 10.9226C28.9892 9.70195 29.0191 8.46087 28.9793 7.23254ZM11.5587 14.9823V5.95323L19.0684 10.4665L11.5587 14.9823Z" fill="black"/>
</svg>
