<?xml version="1.0" standalone="no"?>
<!DOCTYPE svg PUBLIC "-//W3C//DTD SVG 1.1//EN" "http://www.w3.org/Graphics/SVG/1.1/DTD/svg11.dtd" >
<svg xmlns="http://www.w3.org/2000/svg" xmlns:xlink="http://www.w3.org/1999/xlink" version="1.1">
<metadata>
Created by FontForge 20190801 at Thu Sep  5 00:00:00 2019
 By www-data
Copyright (c) 2019 by schoener. All rights reserved.
</metadata>
<defs>
<font id="ZoomProWideRegular" horiz-adv-x="1000" >
  <font-face 
    font-family="ZoomProWideRegular"
    font-weight="400"
    font-stretch="semi-expanded"
    units-per-em="1000"
    panose-1="2 0 5 5 0 0 0 0 0 0"
    ascent="800"
    descent="-200"
    x-height="474"
    cap-height="664"
    bbox="-786 -240 2025 905"
    underline-thickness="50"
    underline-position="-200"
    unicode-range="U+0020-1F5CE"
  />
<missing-glyph horiz-adv-x="819" 
d="M734 690h35v-716h-719v716h35l1 1l1 -1h645l1 1zM682 640h-545l273 -272zM100 607v-548l274 274zM719 59v548l-274 -274zM136 24h547l-273 274z" />
    <glyph glyph-name="fi" unicode="fi" horiz-adv-x="628" 
d="M557 474v-474h-88v387h-206v-387h-88v387h-140v87h140v48q0 71 52 114q50 43 127 43q50 0 93 -20q43 -22 65 -58l-72 -53q-20 44 -86 44q-43 0 -67 -21t-24 -59v-38h294z" />
    <glyph glyph-name="fl" unicode="fl" horiz-adv-x="628" 
d="M469 664h88v-664h-88v387h-206v-387h-88v387h-140v87h140v48q0 70 54 114q52 43 133 43q60 0 107 -26v11zM263 474h206v74q-23 44 -100 44q-50 0 -78 -22t-28 -68v-28z" />
    <glyph glyph-name="f_f" unicode="ff" horiz-adv-x="804" 
d="M557 474h198v-87h-198v-387h-88v387h-206v-387h-88v387h-140v87h140v48q0 70 54 114q52 43 133 43q93 0 146 -56q51 56 140 56q50 0 93 -20q43 -22 65 -58l-72 -53q-20 44 -86 44q-43 0 -67 -21t-24 -59v-38zM469 474v48q0 2 2 26q-29 44 -102 44q-50 0 -78 -22t-28 -68
v-28h206z" />
    <glyph glyph-name="f_f_i" unicode="ffi" horiz-adv-x="922" 
d="M851 474v-474h-88v387h-206v-387h-88v387h-206v-387h-88v387h-140v87h140v48q0 70 54 114q52 43 133 43q93 0 146 -56q51 56 140 56q50 0 93 -20q43 -22 65 -58l-72 -53q-20 44 -86 44q-43 0 -67 -21t-24 -59v-38h294zM469 474v48q0 2 2 26q-29 44 -102 44q-50 0 -78 -22
t-28 -68v-28h206z" />
    <glyph glyph-name="f_f_l" unicode="ffl" horiz-adv-x="922" 
d="M763 664h88v-664h-88v387h-206v-387h-88v387h-206v-387h-88v387h-140v87h140v48q0 70 54 114q52 43 133 43q91 0 147 -56q54 56 147 56q60 0 107 -26v11zM469 474v48q0 2 2 26q-29 44 -102 44q-50 0 -78 -22t-28 -68v-28h206zM763 474v74q-23 44 -100 44q-50 0 -78 -22
t-28 -68v-28h206z" />
    <glyph glyph-name=".notdef" horiz-adv-x="819" 
d="M734 690h35v-716h-719v716h35l1 1l1 -1h645l1 1zM682 640h-545l273 -272zM100 607v-548l274 274zM719 59v548l-274 -274zM136 24h547l-273 274z" />
    <glyph glyph-name=".null" horiz-adv-x="0" 
 />
    <glyph glyph-name="nonmarkingreturn" horiz-adv-x="333" 
 />
    <glyph glyph-name="space" unicode=" " horiz-adv-x="321" 
 />
    <glyph glyph-name="exclam" unicode="!" horiz-adv-x="248" 
d="M92 164l-25 500h115l-25 -500h-65zM124 -8q-31 0 -51 16q-21 17 -21 40q0 24 21 41q22 17 51 17t51 -17q21 -17 21 -41t-21 -40q-20 -16 -51 -16z" />
    <glyph glyph-name="quotedbl" unicode="&#x22;" horiz-adv-x="400" 
d="M41 481v40q61 0 90 39q-36 -6 -62 10q-28 16 -28 44q0 24 21 41q22 17 51 17q31 0 52 -18q20 -20 20 -51q-2 -58 -40 -89q-39 -33 -104 -33zM214 481v40q62 0 90 39q-36 -6 -62 10q-28 16 -28 44q0 24 21 41q22 17 51 17q31 0 52 -18q20 -20 20 -51q-2 -58 -40 -89
q-39 -33 -104 -33z" />
    <glyph glyph-name="numbersign" unicode="#" horiz-adv-x="840" 
d="M760 410h-165l-16 -156h165l-9 -88h-165l-18 -166h-90l18 166h-154l-18 -166h-90l18 166h-165l9 88h165l16 156h-165l9 88h166l17 166h90l-17 -166h154l17 166h90l-17 -166h164zM489 254l16 156h-154l-16 -156h154z" />
    <glyph glyph-name="dollar" unicode="$" horiz-adv-x="827" 
d="M475 387q176 -28 249 -74q72 -47 72 -127q0 -94 -100 -146q-101 -53 -266 -53h-6l-17 -129h-90l17 135q-114 15 -188 63q-75 49 -91 119l85 41q3 -50 59 -86q55 -37 147 -49l29 231q-153 27 -222 71q-69 43 -69 119q0 81 93 129t245 48l12 92h90l-12 -97q115 -14 182 -60
q69 -49 82 -122l-87 -43q-4 117 -189 137zM177 502q0 -33 47 -57t163 -44l24 189q-104 -1 -169 -27t-65 -61zM435 76q127 2 198 32q73 30 73 78q0 38 -51 64t-192 48z" />
    <glyph glyph-name="percent" unicode="%" horiz-adv-x="1026" 
d="M248 292q-93 0 -154 55q-62 54 -62 136q0 83 62 139q61 55 154 55q92 0 153 -55q62 -56 62 -139q0 -82 -61 -136q-61 -55 -154 -55zM327 0l298 664h75l-298 -664h-75zM248 368q62 0 102 33t40 83q0 49 -41 84q-40 33 -101 33q-62 0 -102 -33q-41 -35 -41 -84t41 -82
q40 -34 102 -34zM779 -13q-92 0 -153 55q-62 56 -62 137q0 82 62 138q61 55 153 55q93 0 154 -55t61 -138q0 -82 -61 -137t-154 -55zM779 63q61 0 102 33q40 33 40 83t-40 84q-41 33 -102 33t-101 -33q-41 -35 -41 -84t41 -82q40 -34 101 -34z" />
    <glyph glyph-name="ampersand" unicode="&#x26;" horiz-adv-x="850" 
d="M821 59v-87q-123 0 -268 79q-112 -61 -242 -61q-124 0 -203 50q-78 50 -78 127q0 63 48 110q48 45 136 81q-49 80 -49 145q0 77 75 128q74 50 189 50q104 0 169 -41q64 -42 64 -105q0 -27 -12 -51q-12 -23 -38 -45q-24 -20 -50 -36q-24 -17 -66 -33q-50 -20 -68 -26
q-8 -3 -72 -26q82 -92 195 -162q97 65 196 197l70 -53q-85 -120 -178 -193q101 -48 182 -48zM258 495q0 -45 42 -106h1q2 1 9.5 3t16 5t16.5 6q7 2 22.5 7t21.5 7t40 14q22 7 39 14q14 6 33 15q16 6 30 16t21 16q10 8 15 18q4 8 4 18q0 28 -42 46q-43 18 -106 18
q-71 0 -117 -27q-46 -28 -46 -70zM312 79q80 0 149 28q-118 83 -197 180q-141 -54 -141 -116q0 -41 52 -66q54 -26 137 -26z" />
    <glyph glyph-name="quotesingle" unicode="'" horiz-adv-x="227" 
d="M41 481v40q61 0 90 39q-36 -6 -62 10q-28 16 -28 44q0 24 21 41q22 17 51 17q31 0 52 -18q20 -20 20 -51q-2 -58 -40 -89q-39 -33 -104 -33z" />
    <glyph glyph-name="parenleft" unicode="(" horiz-adv-x="341" 
d="M264 -100q-104 79 -164 194q-58 112 -58 246q0 132 58 241q56 108 164 184l53 -73q-185 -128 -185 -352q0 -113 49 -207q49 -97 139 -163z" />
    <glyph glyph-name="parenright" unicode=")" horiz-adv-x="341" 
d="M77 -101l-56 70q89 66 140 164q48 95 48 206q0 109 -47 201q-48 89 -138 151l53 73q107 -77 165 -184q57 -109 57 -241q0 -134 -58 -246q-60 -115 -164 -194z" />
    <glyph glyph-name="asterisk" unicode="*" horiz-adv-x="608" 
d="M553 561l-177 -58l139 -190l-57 -45l-109 150l-141 -195l-58 44l107 148l-225 73l23 72l177 -58v239h72v-184l227 75z" />
    <glyph glyph-name="plus" unicode="+" horiz-adv-x="650" 
d="M586 305v-88h-217v-217h-88v217h-217v88h217v217h88v-217h217z" />
    <glyph glyph-name="comma" unicode="," horiz-adv-x="248" 
d="M52 -85v40q62 0 90 39q-36 -6 -62 10q-28 16 -28 44q0 24 21 41q22 17 51 17q31 0 52 -18q20 -20 20 -51q-2 -58 -40 -89q-39 -33 -104 -33z" />
    <glyph glyph-name="hyphen" unicode="-" horiz-adv-x="388" 
d="M64 217v88h260v-88h-260z" />
    <glyph glyph-name="period" unicode="." horiz-adv-x="248" 
d="M124 -8q-31 0 -51 16q-21 17 -21 40q0 24 21 41q22 17 51 17t51 -17q21 -17 21 -41t-21 -40q-20 -16 -51 -16z" />
    <glyph glyph-name="slash" unicode="/" horiz-adv-x="364" 
d="M135 -142h-92l186 913h92z" />
    <glyph glyph-name="zero" unicode="0" horiz-adv-x="900" 
d="M450 -13q-74 0 -144 21q-70 19 -130 60q-60 39 -96 108q-37 68 -37 157q0 85 36 152q34 67 94 110q58 40 130 63q71 21 147 21t147 -21q72 -23 130 -63q59 -42 95 -110q35 -68 35 -152q0 -88 -36 -157q-38 -70 -97 -108q-60 -41 -130 -60q-70 -21 -144 -21zM450 76
q58 0 112 15q51 13 100 43q45 28 74 81q28 50 28 118q0 83 -48 145q-49 61 -117 86q-70 26 -149 26t-149 -26q-68 -25 -117 -86q-48 -62 -48 -145q0 -68 28 -118q28 -53 75 -81q50 -30 100 -43q53 -15 111 -15z" />
    <glyph glyph-name="one" unicode="1" horiz-adv-x="607" 
d="M433 664h90v-664h-90v468q-56 -80 -152 -132q-97 -52 -225 -72l-46 89q177 15 292 99q114 82 131 212z" />
    <glyph glyph-name="two" unicode="2" horiz-adv-x="812" 
d="M771 446q0 -96 -113 -182q-115 -87 -344 -175h436v-89h-660l-18 89q320 105 463 196q143 92 143 161q0 58 -75 102q-75 42 -188 42q-119 0 -201 -46q-84 -46 -84 -108q0 -42 59 -89l-54 -72q-98 77 -98 161q0 104 112 174q113 69 266 69q146 0 252 -65q104 -65 104 -168z
" />
    <glyph glyph-name="three" unicode="3" horiz-adv-x="852" 
d="M611 354q196 -52 196 -178q0 -57 -52 -100q-53 -44 -132 -66q-81 -23 -168 -23q-348 0 -416 171l89 26q51 -108 312 -108q122 0 198 33t76 78q0 53 -92 86q-93 32 -246 32h-71l-20 86h79q135 0 222 31q88 30 88 76q0 38 -64 65t-172 27q-116 0 -192 -25q-80 -25 -99 -72
l-85 42q31 69 137 107q104 37 239 37q138 0 233 -46q96 -47 96 -126q0 -46 -41 -87q-42 -41 -115 -66z" />
    <glyph glyph-name="four" unicode="4" horiz-adv-x="848" 
d="M826 207v-88h-212v-119h-90v119h-503v88q140 27 234 169q93 139 95 314l86 -47q-4 -132 -66 -248q-61 -115 -160 -188h314v275h90v-275h212z" />
    <glyph glyph-name="five" unicode="5" horiz-adv-x="841" 
d="M463 464q152 0 246 -62q92 -62 92 -166q0 -111 -109 -180q-110 -69 -274 -69q-123 0 -225 36q-102 34 -160 92l68 59q50 -47 133 -72q84 -26 184 -26q133 0 212 46q78 45 78 117q0 63 -69 101q-70 37 -178 37q-100 0 -181 -29q-80 -29 -128 -83l-85 29l72 370h621v-89
h-547l-41 -206q119 95 291 95z" />
    <glyph glyph-name="six" unicode="6" horiz-adv-x="859" 
d="M491 423q83 0 158 -20q72 -21 124 -68q50 -48 50 -114q0 -99 -107 -167q-107 -67 -258 -67q-76 0 -150 20q-72 19 -132 60q-61 41 -96 107q-37 67 -37 152q0 87 37 155q36 69 96 111q59 41 132 64q70 22 148 22q89 0 179 -33q90 -34 139 -97l-81 -44q-35 39 -100 62
q-67 23 -137 23q-60 0 -114 -16q-58 -17 -102 -47q-47 -32 -75 -83q-29 -53 -29 -117q0 -22 3 -41q143 138 352 138zM458 76q115 0 194 41q78 41 78 100q0 55 -69 87q-69 31 -182 31q-107 0 -180 -30q-76 -32 -134 -96q37 -67 117 -100q78 -33 176 -33z" />
    <glyph glyph-name="seven" unicode="7" horiz-adv-x="815" 
d="M18 664h779v-89q-106 -9 -197 -51q-92 -42 -162 -112t-108 -177q-37 -104 -29 -235h-95q-9 192 76 343q86 150 236 232h-500v89z" />
    <glyph glyph-name="eight" unicode="8" horiz-adv-x="876" 
d="M651 360q87 -27 137 -72q48 -46 48 -102q0 -88 -115 -143q-117 -56 -283 -56q-165 0 -282 56q-116 56 -116 143q0 56 49 102q50 45 137 72q-145 52 -145 147q0 73 104 123q102 49 253 49q153 0 255 -49q103 -49 103 -123q0 -95 -145 -147zM174 498q0 -42 75 -69t189 -27
t190 27q75 27 75 69t-78 67t-187 25q-110 0 -186 -25q-78 -25 -78 -67zM438 76q128 0 217 36q88 34 88 84q0 51 -90 85q-93 35 -215 35q-121 0 -214 -35q-91 -34 -91 -85q0 -49 89 -84q88 -36 216 -36z" />
    <glyph glyph-name="nine" unicode="9" horiz-adv-x="864" 
d="M407 679q75 0 149 -20q72 -21 132 -60q60 -41 97 -107q36 -68 36 -153q0 -88 -35 -160q-33 -68 -94 -110q-60 -42 -130 -61q-72 -21 -153 -21q-90 0 -179 34q-90 32 -140 96l84 41q36 -37 101 -60q63 -22 134 -22q63 0 119 15q53 13 101 44q45 29 73 83q26 54 26 121
q0 6 -2 36q-142 -133 -353 -133q-83 0 -157 21q-74 20 -124 68q-51 47 -51 113q0 100 108 168q107 67 258 67zM386 330q107 0 181 31q75 32 132 95q-37 66 -116 101q-79 33 -176 33q-115 0 -194 -41q-79 -40 -79 -101q0 -55 70 -86q72 -32 182 -32z" />
    <glyph glyph-name="colon" unicode=":" horiz-adv-x="272" 
d="M136 368q-31 0 -51 16q-21 16 -21 40t21 41q22 17 51 17t51 -17q21 -17 21 -41t-21 -40q-20 -16 -51 -16zM136 -8q-31 0 -51 16q-21 17 -21 40q0 24 21 41q22 17 51 17t51 -17q21 -17 21 -41t-21 -40q-20 -16 -51 -16z" />
    <glyph glyph-name="semicolon" unicode=";" horiz-adv-x="272" 
d="M136 368q-31 0 -51 16q-21 16 -21 40t21 41q22 17 51 17t51 -17q21 -17 21 -41t-21 -40q-20 -16 -51 -16zM64 -85v40q62 0 90 39q-36 -6 -62 10q-28 16 -28 44q0 24 21 41q22 17 51 17q31 0 52 -18q20 -20 20 -51q-2 -58 -40 -89q-39 -33 -104 -33z" />
    <glyph glyph-name="less" unicode="&#x3c;" horiz-adv-x="641" 
d="M570 -13l-540 275l540 273v-100l-349 -173l349 -176v-99z" />
    <glyph glyph-name="equal" unicode="=" horiz-adv-x="650" 
d="M64 305v88h522v-88h-522zM64 128v88h522v-88h-522z" />
    <glyph glyph-name="greater" unicode="&#x3e;" horiz-adv-x="641" 
d="M71 534l540 -275l-540 -273v100l349 173l-349 176v99z" />
    <glyph glyph-name="question" unicode="?" horiz-adv-x="490" 
d="M67 664q399 0 399 -181q0 -81 -79 -133t-223 -63l-7 -123h-65l-11 198h13q128 2 204 33q75 30 75 77q0 104 -300 103zM124 106q29 0 51 -17q21 -17 21 -41t-21 -40q-20 -16 -51 -16t-51 16q-21 17 -21 40q0 24 21 41q22 17 51 17z" />
    <glyph glyph-name="at" unicode="@" horiz-adv-x="1150" 
d="M574 679q97 0 193 -29q95 -28 171 -81q76 -52 123 -136q46 -83 46 -185q0 -72 -21 -133q-22 -63 -52 -98q-31 -36 -64 -56q-32 -20 -58 -20q-52 0 -79 38q-26 37 -28 103q-46 -46 -116 -70q-69 -25 -143 -25q-76 0 -143 27q-68 26 -115 85t-47 138q0 80 46 138
q44 57 113 85q68 27 146 27q72 0 143 -24q68 -23 116 -71v82h88v-362q0 -117 44 -117q40 0 85 77t45 176q0 110 -64 199q-65 89 -177 140q-114 51 -252 51q-210 0 -350 -112q-141 -112 -141 -278q0 -171 139 -280q140 -111 352 -111q120 0 227 45l16 -38q-113 -48 -243 -48
q-96 0 -188 27q-95 28 -170 79q-79 52 -125 136q-48 86 -48 190q0 100 47 185q47 84 123 136q77 53 170 81q95 29 191 29zM569 74q106 0 171 46q65 45 65 117q0 73 -65 118q-66 45 -171 45q-107 0 -171 -45q-66 -45 -66 -118q0 -72 66 -117q65 -46 171 -46z" />
    <glyph glyph-name="A" unicode="A" horiz-adv-x="838" 
d="M731 0l-78 145h-468l-78 -145h-101l356 664h114l356 -664h-101zM232 233h374l-187 349z" />
    <glyph glyph-name="B" unicode="B" horiz-adv-x="878" 
d="M710 354q124 -45 124 -160q0 -97 -85 -148t-227 -51q-168 0 -241 1q-28 0 -63 0.5t-56 1t-34 0.5l-44 2v664q139 7 426 7q136 0 215 -44q78 -45 78 -132q0 -97 -93 -141zM710 494q0 88 -200 88q-111 0 -336 -5v-183h340q104 0 150 25t46 75zM522 84q107 0 163 29t56 82
q0 52 -53 81t-156 29h-358v-218q240 -3 348 -3z" />
    <glyph glyph-name="C" unicode="C" horiz-adv-x="819" 
d="M455 -13q-59 0 -116 12q-59 12 -111 40q-55 28 -95 66q-41 39 -65 98q-25 57 -25 130q0 85 36 152q35 68 95 110q58 40 131 63q72 21 150 21q100 0 187 -34q88 -35 138 -99l-58 -78q-37 60 -109 91q-71 31 -161 31q-140 0 -228 -71q-88 -70 -88 -186q0 -115 87 -186
q88 -71 232 -71q83 0 154 27q69 25 113 75l68 -62q-59 -65 -148 -96q-92 -33 -187 -33z" />
    <glyph glyph-name="D" unicode="D" horiz-adv-x="854" 
d="M362 670q70 0 138 -11q61 -10 122 -35q60 -26 100 -62q41 -38 65 -95t24 -128q0 -96 -37 -164q-38 -70 -102 -107q-66 -40 -141 -56q-77 -18 -169 -18q-69 0 -161 2l-93 2l-24 2v664q71 6 278 6zM362 83q356 0 356 256q0 242 -356 242q-74 0 -188 -2v-494q114 -2 188 -2z
" />
    <glyph glyph-name="E" unicode="E" horiz-adv-x="775" 
d="M731 575h-557v-181h481v-89h-481v-216h557v-89h-647v664h647v-89z" />
    <glyph glyph-name="F" unicode="F" horiz-adv-x="752" 
d="M731 575h-557v-181h481v-89h-481v-305h-90v664h647v-89z" />
    <glyph glyph-name="G" unicode="G" horiz-adv-x="896" 
d="M380 365h445v-365h-90v122q-41 -66 -120 -101q-77 -34 -172 -34q-58 0 -111 13q-55 12 -107 40q-55 30 -93 68q-39 38 -64 98q-25 57 -25 127q0 85 36 152q35 68 95 110q58 40 131 63q72 21 150 21q100 0 187 -34q88 -35 138 -99l-58 -78q-37 60 -109 91q-71 31 -161 31
q-140 0 -228 -71q-88 -70 -88 -186q0 -121 90 -189q89 -68 219 -68q104 0 187 53q81 52 108 146h-360v90z" />
    <glyph glyph-name="H" unicode="H" horiz-adv-x="895" 
d="M721 664h90v-664h-90v305h-547v-305h-90v664h90v-270h547v270z" />
    <glyph glyph-name="I" unicode="I" horiz-adv-x="258" 
d="M84 0v664h90v-664h-90z" />
    <glyph glyph-name="J" unicode="J" horiz-adv-x="791" 
d="M340 -13q-101 0 -187 34q-90 35 -138 98l58 78q36 -59 109 -90q71 -31 158 -31q125 0 207 61q82 60 82 164v363h90v-371q0 -140 -110 -223q-112 -83 -269 -83z" />
    <glyph glyph-name="K" unicode="K" horiz-adv-x="809" 
d="M692 0l-290 311l-228 -202v-109h-90v664h90v-436l495 436h133l-334 -293l344 -371h-120z" />
    <glyph glyph-name="L" unicode="L" horiz-adv-x="724" 
d="M174 89h532v-89h-622v664h90v-575z" />
    <glyph glyph-name="M" unicode="M" horiz-adv-x="1117" 
d="M928 664h105v-664h-90v518l-330 -518h-108l-331 518v-518h-90v664h106l369 -582z" />
    <glyph glyph-name="N" unicode="N" horiz-adv-x="959" 
d="M785 664h90v-664h-109l-592 560v-560h-90v664h110l591 -559v559z" />
    <glyph glyph-name="O" unicode="O" horiz-adv-x="900" 
d="M450 -13q-74 0 -144 21q-70 19 -130 60q-60 39 -96 108q-37 68 -37 157q0 85 36 152q34 67 94 110q58 40 130 63q71 21 147 21t147 -21q72 -23 130 -63q59 -42 95 -110q35 -68 35 -152q0 -88 -36 -157q-38 -70 -97 -108q-60 -41 -130 -60q-70 -21 -144 -21zM450 76
q57 0 111 15q55 15 101 45q45 27 74 80q28 50 28 117q0 83 -48 144q-48 60 -117 87q-70 26 -149 26t-149 -26q-69 -27 -117 -87q-48 -61 -48 -144q0 -67 28 -117q29 -52 75 -80q47 -30 100 -45q54 -15 111 -15z" />
    <glyph glyph-name="P" unicode="P" horiz-adv-x="823" 
d="M444 671q355 0 355 -213q0 -108 -90 -157q-91 -50 -265 -50h-270v-251h-90v664q119 7 360 7zM444 339q143 0 203 30q59 29 59 89q0 62 -61 93t-201 31q-163 0 -270 -4v-239h270z" />
    <glyph glyph-name="Q" unicode="Q" horiz-adv-x="901" 
d="M901 1l-56 -69l-150 117q-106 -62 -245 -62q-74 0 -144 21q-70 19 -130 60q-60 39 -96 108q-37 68 -37 157q0 85 36 152q34 67 94 110q58 40 130 63q71 21 147 21t147 -21q72 -23 130 -63q59 -42 95 -110q35 -68 35 -152q0 -139 -89 -228zM450 76q91 0 166 34l-194 151
l56 69l216 -168q70 67 70 171q0 83 -48 144q-48 60 -117 87q-70 26 -149 26t-149 -26q-69 -27 -117 -87q-48 -61 -48 -144q0 -67 28 -117q29 -52 75 -80q47 -30 100 -45q54 -15 111 -15z" />
    <glyph glyph-name="R" unicode="R" horiz-adv-x="841" 
d="M808 0h-119l-229 251h-286v-251h-90v664q119 7 360 7q355 0 355 -213q0 -167 -227 -199zM174 578v-239h270q143 0 203 30q59 29 59 89q0 62 -61 93t-201 31q-163 0 -270 -4z" />
    <glyph glyph-name="S" unicode="S" horiz-adv-x="852" 
d="M430 -13q-154 0 -254 52q-102 52 -121 136l85 41q5 -62 84 -101q80 -39 206 -39q128 0 202 31q74 32 74 79q0 25 -20 45q-20 18 -82 38q-58 17 -171 34q-187 27 -267 73q-82 45 -82 126t93 129t245 48q155 0 246 -49q92 -50 108 -138l-87 -43q-5 141 -267 141
q-108 0 -177 -26q-68 -27 -68 -62q0 -37 60 -62q62 -27 210 -49q193 -28 271 -75t78 -130q0 -94 -100 -146q-101 -53 -266 -53z" />
    <glyph glyph-name="T" unicode="T" horiz-adv-x="759" 
d="M741 664v-89h-317v-575h-90v575h-316v89h723z" />
    <glyph glyph-name="U" unicode="U" horiz-adv-x="903" 
d="M451 -13q-158 0 -268 83q-111 82 -111 223v371h90v-363q0 -104 82 -164q82 -61 207 -61q126 0 208 61q82 60 82 164v363h90v-371q0 -140 -110 -223q-112 -83 -270 -83z" />
    <glyph glyph-name="V" unicode="V" horiz-adv-x="838" 
d="M731 664h101l-356 -664h-114l-356 664h101l312 -581z" />
    <glyph glyph-name="W" unicode="W" horiz-adv-x="1166" 
d="M1061 664h96l-247 -664h-119l-209 567l-210 -567h-118l-245 664h95l210 -565l209 565h118l209 -563z" />
    <glyph glyph-name="X" unicode="X" horiz-adv-x="807" 
d="M818 0h-124l-290 291l-291 -291h-124l351 353l-308 311h123l249 -248l248 248h123l-308 -311z" />
    <glyph glyph-name="Y" unicode="Y" horiz-adv-x="903" 
d="M891 664l-394 -436v-228h-90v227l-395 437h119l321 -353l320 353h119z" />
    <glyph glyph-name="Z" unicode="Z" horiz-adv-x="741" 
d="M700 664v-89l-529 -486h526v-89h-656v89l529 486h-525v89h655z" />
    <glyph glyph-name="bracketleft" unicode="[" horiz-adv-x="355" 
d="M322 670h-148v-676h148v-89h-238v854h238v-89z" />
    <glyph glyph-name="backslash" unicode="\" horiz-adv-x="364" 
d="M229 -142l-186 913h92l186 -913h-92z" />
    <glyph glyph-name="bracketright" unicode="]" horiz-adv-x="355" 
d="M271 759v-854h-237v89h147v676h-147v89h237z" />
    <glyph glyph-name="asciicircum" unicode="^" horiz-adv-x="794" 
d="M102 153l-72 52l367 485l367 -485l-73 -52l-294 385z" />
    <glyph glyph-name="underscore" unicode="_" horiz-adv-x="500" 
d="M0 -88v88h500v-88h-500z" />
    <glyph glyph-name="grave" unicode="`" horiz-adv-x="88" 
d="M88 711h-88l-121 136h111z" />
    <glyph glyph-name="a" unicode="a" horiz-adv-x="760" 
d="M601 474h88v-474h-88v82q-46 -46 -116 -70q-69 -25 -143 -25q-76 0 -143 27q-68 26 -115 85t-47 138q0 80 46 138q44 57 113 85q67 27 146 27q72 0 143 -24q68 -23 116 -71v82zM365 74q106 0 171 46q65 45 65 117q0 73 -65 118q-66 45 -171 45q-107 0 -171 -45
q-66 -45 -66 -118q0 -72 66 -117q65 -46 171 -46z" />
    <glyph glyph-name="b" unicode="b" horiz-adv-x="760" 
d="M418 487q79 0 146 -27q68 -27 114 -85q45 -59 45 -138t-47 -138q-48 -60 -114 -85q-68 -27 -144 -27q-74 0 -143 25q-70 24 -116 70v-82h-88v664h88v-272q48 48 116 71q70 24 143 24zM395 74q106 0 171 46q66 45 66 117q0 73 -65 118q-66 45 -172 45q-105 0 -170 -45
q-66 -45 -66 -118q0 -72 66 -117q64 -46 170 -46z" />
    <glyph glyph-name="c" unicode="c" horiz-adv-x="657" 
d="M366 -13q-82 0 -153 25q-73 25 -124 84q-52 58 -52 141q0 81 51 140q50 59 123 84q73 26 155 26q75 0 141 -22q70 -23 115 -64l-54 -73q-64 72 -202 72q-95 0 -166 -42q-72 -44 -72 -121q0 -79 72 -121t166 -42q134 0 199 68l68 -59q-47 -47 -119 -71q-71 -25 -148 -25z
" />
    <glyph glyph-name="d" unicode="d" horiz-adv-x="760" 
d="M601 664h88v-664h-88v82q-46 -46 -116 -70q-69 -25 -143 -25q-76 0 -143 27q-68 26 -115 85t-47 138q0 80 46 138q44 57 113 85q67 27 146 27q72 0 143 -24q68 -23 116 -71v272zM365 74q106 0 171 46q65 45 65 117q0 73 -65 118q-66 45 -171 45q-107 0 -171 -45
q-66 -45 -66 -118q0 -72 66 -117q65 -46 171 -46z" />
    <glyph glyph-name="e" unicode="e" horiz-adv-x="731" 
d="M366 487q148 0 244 -75q95 -77 83 -208h-561q15 -64 83 -97q67 -34 151 -34q131 0 199 68l68 -59q-45 -46 -119 -70q-71 -25 -148 -25q-82 0 -153 25q-73 25 -124 84q-52 58 -52 141q0 81 51 140q50 59 123 84q73 26 155 26zM366 401q-77 0 -142 -30t-87 -85h458
q-22 55 -87 85t-142 30z" />
    <glyph glyph-name="f" unicode="f" horiz-adv-x="510" 
d="M263 512v-38h198v-87h-198v-387h-88v387h-140v87h140v48q0 71 52 114q50 43 127 43q50 0 93 -20q43 -22 65 -58l-72 -53q-20 44 -86 44q-43 0 -67 -21t-24 -59z" />
    <glyph glyph-name="g" unicode="g" horiz-adv-x="760" 
d="M601 474h88v-417q0 -123 -99 -190q-98 -67 -249 -67q-96 0 -170 28q-74 27 -109 75l67 60q19 -37 77 -57t136 -20q114 0 187 43q72 42 72 123v30q-46 -46 -116 -70q-69 -25 -143 -25q-76 0 -143 27q-68 26 -115 85t-47 138q0 80 46 138q44 57 113 85q67 27 146 27
q72 0 143 -24q68 -23 116 -71v82zM365 74q106 0 171 46q65 45 65 117q0 73 -65 118q-66 45 -171 45q-107 0 -171 -45q-66 -45 -66 -118q0 -72 66 -117q65 -46 171 -46z" />
    <glyph glyph-name="h" unicode="h" horiz-adv-x="765" 
d="M423 488q122 0 201 -55q78 -55 78 -162v-270l-88 -1v250q0 81 -50 116t-150 35q-49 0 -94 -15q-46 -15 -81 -43q-37 -28 -58 -74q-22 -45 -22 -105v-164h-88v664h88v-292q48 57 116 86q69 30 148 30z" />
    <glyph glyph-name="i" unicode="i" horiz-adv-x="230" 
d="M115 521q-31 0 -51 16q-21 17 -21 40q0 25 21 41q22 17 51 17t51 -17q21 -16 21 -41q0 -23 -21 -40q-20 -16 -51 -16zM71 0v474h88v-474h-88z" />
    <glyph glyph-name="j" unicode="j" horiz-adv-x="230" 
d="M115 521q-31 0 -51 16q-21 17 -21 40q0 25 21 41q22 17 51 17t51 -17q21 -16 21 -41q0 -23 -21 -40q-20 -16 -51 -16zM-20 -200q-51 0 -93 21q-43 20 -65 57l72 53q20 -44 86 -44q43 0 67 21q24 20 24 59v507h88v-517q0 -69 -51 -113q-53 -44 -128 -44z" />
    <glyph glyph-name="k" unicode="k" horiz-adv-x="686" 
d="M559 0l-256 221l-144 -102v-119h-88v664h88v-441l368 251h154l-305 -202l314 -272h-131z" />
    <glyph glyph-name="l" unicode="l" horiz-adv-x="230" 
d="M71 0v664h88v-664h-88z" />
    <glyph glyph-name="m" unicode="m" horiz-adv-x="1112" 
d="M818 486q105 0 169 -59q62 -60 62 -168v-259h-88v246q0 74 -43 114t-115 40q-86 0 -142 -49q-57 -49 -57 -122v-229h-88v245q0 75 -43 115t-115 40q-86 0 -142 -49q-57 -49 -57 -122v-229h-88v474h88v-87q36 48 98 74q59 25 126 25q69 0 121 -28q53 -29 78 -82
q37 53 101 82q62 28 135 28z" />
    <glyph glyph-name="n" unicode="n" horiz-adv-x="765" 
d="M423 488q122 0 201 -55q78 -55 78 -162v-270l-88 -1v250q0 81 -50 116t-150 35q-49 0 -94 -15q-46 -15 -81 -43q-37 -28 -58 -74q-22 -45 -22 -105v-164h-88v474h88v-102q48 57 116 86q69 30 148 30z" />
    <glyph glyph-name="o" unicode="o" horiz-adv-x="732" 
d="M366 -13q-82 0 -153 25q-73 25 -124 84q-52 58 -52 141q0 81 51 140q50 59 123 84q73 26 155 26q81 0 156 -26q72 -25 123 -84q50 -59 50 -140q0 -83 -51 -141q-53 -59 -124 -84q-72 -25 -154 -25zM366 74q94 0 166 42t72 121q0 77 -71 121q-72 42 -167 42t-166 -42
q-72 -44 -72 -121q0 -79 72 -121t166 -42z" />
    <glyph glyph-name="p" unicode="p" horiz-adv-x="760" 
d="M418 487q79 0 146 -27q68 -27 114 -85q45 -59 45 -138t-47 -138q-48 -60 -114 -85q-68 -27 -144 -27q-74 0 -143 25q-70 24 -116 70v-267h-88v659h88v-82q48 48 116 71q70 24 143 24zM395 74q106 0 171 46q66 45 66 117q0 73 -65 118q-66 45 -172 45q-105 0 -170 -45
q-66 -45 -66 -118q0 -72 66 -117q64 -46 170 -46z" />
    <glyph glyph-name="q" unicode="q" horiz-adv-x="760" 
d="M601 474h88v-659h-88v267q-46 -46 -116 -70q-69 -25 -143 -25q-76 0 -143 27q-68 26 -115 85t-47 138q0 80 46 138q44 57 113 85q67 27 146 27q72 0 143 -24q68 -23 116 -71v82zM365 74q106 0 171 46q65 45 65 117q0 73 -65 118q-66 45 -171 45q-107 0 -171 -45
q-66 -45 -66 -118q0 -72 66 -117q65 -46 171 -46z" />
    <glyph glyph-name="r" unicode="r" horiz-adv-x="707" 
d="M683 295l-87 -46q7 67 -42 109q-51 42 -144 42q-104 0 -177 -49q-74 -50 -74 -140v-211h-88v474h88v-94q46 51 118 79q71 28 158 28q109 0 176 -54t72 -138z" />
    <glyph glyph-name="s" unicode="s" horiz-adv-x="690" 
d="M342 -13q-124 0 -208 37q-87 37 -106 98l80 38q13 -43 79 -65q63 -22 166 -22q99 0 157 19q59 20 59 52q0 12 -15 23q-15 8 -67 19q-53 10 -144 18q-148 13 -224 47q-75 31 -75 100q0 65 83 101q84 35 215 35q118 0 199 -35q79 -36 96 -98l-82 -39q-20 86 -213 86
q-99 0 -154 -15q-56 -15 -56 -38q0 -19 56 -33q62 -15 203 -28q149 -13 208 -46q57 -33 57 -102q0 -73 -86 -112q-84 -40 -228 -40z" />
    <glyph glyph-name="t" unicode="t" horiz-adv-x="510" 
d="M440 118l72 -53q-22 -37 -65 -57q-42 -21 -93 -21q-75 0 -127 44q-52 43 -52 113v243h-140v87h140v95l88 51v-146h198v-87h-198v-233q0 -40 24 -59q24 -21 67 -21q66 0 86 44z" />
    <glyph glyph-name="u" unicode="u" horiz-adv-x="765" 
d="M606 474h88v-474h-88v91q-44 -51 -113 -77q-69 -27 -147 -27q-120 0 -201 63t-81 175v249h88v-233q0 -83 56 -125q55 -43 150 -43q106 0 177 51q71 50 71 141v209z" />
    <glyph glyph-name="v" unicode="v" horiz-adv-x="733" 
d="M630 474h102l-308 -474h-115l-308 474h102l264 -403z" />
    <glyph glyph-name="w" unicode="w" horiz-adv-x="1153" 
d="M1053 474h99l-256 -474h-104l-215 398l-216 -398h-104l-256 474h99l209 -387l210 387h115l210 -387z" />
    <glyph glyph-name="x" unicode="x" horiz-adv-x="698" 
d="M702 0h-130l-223 191l-223 -191h-130l288 247l-264 227h130l199 -171l200 171h130l-265 -227z" />
    <glyph glyph-name="y" unicode="y" horiz-adv-x="733" 
d="M629 474h103l-425 -659h-103l120 185l-323 474h104l270 -394z" />
    <glyph glyph-name="z" unicode="z" horiz-adv-x="650" 
d="M610 474v-87l-422 -300h419v-87h-567v87l421 300h-414v87h563z" />
    <glyph glyph-name="braceleft" unicode="{" horiz-adv-x="381" 
d="M345 -100q-237 0 -242 143q-1 42 33 115q34 72 34 93q0 50 -106 50v100q25 0 34 1q20 2 30 5q17 5 25 14q9 11 9 25q0 16 -28 76q-28 59 -28 104q-1 72 56 105q56 33 183 33v-89q-75 0 -110 -15q-34 -16 -34 -55q0 -35 33 -94q32 -61 32 -84q0 -60 -89 -65v-20
q37 -2 67 -23q30 -23 30 -60q0 -31 -38 -96q-38 -68 -37 -99q2 -42 36 -58q36 -17 110 -17v-89z" />
    <glyph glyph-name="bar" unicode="|" horiz-adv-x="258" 
d="M84 -142v832h90v-832h-90z" />
    <glyph glyph-name="braceright" unicode="}" horiz-adv-x="384" 
d="M39 -100v89q74 0 110 17q34 16 36 58q1 31 -37 99q-38 65 -38 96q0 38 31 60q29 21 66 23v20q-89 5 -89 65q0 24 33 84q32 59 32 94q0 39 -34 55q-35 15 -110 15v89q127 0 184 -33q56 -34 55 -105q0 -45 -28 -104q-28 -60 -28 -76q0 -14 9 -25q8 -9 26 -14q10 -3 30 -5
q9 -1 33 -1v-100q-106 0 -106 -50q0 -21 34 -93q34 -73 33 -115q-5 -143 -242 -143z" />
    <glyph glyph-name="asciitilde" unicode="~" horiz-adv-x="792" 
d="M559 144q-49 0 -94 22q-45 21 -76 48q-34 27 -71 48q-40 21 -78 21q-39 0 -70 -20q-31 -21 -31 -49h-75q0 68 49 116t121 48q48 0 94 -21q44 -22 76 -48q31 -26 71 -47q40 -22 78 -22q41 0 72 20q29 20 29 50h74q0 -71 -47 -118q-48 -48 -122 -48z" />
    <glyph glyph-name="uni00A0" unicode="&#xa0;" horiz-adv-x="321" 
 />
    <glyph glyph-name="exclamdown" unicode="&#xa1;" horiz-adv-x="272" 
d="M136 482q31 0 51 -16q21 -16 21 -40t-21 -41q-22 -17 -51 -17t-51 17q-21 17 -21 41t21 40q20 16 51 16zM104 310h65l25 -500h-115z" />
    <glyph glyph-name="cent" unicode="&#xa2;" horiz-adv-x="819" 
d="M722 178l68 -62q-59 -65 -148 -96q-92 -33 -187 -33q-23 0 -30 1l-17 -130h-90l18 142q-56 13 -111 40q-52 26 -92 66q-43 41 -66 98q-24 58 -24 129q0 105 56 185q56 78 140 116q85 38 184 44l12 93h90l-12 -95q84 -9 154 -42t113 -88l-58 -78q-64 103 -221 119
l-65 -511h19q83 0 154 27q69 25 113 75zM136 333q0 -93 57 -157q56 -65 154 -88l65 500q-126 -11 -200 -79q-76 -69 -76 -176z" />
    <glyph glyph-name="sterling" unicode="&#xa3;" horiz-adv-x="804" 
d="M250 88h514v-88h-708v88h101q24 50 24 103q0 56 -37 126h-117v86h69q-22 45 -22 83q0 90 96 141q95 50 248 50q116 0 204 -30t122 -85l-78 -46q-19 31 -88 51q-71 20 -160 20q-114 0 -179 -35q-66 -34 -66 -86q0 -21 20 -63h277v-86h-232q33 -71 33 -126q0 -53 -21 -103z
" />
    <glyph glyph-name="currency" unicode="&#xa4;" horiz-adv-x="732" 
d="M644 488q51 -64 51 -156q0 -90 -51 -155l51 -39l-51 -67l-62 48q-91 -61 -216 -61t-216 61l-62 -48l-51 67l51 39q-51 65 -51 155q0 92 51 156l-51 38l51 67l63 -48q91 61 215 61t215 -61l63 48l51 -67zM128 332q0 -91 72 -139t166 -48t166 48t72 139q0 89 -71 139
q-72 48 -167 48q-96 0 -166 -48q-72 -49 -72 -139z" />
    <glyph glyph-name="yen" unicode="&#xa5;" horiz-adv-x="903" 
d="M891 664l-336 -372h171v-86h-229v-47h229v-86h-229v-73h-90v73h-230v86h230v47h-230v86h171l-336 372h119l321 -353l320 353h119z" />
    <glyph glyph-name="brokenbar" unicode="&#xa6;" horiz-adv-x="258" 
d="M84 360v330h90v-330h-90zM84 -142v330h90v-330h-90z" />
    <glyph glyph-name="section" unicode="&#xa7;" horiz-adv-x="852" 
d="M682 117q84 -47 84 -129q0 -81 -92 -128q-94 -47 -246 -47q-156 0 -248 50t-107 138l85 44q-1 -68 65 -106q64 -37 198 -37q121 0 187 25q68 26 68 67q0 37 -60 61q-60 22 -215 45q-184 27 -265 75q-81 46 -81 136q0 99 114 149q-85 46 -85 129q0 81 93 128q94 47 245 47
q157 0 248 -49q92 -50 107 -139l-84 -44q1 68 -65 106q-65 37 -199 37q-121 0 -187 -25q-68 -26 -68 -67q0 -37 60 -60q58 -23 215 -46q182 -27 266 -74q81 -48 81 -137q0 -101 -114 -149zM145 308q0 -43 62 -72q61 -28 208 -48q75 -12 108 -19q89 9 136 35t47 65
q0 43 -62 72q-63 28 -209 48q-76 12 -107 19q-183 -20 -183 -100z" />
    <glyph glyph-name="dieresis" unicode="&#xa8;" horiz-adv-x="456" 
d="M124 703q-31 0 -51 16q-21 17 -21 40q0 25 21 41q22 17 51 17t51 -17q21 -17 21 -41q0 -23 -21 -40q-20 -16 -51 -16zM332 703q-31 0 -51 16q-21 17 -21 40q0 25 21 41q22 17 51 17t51 -17q21 -17 21 -41q0 -23 -21 -40q-20 -16 -51 -16z" />
    <glyph glyph-name="copyright" unicode="&#xa9;" 
d="M500 -13q-84 0 -162 22q-76 20 -146 62q-67 40 -108 110q-41 68 -41 152q0 107 69 188q70 81 172 119q103 38 216 38q112 0 217 -38q101 -39 171 -119q69 -81 69 -188q0 -84 -41 -152q-41 -70 -108 -110q-70 -42 -146 -62q-78 -22 -162 -22zM500 29q76 0 148 19
q73 20 133 55q61 36 99 96q37 59 37 134q0 93 -63 164t-156 105t-198 34t-197 -34q-95 -35 -157 -104q-63 -70 -63 -165q0 -98 65 -169q66 -72 157 -103q93 -32 195 -32zM509 116q-64 0 -121 21q-58 21 -98 72q-41 52 -41 124q0 103 78 160q76 57 182 57q65 0 119 -22
q55 -22 86 -62l-38 -51q-23 38 -67 57q-45 19 -102 19q-85 0 -140 -42q-56 -42 -56 -116q0 -75 57 -117q56 -42 141 -42q114 0 166 64l45 -40q-37 -42 -93 -61q-57 -21 -118 -21z" />
    <glyph glyph-name="ordfeminine" unicode="&#xaa;" horiz-adv-x="606" 
d="M468 669h67v-398h-67v69q-35 -39 -88 -59q-55 -20 -110 -20q-92 0 -162 55q-71 56 -71 154q0 99 70 154t163 55q55 0 110 -20q53 -20 88 -59v69zM281 327q75 0 131 37q56 36 56 106t-57 107q-57 36 -130 36q-70 0 -122 -38q-52 -37 -52 -105t52 -105q53 -38 122 -38z" />
    <glyph glyph-name="guillemotleft" unicode="&#xab;" horiz-adv-x="622" 
d="M280 -13l-250 250l250 250l63 -63l-190 -187l190 -187zM515 -13l-250 250l250 250l63 -63l-190 -187l190 -187z" />
    <glyph glyph-name="logicalnot" unicode="&#xac;" horiz-adv-x="657" 
d="M586 305v-305h-88v217h-434v88h522z" />
    <glyph glyph-name="uni00AD" unicode="&#xad;" horiz-adv-x="388" 
d="M64 217v88h260v-88h-260z" />
    <glyph glyph-name="registered" unicode="&#xae;" 
d="M500 -13q-84 0 -162 22q-76 20 -146 62q-67 40 -108 110q-41 68 -41 152q0 81 40 148q40 66 106 110q67 43 147 65q81 23 164 23q82 0 165 -23q79 -22 146 -65q66 -44 106 -110q40 -67 40 -148q0 -84 -41 -152q-41 -70 -108 -110q-70 -42 -146 -62q-78 -22 -162 -22z
M500 29q76 0 148 19q73 20 133 55q61 36 99 96q37 59 37 134q0 93 -63 165q-63 70 -156 105q-93 34 -198 34t-197 -34q-94 -34 -157 -105q-63 -70 -63 -165q0 -98 65 -169q66 -72 157 -103q93 -32 195 -32zM290 122v417q61 4 213 4q113 0 175 -33q61 -34 61 -100
q0 -100 -148 -125l153 -163h-76l-144 156h-175v-156h-59zM349 336h166q163 0 163 74q0 75 -163 75q-84 0 -166 -2v-147z" />
    <glyph glyph-name="macron" unicode="&#xaf;" horiz-adv-x="310" 
d="M5 711v75h300v-75h-300z" />
    <glyph glyph-name="degree" unicode="&#xb0;" horiz-adv-x="488" 
d="M244 289q-80 0 -139 57t-59 137q0 78 59 137q58 57 139 57q82 0 140 -57q59 -59 59 -137q0 -80 -59 -137q-58 -57 -140 -57zM244 359q49 0 83 37q35 37 35 87q0 49 -35 87q-34 37 -83 37q-48 0 -82 -37q-35 -38 -35 -87q0 -50 35 -87q34 -37 82 -37z" />
    <glyph glyph-name="plusminus" unicode="&#xb1;" horiz-adv-x="602" 
d="M346 467h216v-89h-216v-198h-90v198h-216v89h216v197h90v-197zM40 0v89h522v-89h-522z" />
    <glyph glyph-name="uni00B2" unicode="&#xb2;" horiz-adv-x="647" 
d="M611 633q0 -75 -89 -143q-88 -68 -270 -138h342v-70h-519l-14 70q251 83 364 155q112 70 112 126q0 45 -59 80q-58 33 -147 33q-93 0 -159 -36q-66 -38 -66 -85q0 -32 47 -70l-43 -57q-77 60 -77 127q0 81 89 137q88 54 209 54q115 0 198 -51q82 -51 82 -132z" />
    <glyph glyph-name="uni00B3" unicode="&#xb3;" horiz-adv-x="675" 
d="M485 558q155 -41 155 -141q0 -67 -84 -107q-86 -42 -194 -42q-275 0 -329 135l70 20q40 -85 247 -85q94 0 157 26q60 26 60 62q0 43 -73 68q-72 25 -195 25h-56l-16 68h63q106 0 176 24q69 24 69 61q0 30 -51 51t-136 21q-89 0 -152 -20q-61 -19 -78 -56l-67 33
q25 54 109 85q84 29 188 29q108 0 184 -36q76 -37 76 -100q0 -37 -33 -69q-32 -32 -90 -52z" />
    <glyph glyph-name="acute" unicode="&#xb4;" horiz-adv-x="88" 
d="M0 711l98 136h111l-121 -136h-88z" />
    <glyph glyph-name="uni00B5" unicode="&#xb5;" horiz-adv-x="765" 
d="M606 474h88v-474h-88v91q-44 -51 -113 -77q-69 -27 -147 -27q-118 0 -194 57v-216h-88v646h88v-233q0 -83 56 -125q55 -43 150 -43q106 0 177 51q71 50 71 141v209z" />
    <glyph glyph-name="paragraph" unicode="&#xb6;" horiz-adv-x="632" 
d="M351 662v2h40v-664h-40v285q-41 -15 -78 -15q-83 0 -142 60q-60 58 -60 142q0 85 60 145q59 60 142 60q42 0 78 -15zM463 664h85v-664h-85v664z" />
    <glyph glyph-name="periodcentered" unicode="&#xb7;" horiz-adv-x="263" 
d="M132 224q-31 0 -51 16q-21 16 -21 40t21 41q22 17 51 17t51 -17q21 -17 21 -41t-21 -40q-20 -16 -51 -16z" />
    <glyph glyph-name="cedilla" unicode="&#xb8;" horiz-adv-x="346" 
d="M50 -179l-15 55q147 0 147 22q0 9 -35 15q-41 5 -74 4l41 83h60l-26 -43q66 0 105 -16q41 -17 41 -48q0 -36 -55 -54t-189 -18z" />
    <glyph glyph-name="uni00B9" unicode="&#xb9;" horiz-adv-x="686" 
d="M433 348h231v-70h-519l-16 70h233v298q-44 -64 -120 -104q-78 -43 -176 -56l-36 70q137 10 229 77q89 66 103 167h71v-452z" />
    <glyph glyph-name="ordmasculine" unicode="&#xba;" horiz-adv-x="576" 
d="M288 261q-47 0 -89 13q-43 12 -80 37q-36 23 -59 66q-23 41 -23 93q0 100 76 155q75 54 175 54t176 -54q75 -55 75 -155q0 -53 -22 -93q-23 -42 -60 -66q-37 -25 -80 -37q-42 -13 -89 -13zM288 327q72 0 127 37q55 36 55 106q0 69 -55 106t-127 37q-73 0 -126 -37
q-55 -37 -55 -106q0 -70 55 -106q55 -37 126 -37z" />
    <glyph glyph-name="guillemotright" unicode="&#xbb;" horiz-adv-x="622" 
d="M107 -13l-63 63l190 187l-190 187l63 63l250 -250zM342 -13l-63 63l190 187l-190 187l63 63l250 -250z" />
    <glyph glyph-name="onequarter" unicode="&#xbc;" horiz-adv-x="1604" 
d="M664 212v-70h-519l-16 70h233v298q-44 -64 -120 -104q-78 -43 -176 -56l-36 70q137 10 229 77q89 66 103 167h71v-452h231zM944 664h75l-298 -664h-75zM1582 164v-70h-168v-94h-71v94h-397v70q111 23 185 134q73 111 75 248l68 -38q-5 -105 -52 -196q-50 -93 -126 -148
h247v217h71v-217h168z" />
    <glyph glyph-name="onehalf" unicode="&#xbd;" horiz-adv-x="1626" 
d="M664 212v-70h-519l-16 70h233v298q-44 -64 -120 -104q-78 -43 -176 -56l-36 70q137 10 229 77q89 66 103 167h71v-452h231zM944 664h75l-298 -664h-75zM1590 352q0 -75 -89 -143q-89 -67 -270 -138h342v-70h-519l-14 70q251 83 364 155q112 70 112 126q0 45 -59 80
q-59 33 -147 33q-93 0 -159 -36q-66 -37 -66 -85q0 -32 47 -70l-43 -57q-77 60 -77 127q0 81 89 137q89 54 209 54q116 0 198 -51t82 -132z" />
    <glyph glyph-name="threequarters" unicode="&#xbe;" horiz-adv-x="1593" 
d="M485 422q155 -41 155 -141q0 -67 -84 -107q-86 -42 -194 -42q-275 0 -329 135l70 20q40 -85 247 -85q94 0 157 26q60 26 60 62q0 43 -73 68q-72 25 -195 25h-56l-16 68h63q106 0 176 24q69 24 69 61q0 30 -51 51t-136 21q-89 0 -152 -20q-61 -19 -78 -56l-67 33
q25 54 109 85q84 29 188 29q108 0 184 -36q76 -37 76 -100q0 -37 -33 -69q-32 -32 -90 -52zM933 664h75l-298 -664h-75zM1571 164v-70h-168v-94h-71v94h-397v70q111 23 185 134q73 111 75 248l68 -38q-5 -105 -52 -196q-50 -93 -126 -148h247v217h71v-217h168z" />
    <glyph glyph-name="questiondown" unicode="&#xbf;" horiz-adv-x="501" 
d="M365 368q-29 0 -51 17q-21 17 -21 41t21 40q20 16 51 16t51 -16q21 -16 21 -40t-21 -41q-22 -17 -51 -17zM116 2q0 -104 300 -103l6 -89q-399 0 -399 181q0 80 80 133q79 52 222 63l7 123h65l11 -198h-13q-127 -1 -203 -32t-76 -78z" />
    <glyph glyph-name="Agrave" unicode="&#xc0;" horiz-adv-x="838" 
d="M463 711h-88l-121 136h111zM731 0l-78 145h-468l-78 -145h-101l356 664h114l356 -664h-101zM232 233h374l-187 349z" />
    <glyph glyph-name="Aacute" unicode="&#xc1;" horiz-adv-x="838" 
d="M584 847l-121 -136h-88l98 136h111zM731 0l-78 145h-468l-78 -145h-101l356 664h114l356 -664h-101zM232 233h374l-187 349z" />
    <glyph glyph-name="Acircumflex" unicode="&#xc2;" horiz-adv-x="838" 
d="M419 790l-58 -79h-110l121 136h94l121 -136h-110zM731 0l-78 145h-468l-78 -145h-101l356 664h114l356 -664h-101zM232 233h374l-187 349z" />
    <glyph glyph-name="Atilde" unicode="&#xc3;" horiz-adv-x="838" 
d="M353 775q-13 4 -18 -7q-4 -11 -4 -57h-101q0 64 33 103t80 39q30 0 55 -13q30 -16 50 -32q23 -19 37 -25q5 -1 11 -1q4 0 7 8q1 8 3 21q1 9 1 36h101q0 -63 -33 -102t-80 -39q-30 0 -55 13q-30 16 -50 32q-27 19 -37 24zM731 0l-78 145h-468l-78 -145h-101l356 664h114
l356 -664h-101zM232 233h374l-187 349z" />
    <glyph glyph-name="Adieresis" unicode="&#xc4;" horiz-adv-x="838" 
d="M305 703q-31 0 -51 16q-21 17 -21 40q0 25 21 41q22 17 51 17t51 -17q21 -17 21 -41q0 -23 -21 -40q-20 -16 -51 -16zM513 703q-31 0 -51 16q-21 17 -21 40q0 25 21 41q22 17 51 17t51 -17q21 -17 21 -41q0 -23 -21 -40q-20 -16 -51 -16zM731 0l-78 145h-468l-78 -145
h-101l356 664h114l356 -664h-101zM232 233h374l-187 349z" />
    <glyph glyph-name="Aring" unicode="&#xc5;" horiz-adv-x="838" 
d="M419 707q-67 0 -118 21t-51 51q0 28 52 50q51 21 117 21q69 0 119 -21t50 -50q0 -30 -49 -51t-120 -21zM420 815q-28 0 -48 -11t-20 -25q0 -16 20 -27t48 -11q27 0 47 11q19 10 19 27q0 15 -19 25q-20 11 -47 11zM731 0l-78 145h-468l-78 -145h-101l356 664h114l356 -664
h-101zM232 233h374l-187 349z" />
    <glyph glyph-name="AE" unicode="&#xc6;" horiz-adv-x="1417" 
d="M1373 575h-853l97 -181h681v-89h-634l116 -216h593v-89h-646l-78 145h-468l-78 -145h-101l356 664h1015v-89zM602 233l-183 342h-7v1l-184 -343h374z" />
    <glyph glyph-name="Ccedilla" unicode="&#xc7;" horiz-adv-x="819" 
d="M790 116q-56 -62 -140 -93q-85 -33 -179 -36l-18 -30q66 0 105 -16q41 -17 41 -48q0 -36 -55 -54q-56 -18 -189 -18l-15 55q147 0 147 22q0 9 -35 15q-41 5 -74 4l35 72q-66 4 -134 28q-61 21 -118 64q-55 41 -86 105q-32 66 -32 147q0 85 36 152q35 68 95 110
q58 40 131 63q72 21 150 21q100 0 187 -34q88 -35 138 -99l-58 -78q-37 60 -109 91q-71 31 -161 31q-140 0 -228 -71q-88 -70 -88 -186q0 -115 87 -186q88 -71 232 -71q83 0 154 27q69 25 113 75z" />
    <glyph glyph-name="Egrave" unicode="&#xc8;" horiz-adv-x="775" 
d="M452 711h-88l-121 136h111zM731 575h-557v-181h481v-89h-481v-216h557v-89h-647v664h647v-89z" />
    <glyph glyph-name="Eacute" unicode="&#xc9;" horiz-adv-x="775" 
d="M573 847l-121 -136h-88l98 136h111zM731 575h-557v-181h481v-89h-481v-216h557v-89h-647v664h647v-89z" />
    <glyph glyph-name="Ecircumflex" unicode="&#xca;" horiz-adv-x="775" 
d="M408 790l-58 -79h-110l121 136h94l121 -136h-110zM731 575h-557v-181h481v-89h-481v-216h557v-89h-647v664h647v-89z" />
    <glyph glyph-name="Edieresis" unicode="&#xcb;" horiz-adv-x="775" 
d="M294 703q-31 0 -51 16q-21 17 -21 40q0 25 21 41q22 17 51 17t51 -17q21 -17 21 -41q0 -23 -21 -40q-20 -16 -51 -16zM502 703q-31 0 -51 16q-21 17 -21 40q0 25 21 41q22 17 51 17t51 -17q21 -17 21 -41q0 -23 -21 -40q-20 -16 -51 -16zM731 575h-557v-181h481v-89h-481
v-216h557v-89h-647v664h647v-89z" />
    <glyph glyph-name="Igrave" unicode="&#xcc;" horiz-adv-x="258" 
d="M173 711h-88l-121 136h111zM84 0v664h90v-664h-90z" />
    <glyph glyph-name="Iacute" unicode="&#xcd;" horiz-adv-x="258" 
d="M85 711l98 136h111l-121 -136h-88zM84 0v664h90v-664h-90z" />
    <glyph glyph-name="Icircumflex" unicode="&#xce;" horiz-adv-x="258" 
d="M176 847l121 -136h-110l-58 79l-58 -79h-110l121 136h94zM84 0v664h90v-664h-90z" />
    <glyph glyph-name="Idieresis" unicode="&#xcf;" horiz-adv-x="258" 
d="M15 703q-31 0 -51 16q-21 17 -21 40q0 25 21 41q22 17 51 17t51 -17q21 -17 21 -41q0 -23 -21 -40q-20 -16 -51 -16zM223 703q-31 0 -51 16q-21 17 -21 40q0 25 21 41q22 17 51 17t51 -17q21 -17 21 -41q0 -23 -21 -40q-20 -16 -51 -16zM84 0v664h90v-664h-90z" />
    <glyph glyph-name="Eth" unicode="&#xd0;" horiz-adv-x="854" 
d="M362 670q70 0 138 -11q61 -10 122 -35q60 -26 100 -62q41 -38 65 -95t24 -128q0 -96 -37 -164q-38 -70 -102 -107q-66 -40 -141 -56q-77 -18 -169 -18q-69 0 -161 2l-93 2l-24 2v308h-80v84h80v272q71 6 278 6zM362 83q356 0 356 256q0 242 -356 242q-74 0 -188 -2v-187
h146v-84h-146v-223q114 -2 188 -2z" />
    <glyph glyph-name="Ntilde" unicode="&#xd1;" horiz-adv-x="959" 
d="M414 759q-13 4 -18 -7q-4 -11 -4 -57h-101q0 64 33 103t80 39q30 0 55 -13q30 -16 50 -32q23 -19 37 -25q5 -1 11 -1q4 0 7 8q2 8 3 21q1 9 1 36h101q0 -63 -33 -102t-80 -39q-30 0 -55 13q-30 16 -50 32q-27 19 -37 24zM785 664h90v-664h-109l-592 560v-560h-90v664h110
l591 -559v559z" />
    <glyph glyph-name="Ograve" unicode="&#xd2;" horiz-adv-x="900" 
d="M494 711h-88l-121 136h111zM450 -13q-74 0 -144 21q-70 19 -130 60q-60 39 -96 108q-37 68 -37 157q0 85 36 152q34 67 94 110q58 40 130 63q71 21 147 21t147 -21q72 -23 130 -63q59 -42 95 -110q35 -68 35 -152q0 -88 -36 -157q-38 -70 -97 -108q-60 -41 -130 -60
q-70 -21 -144 -21zM450 76q57 0 111 15q55 15 101 45q45 27 74 80q28 50 28 117q0 83 -48 144q-48 60 -117 87q-70 26 -149 26t-149 -26q-69 -27 -117 -87q-48 -61 -48 -144q0 -67 28 -117q29 -52 75 -80q47 -30 100 -45q54 -15 111 -15z" />
    <glyph glyph-name="Oacute" unicode="&#xd3;" horiz-adv-x="900" 
d="M406 711l98 136h111l-121 -136h-88zM450 -13q-74 0 -144 21q-70 19 -130 60q-60 39 -96 108q-37 68 -37 157q0 85 36 152q34 67 94 110q58 40 130 63q71 21 147 21t147 -21q72 -23 130 -63q59 -42 95 -110q35 -68 35 -152q0 -88 -36 -157q-38 -70 -97 -108
q-60 -41 -130 -60q-70 -21 -144 -21zM450 76q57 0 111 15q55 15 101 45q45 27 74 80q28 50 28 117q0 83 -48 144q-48 60 -117 87q-70 26 -149 26t-149 -26q-69 -27 -117 -87q-48 -61 -48 -144q0 -67 28 -117q29 -52 75 -80q47 -30 100 -45q54 -15 111 -15z" />
    <glyph glyph-name="Ocircumflex" unicode="&#xd4;" horiz-adv-x="900" 
d="M450 790l-58 -79h-110l121 136h94l121 -136h-110zM450 679q76 0 147 -21q72 -23 130 -63q59 -42 95 -110q35 -68 35 -152q0 -88 -36 -157q-38 -70 -97 -108q-60 -41 -130 -60q-70 -21 -144 -21t-144 21q-70 19 -130 60q-60 39 -96 108q-37 68 -37 157q0 85 36 152
q34 67 94 110q58 40 130 63q71 21 147 21zM450 76q57 0 111 15q55 15 101 45q45 27 74 80q28 50 28 117q0 83 -48 144q-48 60 -117 87q-70 26 -149 26t-149 -26q-69 -27 -117 -87q-48 -61 -48 -144q0 -67 28 -117q29 -52 75 -80q47 -30 100 -45q54 -15 111 -15z" />
    <glyph glyph-name="Otilde" unicode="&#xd5;" horiz-adv-x="900" 
d="M526 706q-30 0 -55 13q-30 16 -50 32q-27 19 -37 24q-13 4 -18 -7q-4 -11 -4 -57h-101q0 64 33 103t80 39q30 0 55 -13q30 -16 50 -32q23 -19 37 -25q5 -1 11 -1q4 0 7 8q2 8 3 21q1 9 1 36h101q0 -63 -33 -102t-80 -39zM450 -13q-74 0 -144 21q-70 19 -130 60
q-60 39 -96 108q-37 68 -37 157q0 85 36 152q34 67 94 110q58 40 130 63q71 21 147 21t147 -21q72 -23 130 -63q59 -42 95 -110q35 -68 35 -152q0 -88 -36 -157q-38 -70 -97 -108q-60 -41 -130 -60q-70 -21 -144 -21zM450 76q57 0 111 15q55 15 101 45q45 27 74 80
q28 50 28 117q0 83 -48 144q-48 60 -117 87q-70 26 -149 26t-149 -26q-69 -27 -117 -87q-48 -61 -48 -144q0 -67 28 -117q29 -52 75 -80q47 -30 100 -45q54 -15 111 -15z" />
    <glyph glyph-name="Odieresis" unicode="&#xd6;" horiz-adv-x="900" 
d="M336 703q-31 0 -51 16q-21 17 -21 40q0 25 21 41q22 17 51 17t51 -17q21 -17 21 -41q0 -23 -21 -40q-20 -16 -51 -16zM544 703q-31 0 -51 16q-21 17 -21 40q0 25 21 41q22 17 51 17t51 -17q21 -17 21 -41q0 -23 -21 -40q-20 -16 -51 -16zM450 -13q-74 0 -144 21
q-70 19 -130 60q-60 39 -96 108q-37 68 -37 157q0 85 36 152q34 67 94 110q58 40 130 63q71 21 147 21t147 -21q72 -23 130 -63q59 -42 95 -110q35 -68 35 -152q0 -88 -36 -157q-38 -70 -97 -108q-60 -41 -130 -60q-70 -21 -144 -21zM450 76q57 0 111 15q55 15 101 45
q45 27 74 80q28 50 28 117q0 83 -48 144q-48 60 -117 87q-70 26 -149 26t-149 -26q-69 -27 -117 -87q-48 -61 -48 -144q0 -67 28 -117q29 -52 75 -80q47 -30 100 -45q54 -15 111 -15z" />
    <glyph glyph-name="multiply" unicode="&#xd7;" horiz-adv-x="646" 
d="M575 423l-189 -186l189 -186l-64 -64l-188 185l-188 -185l-64 64l189 186l-189 186l64 64l188 -185l188 185z" />
    <glyph glyph-name="Oslash" unicode="&#xd8;" horiz-adv-x="900" 
d="M857 599l-73 -58q73 -85 73 -208q0 -88 -36 -157q-38 -70 -97 -108q-60 -41 -130 -60q-70 -21 -144 -21q-158 0 -271 78l-81 -64l-55 66l72 57q-72 86 -72 209q0 85 36 152q34 67 94 110q58 40 130 63q71 21 147 21q155 0 270 -80l83 66zM136 333q0 -90 52 -152l456 359
q-83 50 -194 50q-79 0 -149 -26q-69 -27 -117 -87q-48 -61 -48 -144zM764 333q0 87 -53 151l-456 -359q83 -49 195 -49q57 0 111 15q55 15 101 45q45 27 74 80q28 50 28 117z" />
    <glyph glyph-name="Ugrave" unicode="&#xd9;" horiz-adv-x="903" 
d="M495 711h-88l-121 136h111zM451 -13q-158 0 -268 83q-111 82 -111 223v371h90v-363q0 -104 82 -164q82 -61 207 -61q126 0 208 61q82 60 82 164v363h90v-371q0 -140 -110 -223q-112 -83 -270 -83z" />
    <glyph glyph-name="Uacute" unicode="&#xda;" horiz-adv-x="903" 
d="M407 711l98 136h111l-121 -136h-88zM451 -13q-158 0 -268 83q-111 82 -111 223v371h90v-363q0 -104 82 -164q82 -61 207 -61q126 0 208 61q82 60 82 164v363h90v-371q0 -140 -110 -223q-112 -83 -270 -83z" />
    <glyph glyph-name="Ucircumflex" unicode="&#xdb;" horiz-adv-x="903" 
d="M451 790l-58 -79h-110l121 136h94l121 -136h-110zM741 664h90v-371q0 -140 -110 -223q-112 -83 -270 -83t-268 83q-111 82 -111 223v371h90v-363q0 -104 82 -164q82 -61 207 -61q126 0 208 61q82 60 82 164v363z" />
    <glyph glyph-name="Udieresis" unicode="&#xdc;" horiz-adv-x="903" 
d="M337 703q-31 0 -51 16q-21 17 -21 40q0 25 21 41q22 17 51 17t51 -17q21 -17 21 -41q0 -23 -21 -40q-20 -16 -51 -16zM545 703q-31 0 -51 16q-21 17 -21 40q0 25 21 41q22 17 51 17t51 -17q21 -17 21 -41q0 -23 -21 -40q-20 -16 -51 -16zM451 -13q-158 0 -268 83
q-111 82 -111 223v371h90v-363q0 -104 82 -164q82 -61 207 -61q126 0 208 61q82 60 82 164v363h90v-371q0 -140 -110 -223q-112 -83 -270 -83z" />
    <glyph glyph-name="Yacute" unicode="&#xdd;" horiz-adv-x="903" 
d="M617 847l-121 -136h-88l98 136h111zM891 664l-394 -436v-228h-90v227l-395 437h119l321 -353l320 353h119z" />
    <glyph glyph-name="Thorn" unicode="&#xde;" horiz-adv-x="836" 
d="M444 536q355 0 355 -213q0 -107 -90 -157q-91 -50 -265 -50h-270v-116h-90v664h90v-132q108 4 270 4zM444 204q143 0 203 29q59 29 59 90q0 62 -61 93t-201 31q-163 0 -270 -4v-239h270z" />
    <glyph glyph-name="germandbls" unicode="&#xdf;" horiz-adv-x="796" 
d="M539 354q220 -51 220 -177q0 -57 -52 -100q-51 -44 -133 -67q-81 -23 -168 -23q-75 0 -113 5l-29 91q72 -9 127 -9q120 0 199 35q78 35 78 79q0 50 -94 84q-93 34 -246 34h-39v86h27q132 0 223 32q89 32 89 78q0 39 -56 65q-54 25 -153 25q-103 0 -182 -47
q-78 -48 -78 -125v-420h-88v420q0 82 55 143q53 59 132 88q75 28 161 28q127 0 213 -46q87 -47 87 -125q0 -47 -48 -88q-48 -40 -132 -66z" />
    <glyph glyph-name="agrave" unicode="&#xe0;" horiz-adv-x="760" 
d="M396 528h-88l-121 136h111zM601 474h88v-474h-88v82q-46 -46 -116 -70q-69 -25 -143 -25q-76 0 -143 27q-68 26 -115 85t-47 138q0 80 46 138q44 57 113 85q67 27 146 27q72 0 143 -24q68 -23 116 -71v82zM365 74q106 0 171 46q65 45 65 117q0 73 -65 118q-66 45 -171 45
q-107 0 -171 -45q-66 -45 -66 -118q0 -72 66 -117q65 -46 171 -46z" />
    <glyph glyph-name="aacute" unicode="&#xe1;" horiz-adv-x="760" 
d="M517 664l-121 -136h-88l98 136h111zM601 474h88v-474h-88v82q-46 -46 -116 -70q-69 -25 -143 -25q-76 0 -143 27q-68 26 -115 85t-47 138q0 80 46 138q44 57 113 85q67 27 146 27q72 0 143 -24q68 -23 116 -71v82zM365 74q106 0 171 46q65 45 65 117q0 73 -65 118
q-66 45 -171 45q-107 0 -171 -45q-66 -45 -66 -118q0 -72 66 -117q65 -46 171 -46z" />
    <glyph glyph-name="acircumflex" unicode="&#xe2;" horiz-adv-x="760" 
d="M352 607l-58 -79h-110l121 136h94l121 -136h-110zM601 474h88v-474h-88v82q-46 -46 -116 -70q-69 -25 -143 -25q-76 0 -143 27q-68 26 -115 85t-47 138q0 80 46 138q44 57 113 85q67 27 146 27q72 0 143 -24q68 -23 116 -71v82zM365 74q106 0 171 46q65 45 65 117
q0 73 -65 118q-66 45 -171 45q-107 0 -171 -45q-66 -45 -66 -118q0 -72 66 -117q65 -46 171 -46z" />
    <glyph glyph-name="atilde" unicode="&#xe3;" horiz-adv-x="760" 
d="M287 592q-13 4 -18 -7q-4 -11 -4 -57h-101q0 64 33 103t80 39q30 0 55 -13q30 -16 50 -32q23 -19 37 -25q5 -1 11 -1q4 0 7 8l3 21q1 9 1 36h101q0 -63 -33 -102t-80 -39q-30 0 -55 13q-30 16 -50 32q-27 19 -37 24zM601 474h88v-474h-88v82q-46 -46 -116 -70
q-69 -25 -143 -25q-76 0 -143 27q-68 26 -115 85t-47 138q0 80 46 138q44 57 113 85q67 27 146 27q72 0 143 -24q68 -23 116 -71v82zM365 74q106 0 171 46q65 45 65 117q0 73 -65 118q-66 45 -171 45q-107 0 -171 -45q-66 -45 -66 -118q0 -72 66 -117q65 -46 171 -46z" />
    <glyph glyph-name="adieresis" unicode="&#xe4;" horiz-adv-x="760" 
d="M248 521q-31 0 -51 16q-21 17 -21 40q0 25 21 41q22 17 51 17t51 -17q21 -16 21 -41q0 -23 -21 -40q-20 -16 -51 -16zM456 521q-31 0 -51 16q-21 17 -21 40q0 25 21 41q22 17 51 17t51 -17q21 -16 21 -41q0 -23 -21 -40q-20 -16 -51 -16zM601 474h88v-474h-88v82
q-46 -46 -116 -70q-69 -25 -143 -25q-76 0 -143 27q-68 26 -115 85t-47 138q0 80 46 138q44 57 113 85q67 27 146 27q72 0 143 -24q68 -23 116 -71v82zM365 74q106 0 171 46q65 45 65 117q0 73 -65 118q-66 45 -171 45q-107 0 -171 -45q-66 -45 -66 -118q0 -72 66 -117
q65 -46 171 -46z" />
    <glyph glyph-name="aring" unicode="&#xe5;" horiz-adv-x="760" 
d="M352 524q-67 0 -118 21t-51 51q0 28 52 50q51 21 117 21q70 0 119 -21q50 -21 50 -50q0 -30 -49 -51q-50 -21 -120 -21zM353 632q-28 0 -48 -11t-20 -25q0 -16 20 -27t48 -11q27 0 47 11q19 10 19 27q0 15 -19 25q-20 11 -47 11zM601 474h88v-474h-88v82
q-46 -46 -116 -70q-69 -25 -143 -25q-76 0 -143 27q-68 26 -115 85t-47 138q0 80 46 138q44 57 113 85q67 27 146 27q72 0 143 -24q68 -23 116 -71v82zM365 74q106 0 171 46q65 45 65 117q0 73 -65 118q-66 45 -171 45q-107 0 -171 -45q-66 -45 -66 -118q0 -72 66 -117
q65 -46 171 -46z" />
    <glyph glyph-name="ae" unicode="&#xe6;" horiz-adv-x="1318" 
d="M953 487q148 0 244 -75q95 -77 83 -208h-561q15 -64 83 -97q67 -34 151 -34q131 0 199 68l68 -59q-46 -46 -119 -70q-71 -25 -148 -25q-75 0 -146 24q-72 23 -118 69v-80h-88v82q-46 -46 -116 -70q-69 -25 -143 -25q-76 0 -143 27q-68 26 -115 85t-47 138q0 80 46 138
q44 57 113 85q67 27 146 27q72 0 143 -24q68 -23 116 -71v82h88v-80q46 46 117 70q72 23 147 23zM953 401q-77 0 -142 -30t-87 -85h458q-22 55 -87 85t-142 30zM365 74q106 0 171 46q65 45 65 117q0 73 -65 118q-66 45 -171 45q-107 0 -171 -45q-66 -45 -66 -118
q0 -72 66 -117q65 -46 171 -46z" />
    <glyph glyph-name="ccedilla" unicode="&#xe7;" horiz-adv-x="657" 
d="M379 -43q66 0 105 -16q41 -17 41 -48q0 -36 -55 -54q-56 -18 -189 -18l-15 55q147 0 147 22q0 9 -35 15q-41 5 -74 4l35 71q-124 8 -212 71q-90 64 -90 178q0 81 51 140q50 59 123 84q73 26 155 26q75 0 141 -22q70 -23 115 -64l-54 -73q-64 72 -202 72q-95 0 -166 -42
q-72 -44 -72 -121q0 -79 72 -121t166 -42q134 0 199 68l68 -59q-84 -84 -235 -95z" />
    <glyph glyph-name="egrave" unicode="&#xe8;" horiz-adv-x="731" 
d="M410 528h-88l-121 136h111zM366 487q148 0 244 -75q95 -77 83 -208h-561q15 -64 83 -97q67 -34 151 -34q131 0 199 68l68 -59q-45 -46 -119 -70q-71 -25 -148 -25q-82 0 -153 25q-73 25 -124 84q-52 58 -52 141q0 81 51 140q50 59 123 84q73 26 155 26zM366 401
q-77 0 -142 -30t-87 -85h458q-22 55 -87 85t-142 30z" />
    <glyph glyph-name="eacute" unicode="&#xe9;" horiz-adv-x="731" 
d="M531 664l-121 -136h-88l98 136h111zM366 487q148 0 244 -75q95 -77 83 -208h-561q15 -64 83 -97q67 -34 151 -34q131 0 199 68l68 -59q-45 -46 -119 -70q-71 -25 -148 -25q-82 0 -153 25q-73 25 -124 84q-52 58 -52 141q0 81 51 140q50 59 123 84q73 26 155 26zM366 401
q-77 0 -142 -30t-87 -85h458q-22 55 -87 85t-142 30z" />
    <glyph glyph-name="ecircumflex" unicode="&#xea;" horiz-adv-x="731" 
d="M366 607l-58 -79h-110l121 136h94l121 -136h-110zM366 487q148 0 244 -75q95 -77 83 -208h-561q15 -64 83 -97q67 -34 151 -34q131 0 199 68l68 -59q-45 -46 -119 -70q-71 -25 -148 -25q-82 0 -153 25q-73 25 -124 84q-52 58 -52 141q0 81 51 140q50 59 123 84
q73 26 155 26zM366 401q-77 0 -142 -30t-87 -85h458q-22 55 -87 85t-142 30z" />
    <glyph glyph-name="edieresis" unicode="&#xeb;" horiz-adv-x="731" 
d="M262 521q-31 0 -51 16q-21 17 -21 40q0 25 21 41q22 17 51 17t51 -17q21 -16 21 -41q0 -23 -21 -40q-20 -16 -51 -16zM470 521q-31 0 -51 16q-21 17 -21 40q0 25 21 41q22 17 51 17t51 -17q21 -16 21 -41q0 -23 -21 -40q-20 -16 -51 -16zM366 487q148 0 244 -75
q95 -77 83 -208h-561q15 -64 83 -97q67 -34 151 -34q131 0 199 68l68 -59q-45 -46 -119 -70q-71 -25 -148 -25q-82 0 -153 25q-73 25 -124 84q-52 58 -52 141q0 81 51 140q50 59 123 84q73 26 155 26zM366 401q-77 0 -142 -30t-87 -85h458q-22 55 -87 85t-142 30z" />
    <glyph glyph-name="igrave" unicode="&#xec;" horiz-adv-x="230" 
d="M159 528h-88l-121 136h111zM71 0v474h88v-474h-88z" />
    <glyph glyph-name="iacute" unicode="&#xed;" horiz-adv-x="230" 
d="M71 528l98 136h111l-121 -136h-88zM71 0v474h88v-474h-88z" />
    <glyph glyph-name="icircumflex" unicode="&#xee;" horiz-adv-x="230" 
d="M162 664l121 -136h-110l-58 79l-58 -79h-110l121 136h94zM71 0v474h88v-474h-88z" />
    <glyph glyph-name="idieresis" unicode="&#xef;" horiz-adv-x="230" 
d="M11 521q-31 0 -51 16q-21 17 -21 40q0 25 21 41q22 17 51 17t51 -17q21 -16 21 -41q0 -23 -21 -40q-20 -16 -51 -16zM219 521q-31 0 -51 16q-21 17 -21 40q0 25 21 41q22 17 51 17t51 -17q21 -16 21 -41q0 -23 -21 -40q-20 -16 -51 -16zM71 0v474h88v-474h-88z" />
    <glyph glyph-name="eth" unicode="&#xf0;" horiz-adv-x="732" 
d="M695 238v-1q0 -83 -51 -141q-53 -59 -124 -84q-72 -25 -154 -25t-153 25q-73 25 -124 84q-52 58 -52 141q0 81 51 140q50 59 123 84q73 26 155 26q94 0 175 -35q-87 98 -250 141l-217 -96l-37 79l101 44q-62 5 -101 5v86q127 0 241 -29l149 66l130 -36l-157 -70
q136 -59 215 -159q80 -103 80 -245zM366 74q94 0 166 42t72 121q0 77 -71 121q-72 42 -167 42t-166 -42q-72 -44 -72 -121q0 -79 72 -121t166 -42z" />
    <glyph glyph-name="ntilde" unicode="&#xf1;" horiz-adv-x="765" 
d="M361 593q-13 4 -18 -7q-4 -11 -4 -57h-101q0 64 33 103t80 39q30 0 55 -13q30 -16 50 -32q23 -19 37 -25q5 -1 11 -1q4 0 7 8q1 8 3 21q1 9 1 36h101q0 -63 -33 -102t-80 -39q-30 0 -55 13q-30 16 -50 32q-27 19 -37 24zM423 488q122 0 201 -55q78 -55 78 -162v-270
l-88 -1v250q0 81 -50 116t-150 35q-49 0 -94 -15q-46 -15 -81 -43q-37 -28 -58 -74q-22 -45 -22 -105v-164h-88v474h88v-102q48 57 116 86q69 30 148 30z" />
    <glyph glyph-name="ograve" unicode="&#xf2;" horiz-adv-x="732" 
d="M410 528h-88l-121 136h111zM366 -13q-82 0 -153 25q-73 25 -124 84q-52 58 -52 141q0 81 51 140q50 59 123 84q73 26 155 26q81 0 156 -26q72 -25 123 -84q50 -59 50 -140q0 -83 -51 -141q-53 -59 -124 -84q-72 -25 -154 -25zM366 74q94 0 166 42t72 121q0 77 -71 121
q-72 42 -167 42t-166 -42q-72 -44 -72 -121q0 -79 72 -121t166 -42z" />
    <glyph glyph-name="oacute" unicode="&#xf3;" horiz-adv-x="732" 
d="M322 528l98 136h111l-121 -136h-88zM366 -13q-82 0 -153 25q-73 25 -124 84q-52 58 -52 141q0 81 51 140q50 59 123 84q73 26 155 26q81 0 156 -26q72 -25 123 -84q50 -59 50 -140q0 -83 -51 -141q-53 -59 -124 -84q-72 -25 -154 -25zM366 74q94 0 166 42t72 121
q0 77 -71 121q-72 42 -167 42t-166 -42q-72 -44 -72 -121q0 -79 72 -121t166 -42z" />
    <glyph glyph-name="ocircumflex" unicode="&#xf4;" horiz-adv-x="732" 
d="M366 607l-58 -79h-110l121 136h94l121 -136h-110zM366 487q81 0 156 -26q72 -25 123 -84q50 -59 50 -140q0 -83 -51 -141q-53 -59 -124 -84q-72 -25 -154 -25t-153 25q-73 25 -124 84q-52 58 -52 141q0 81 51 140q50 59 123 84q73 26 155 26zM366 74q94 0 166 42t72 121
q0 77 -71 121q-72 42 -167 42t-166 -42q-72 -44 -72 -121q0 -79 72 -121t166 -42z" />
    <glyph glyph-name="otilde" unicode="&#xf5;" horiz-adv-x="732" 
d="M443 523q-30 0 -55 13q-30 16 -50 32q-27 19 -37 24q-13 4 -18 -7q-4 -11 -4 -57h-101q0 64 33 103t80 39q30 0 55 -13q30 -16 50 -32q23 -19 37 -25q5 -1 11 -1q4 0 7 8l3 21q1 9 1 36h101q0 -63 -33 -102t-80 -39zM366 -13q-82 0 -153 25q-73 25 -124 84
q-52 58 -52 141q0 81 51 140q50 59 123 84q73 26 155 26q81 0 156 -26q72 -25 123 -84q50 -59 50 -140q0 -83 -51 -141q-53 -59 -124 -84q-72 -25 -154 -25zM366 74q94 0 166 42t72 121q0 77 -71 121q-72 42 -167 42t-166 -42q-72 -44 -72 -121q0 -79 72 -121t166 -42z" />
    <glyph glyph-name="odieresis" unicode="&#xf6;" horiz-adv-x="732" 
d="M262 521q-31 0 -51 16q-21 17 -21 40q0 25 21 41q22 17 51 17t51 -17q21 -16 21 -41q0 -23 -21 -40q-20 -16 -51 -16zM470 521q-31 0 -51 16q-21 17 -21 40q0 25 21 41q22 17 51 17t51 -17q21 -16 21 -41q0 -23 -21 -40q-20 -16 -51 -16zM366 -13q-82 0 -153 25
q-73 25 -124 84q-52 58 -52 141q0 81 51 140q50 59 123 84q73 26 155 26q81 0 156 -26q72 -25 123 -84q50 -59 50 -140q0 -83 -51 -141q-53 -59 -124 -84q-72 -25 -154 -25zM366 74q94 0 166 42t72 121q0 77 -71 121q-72 42 -167 42t-166 -42q-72 -44 -72 -121
q0 -79 72 -121t166 -42z" />
    <glyph glyph-name="divide" unicode="&#xf7;" horiz-adv-x="650" 
d="M325 368q-31 0 -51 16q-21 16 -21 40t21 41q22 17 51 17t51 -17q21 -17 21 -41t-21 -40q-20 -16 -51 -16zM64 195v84h522v-84h-522zM325 -8q-31 0 -51 16q-21 17 -21 40q0 24 21 41q22 17 51 17t51 -17q21 -17 21 -41t-21 -40q-20 -16 -51 -16z" />
    <glyph glyph-name="oslash" unicode="&#xf8;" horiz-adv-x="732" 
d="M698 419l-55 -40q52 -59 52 -142t-51 -141q-53 -59 -124 -84q-72 -25 -154 -25q-111 0 -200 47l-82 -60l-50 68l62 45q-59 62 -59 150q0 81 51 140q50 59 123 84q73 26 155 26q119 0 210 -52l72 52zM128 237q0 -56 41 -97l326 236q-59 24 -129 24q-95 0 -166 -42
q-72 -44 -72 -121zM604 237q0 52 -34 89l-322 -233q53 -19 118 -19q94 0 166 42t72 121z" />
    <glyph glyph-name="ugrave" unicode="&#xf9;" horiz-adv-x="765" 
d="M424 528h-88l-121 136h111zM606 474h88v-474h-88v91q-44 -51 -113 -77q-69 -27 -147 -27q-120 0 -201 63t-81 175v249h88v-233q0 -83 56 -125q55 -43 150 -43q106 0 177 51q71 50 71 141v209z" />
    <glyph glyph-name="uacute" unicode="&#xfa;" horiz-adv-x="765" 
d="M545 664l-121 -136h-88l98 136h111zM606 474h88v-474h-88v91q-44 -51 -113 -77q-69 -27 -147 -27q-120 0 -201 63t-81 175v249h88v-233q0 -83 56 -125q55 -43 150 -43q106 0 177 51q71 50 71 141v209z" />
    <glyph glyph-name="ucircumflex" unicode="&#xfb;" horiz-adv-x="765" 
d="M380 607l-58 -79h-110l121 136h94l121 -136h-110zM606 474h88v-474h-88v91q-44 -51 -113 -77q-69 -27 -147 -27q-120 0 -201 63t-81 175v249h88v-233q0 -83 56 -125q55 -43 150 -43q106 0 177 51q71 50 71 141v209z" />
    <glyph glyph-name="udieresis" unicode="&#xfc;" horiz-adv-x="765" 
d="M276 521q-31 0 -51 16q-21 17 -21 40q0 25 21 41q22 17 51 17t51 -17q21 -16 21 -41q0 -23 -21 -40q-20 -16 -51 -16zM484 521q-31 0 -51 16q-21 17 -21 40q0 25 21 41q22 17 51 17t51 -17q21 -16 21 -41q0 -23 -21 -40q-20 -16 -51 -16zM606 474h88v-474h-88v91
q-44 -51 -113 -77q-69 -27 -147 -27q-120 0 -201 63t-81 175v249h88v-233q0 -83 56 -125q55 -43 150 -43q106 0 177 51q71 50 71 141v209z" />
    <glyph glyph-name="yacute" unicode="&#xfd;" horiz-adv-x="733" 
d="M531 664l-121 -136h-88l98 136h111zM629 474h103l-425 -659h-103l120 185l-323 474h104l270 -394z" />
    <glyph glyph-name="thorn" unicode="&#xfe;" horiz-adv-x="760" 
d="M418 487q79 0 146 -27q68 -27 114 -85q45 -59 45 -138t-47 -138q-48 -60 -114 -85q-68 -27 -144 -27q-74 0 -143 25q-70 24 -116 70v-267h-88v849h88v-272q48 48 116 71q70 24 143 24zM395 74q106 0 171 46q66 45 66 117q0 73 -65 118q-66 45 -172 45q-105 0 -170 -45
q-66 -45 -66 -118q0 -72 66 -117q64 -46 170 -46z" />
    <glyph glyph-name="ydieresis" unicode="&#xff;" horiz-adv-x="733" 
d="M262 521q-31 0 -51 16q-21 17 -21 40q0 25 21 41q22 17 51 17t51 -17q21 -16 21 -41q0 -23 -21 -40q-20 -16 -51 -16zM470 521q-31 0 -51 16q-21 17 -21 40q0 25 21 41q22 17 51 17t51 -17q21 -16 21 -41q0 -23 -21 -40q-20 -16 -51 -16zM629 474h103l-425 -659h-103
l120 185l-323 474h104l270 -394z" />
    <glyph glyph-name="Amacron" unicode="&#x100;" horiz-adv-x="838" 
d="M569 786v-75h-300v75h300zM731 0l-78 145h-468l-78 -145h-101l356 664h114l356 -664h-101zM232 233h374l-187 349z" />
    <glyph glyph-name="amacron" unicode="&#x101;" horiz-adv-x="760" 
d="M502 603v-75h-300v75h300zM601 474h88v-474h-88v82q-46 -46 -116 -70q-69 -25 -143 -25q-76 0 -143 27q-68 26 -115 85t-47 138q0 80 46 138q44 57 113 85q67 27 146 27q72 0 143 -24q68 -23 116 -71v82zM365 74q106 0 171 46q65 45 65 117q0 73 -65 118q-66 45 -171 45
q-107 0 -171 -45q-66 -45 -66 -118q0 -72 66 -117q65 -46 171 -46z" />
    <glyph glyph-name="Abreve" unicode="&#x102;" horiz-adv-x="838" 
d="M418 706q-70 0 -120 41q-51 41 -51 100h102q0 -37 21 -58q19 -22 48 -22t50 22q21 21 21 58h100q0 -59 -50 -100q-52 -41 -121 -41zM731 0l-78 145h-468l-78 -145h-101l356 664h114l356 -664h-101zM232 233h374l-187 349z" />
    <glyph glyph-name="abreve" unicode="&#x103;" horiz-adv-x="760" 
d="M351 523q-70 0 -120 41q-51 40 -51 100h102q0 -37 21 -58q19 -22 48 -22t50 22q21 21 21 58h100q0 -59 -50 -100q-52 -41 -121 -41zM601 474h88v-474h-88v82q-46 -46 -116 -70q-69 -25 -143 -25q-76 0 -143 27q-68 26 -115 85t-47 138q0 80 46 138q44 57 113 85
q67 27 146 27q72 0 143 -24q68 -23 116 -71v82zM365 74q106 0 171 46q65 45 65 117q0 73 -65 118q-66 45 -171 45q-107 0 -171 -45q-66 -45 -66 -118q0 -72 66 -117q65 -46 171 -46z" />
    <glyph glyph-name="Aogonek" unicode="&#x104;" horiz-adv-x="838" 
d="M697 -87q0 -27 26 -38q24 -10 104 -10l-15 -44q-125 0 -183 16q-60 17 -60 55q0 36 47 66q49 30 113 47l-76 140h-468l-78 -145h-101l356 664h114l356 -664q-52 -10 -95 -37q-40 -25 -40 -50zM232 233h374l-187 349z" />
    <glyph glyph-name="aogonek" unicode="&#x105;" horiz-adv-x="760" 
d="M689 0q-52 -10 -95 -37q-40 -25 -40 -50q0 -27 26 -38q24 -10 104 -10l-15 -44q-125 0 -183 16q-60 17 -60 55t52 69t123 48v73q-46 -46 -116 -70q-69 -25 -143 -25q-76 0 -143 27q-68 26 -115 85t-47 138q0 80 46 138q44 57 113 85q67 27 146 27q72 0 143 -24
q68 -23 116 -71v82h88v-474zM365 74q106 0 171 46q65 45 65 117q0 73 -65 118q-66 45 -171 45q-107 0 -171 -45q-66 -45 -66 -118q0 -72 66 -117q65 -46 171 -46z" />
    <glyph glyph-name="Cacute" unicode="&#x106;" horiz-adv-x="819" 
d="M411 711l98 136h111l-121 -136h-88zM455 -13q-59 0 -116 12q-59 12 -111 40q-55 28 -95 66q-41 39 -65 98q-25 57 -25 130q0 85 36 152q35 68 95 110q58 40 131 63q72 21 150 21q100 0 187 -34q88 -35 138 -99l-58 -78q-37 60 -109 91q-71 31 -161 31q-140 0 -228 -71
q-88 -70 -88 -186q0 -115 87 -186q88 -71 232 -71q83 0 154 27q69 25 113 75l68 -62q-59 -65 -148 -96q-92 -33 -187 -33z" />
    <glyph glyph-name="cacute" unicode="&#x107;" horiz-adv-x="657" 
d="M322 528l98 136h111l-121 -136h-88zM366 -13q-82 0 -153 25q-73 25 -124 84q-52 58 -52 141q0 81 51 140q50 59 123 84q73 26 155 26q75 0 141 -22q70 -23 115 -64l-54 -73q-64 72 -202 72q-95 0 -166 -42q-72 -44 -72 -121q0 -79 72 -121t166 -42q134 0 199 68l68 -59
q-47 -47 -119 -71q-71 -25 -148 -25z" />
    <glyph glyph-name="Ccircumflex" unicode="&#x108;" horiz-adv-x="819" 
d="M455 790l-58 -79h-110l121 136h94l121 -136h-110zM722 178l68 -62q-59 -65 -148 -96q-92 -33 -187 -33q-59 0 -116 12q-59 12 -111 40q-55 28 -95 66q-41 39 -65 98q-25 57 -25 130q0 85 36 152q35 68 95 110q58 40 131 63q72 21 150 21q100 0 187 -34q88 -35 138 -99
l-58 -78q-37 60 -109 91q-71 31 -161 31q-140 0 -228 -71q-88 -70 -88 -186q0 -115 87 -186q88 -71 232 -71q83 0 154 27q69 25 113 75z" />
    <glyph glyph-name="ccircumflex" unicode="&#x109;" horiz-adv-x="657" 
d="M366 607l-58 -79h-110l121 136h94l121 -136h-110zM565 142l68 -59q-47 -47 -119 -71q-71 -25 -148 -25q-82 0 -153 25q-73 25 -124 84q-52 58 -52 141q0 81 51 140q50 59 123 84q73 26 155 26q75 0 141 -22q70 -23 115 -64l-54 -73q-64 72 -202 72q-95 0 -166 -42
q-72 -44 -72 -121q0 -79 72 -121t166 -42q134 0 199 68z" />
    <glyph glyph-name="Cdotaccent" unicode="&#x10a;" horiz-adv-x="819" 
d="M455 703q-31 0 -51 16q-21 17 -21 40q0 25 21 41q22 17 51 17t51 -17q21 -17 21 -41q0 -23 -21 -40q-20 -16 -51 -16zM455 -13q-59 0 -116 12q-59 12 -111 40q-55 28 -95 66q-41 39 -65 98q-25 57 -25 130q0 85 36 152q35 68 95 110q58 40 131 63q72 21 150 21
q100 0 187 -34q88 -35 138 -99l-58 -78q-37 60 -109 91q-71 31 -161 31q-140 0 -228 -71q-88 -70 -88 -186q0 -115 87 -186q88 -71 232 -71q83 0 154 27q69 25 113 75l68 -62q-59 -65 -148 -96q-92 -33 -187 -33z" />
    <glyph glyph-name="cdotaccent" unicode="&#x10b;" horiz-adv-x="657" 
d="M366 521q-31 0 -51 16q-21 17 -21 40q0 25 21 41q22 17 51 17t51 -17q21 -16 21 -41q0 -23 -21 -40q-20 -16 -51 -16zM366 -13q-82 0 -153 25q-73 25 -124 84q-52 58 -52 141q0 81 51 140q50 59 123 84q73 26 155 26q75 0 141 -22q70 -23 115 -64l-54 -73q-64 72 -202 72
q-95 0 -166 -42q-72 -44 -72 -121q0 -79 72 -121t166 -42q134 0 199 68l68 -59q-47 -47 -119 -71q-71 -25 -148 -25z" />
    <glyph glyph-name="Ccaron" unicode="&#x10c;" horiz-adv-x="819" 
d="M502 710h-94l-121 136h110l58 -79l58 79h110zM722 178l68 -62q-59 -65 -148 -96q-92 -33 -187 -33q-59 0 -116 12q-59 12 -111 40q-55 28 -95 66q-41 39 -65 98q-25 57 -25 130q0 85 36 152q35 68 95 110q58 40 131 63q72 21 150 21q100 0 187 -34q88 -35 138 -99
l-58 -78q-37 60 -109 91q-71 31 -161 31q-140 0 -228 -71q-88 -70 -88 -186q0 -115 87 -186q88 -71 232 -71q83 0 154 27q69 25 113 75z" />
    <glyph glyph-name="ccaron" unicode="&#x10d;" horiz-adv-x="657" 
d="M413 528h-94l-121 136h110l58 -79l58 79h110zM565 142l68 -59q-47 -47 -119 -71q-71 -25 -148 -25q-82 0 -153 25q-73 25 -124 84q-52 58 -52 141q0 81 51 140q50 59 123 84q73 26 155 26q75 0 141 -22q70 -23 115 -64l-54 -73q-64 72 -202 72q-95 0 -166 -42
q-72 -44 -72 -121q0 -79 72 -121t166 -42q134 0 199 68z" />
    <glyph glyph-name="Dcaron" unicode="&#x10e;" horiz-adv-x="854" 
d="M412 710h-94l-121 136h110l58 -79l58 79h110zM362 670q70 0 138 -11q61 -10 122 -35q60 -26 100 -62q41 -38 65 -95t24 -128q0 -96 -37 -164q-38 -70 -102 -107q-66 -40 -141 -56q-77 -18 -169 -18q-69 0 -161 2l-93 2l-24 2v664q71 6 278 6zM362 83q356 0 356 256
q0 242 -356 242q-74 0 -188 -2v-494q114 -2 188 -2z" />
    <glyph glyph-name="dcaron" unicode="&#x10f;" horiz-adv-x="987" 
d="M873 672q31 0 52 -18q20 -20 20 -51q-2 -58 -40 -89q-39 -33 -104 -33v40q61 0 90 39q-36 -6 -62 10q-28 16 -28 44q0 24 21 41q22 17 51 17zM601 392v272h88v-664h-88v82q-46 -46 -116 -70q-69 -25 -143 -25q-76 0 -143 27q-68 26 -115 85t-47 138q0 80 46 138
q44 57 113 85q67 27 146 27q72 0 143 -24q68 -23 116 -71zM365 74q106 0 171 46q65 45 65 117q0 73 -65 118q-66 45 -171 45q-107 0 -171 -45q-66 -45 -66 -118q0 -72 66 -117q65 -46 171 -46z" />
    <glyph glyph-name="Dcroat" unicode="&#x110;" horiz-adv-x="854" 
d="M362 670q70 0 138 -11q61 -10 122 -35q60 -26 100 -62q41 -38 65 -95t24 -128q0 -96 -37 -164q-38 -70 -102 -107q-66 -40 -141 -56q-77 -18 -169 -18q-69 0 -161 2l-93 2l-24 2v308h-80v84h80v272q71 6 278 6zM362 83q356 0 356 256q0 242 -356 242q-74 0 -188 -2v-187
h146v-84h-146v-223q114 -2 188 -2z" />
    <glyph glyph-name="dcroat" unicode="&#x111;" horiz-adv-x="760" 
d="M760 618v-84h-71v-534h-88v82q-46 -46 -116 -70q-69 -25 -143 -25q-76 0 -143 27q-68 26 -115 85t-47 138q0 80 46 138q44 57 113 85q67 27 146 27q72 0 143 -24q68 -23 116 -71v142h-164v84h164v46h88v-46h71zM365 74q106 0 171 46q65 45 65 117q0 73 -65 118
q-66 45 -171 45q-107 0 -171 -45q-66 -45 -66 -118q0 -72 66 -117q65 -46 171 -46z" />
    <glyph glyph-name="Emacron" unicode="&#x112;" horiz-adv-x="775" 
d="M558 786v-75h-300v75h300zM731 575h-557v-181h481v-89h-481v-216h557v-89h-647v664h647v-89z" />
    <glyph glyph-name="emacron" unicode="&#x113;" horiz-adv-x="731" 
d="M516 603v-75h-300v75h300zM366 487q148 0 244 -75q95 -77 83 -208h-561q15 -64 83 -97q67 -34 151 -34q131 0 199 68l68 -59q-45 -46 -119 -70q-71 -25 -148 -25q-82 0 -153 25q-73 25 -124 84q-52 58 -52 141q0 81 51 140q50 59 123 84q73 26 155 26zM366 401
q-77 0 -142 -30t-87 -85h458q-22 55 -87 85t-142 30z" />
    <glyph glyph-name="Ebreve" unicode="&#x114;" horiz-adv-x="775" 
d="M407 706q-70 0 -120 41q-51 41 -51 100h102q0 -37 21 -58q19 -22 48 -22t50 22q21 21 21 58h100q0 -59 -50 -100q-52 -41 -121 -41zM731 575h-557v-181h481v-89h-481v-216h557v-89h-647v664h647v-89z" />
    <glyph glyph-name="ebreve" unicode="&#x115;" horiz-adv-x="731" 
d="M365 523q-70 0 -120 41q-51 40 -51 100h102q0 -37 21 -58q19 -22 48 -22t50 22q21 21 21 58h100q0 -59 -50 -100q-52 -41 -121 -41zM366 487q148 0 244 -75q95 -77 83 -208h-561q15 -64 83 -97q67 -34 151 -34q131 0 199 68l68 -59q-45 -46 -119 -70q-71 -25 -148 -25
q-82 0 -153 25q-73 25 -124 84q-52 58 -52 141q0 81 51 140q50 59 123 84q73 26 155 26zM366 401q-77 0 -142 -30t-87 -85h458q-22 55 -87 85t-142 30z" />
    <glyph glyph-name="Edotaccent" unicode="&#x116;" horiz-adv-x="775" 
d="M408 703q-31 0 -51 16q-21 17 -21 40q0 25 21 41q22 17 51 17t51 -17q21 -17 21 -41q0 -23 -21 -40q-20 -16 -51 -16zM731 575h-557v-181h481v-89h-481v-216h557v-89h-647v664h647v-89z" />
    <glyph glyph-name="edotaccent" unicode="&#x117;" horiz-adv-x="731" 
d="M366 521q-31 0 -51 16q-21 17 -21 40q0 25 21 41q22 17 51 17t51 -17q21 -16 21 -41q0 -23 -21 -40q-20 -16 -51 -16zM366 487q148 0 244 -75q95 -77 83 -208h-561q15 -64 83 -97q67 -34 151 -34q131 0 199 68l68 -59q-45 -46 -119 -70q-71 -25 -148 -25q-82 0 -153 25
q-73 25 -124 84q-52 58 -52 141q0 81 51 140q50 59 123 84q73 26 155 26zM366 401q-77 0 -142 -30t-87 -85h458q-22 55 -87 85t-142 30z" />
    <glyph glyph-name="Eogonek" unicode="&#x118;" horiz-adv-x="775" 
d="M731 575h-557v-181h481v-89h-481v-216h557v-89q-52 -10 -95 -37q-40 -25 -40 -50q0 -27 26 -38q24 -10 104 -10l-15 -44q-125 0 -183 16q-60 17 -60 55q0 33 41 62q39 28 102 46h-527v664h647v-89z" />
    <glyph glyph-name="eogonek" unicode="&#x119;" horiz-adv-x="731" 
d="M366 487q148 0 244 -75q95 -77 83 -208h-561q15 -64 83 -97q67 -34 151 -34q131 0 199 68l68 -59q-59 -56 -153 -81q-51 -17 -84 -40q-35 -26 -35 -48q0 -27 26 -38q24 -10 104 -10l-15 -44q-125 0 -183 16q-60 17 -60 55q0 53 106 96q-124 8 -212 71q-90 64 -90 178
q0 81 51 140q50 59 123 84q73 26 155 26zM366 401q-77 0 -142 -30t-87 -85h458q-22 55 -87 85t-142 30z" />
    <glyph glyph-name="Ecaron" unicode="&#x11a;" horiz-adv-x="775" 
d="M455 710h-94l-121 136h110l58 -79l58 79h110zM731 575h-557v-181h481v-89h-481v-216h557v-89h-647v664h647v-89z" />
    <glyph glyph-name="ecaron" unicode="&#x11b;" horiz-adv-x="731" 
d="M413 528h-94l-121 136h110l58 -79l58 79h110zM366 487q148 0 244 -75q95 -77 83 -208h-561q15 -64 83 -97q67 -34 151 -34q131 0 199 68l68 -59q-45 -46 -119 -70q-71 -25 -148 -25q-82 0 -153 25q-73 25 -124 84q-52 58 -52 141q0 81 51 140q50 59 123 84q73 26 155 26z
M366 401q-77 0 -142 -30t-87 -85h458q-22 55 -87 85t-142 30z" />
    <glyph glyph-name="Gcircumflex" unicode="&#x11c;" horiz-adv-x="896" 
d="M452 790l-58 -79h-110l121 136h94l121 -136h-110zM380 365h445v-365h-90v122q-41 -66 -120 -101q-77 -34 -172 -34q-58 0 -111 13q-55 12 -107 40q-55 30 -93 68q-39 38 -64 98q-25 57 -25 127q0 85 36 152q35 68 95 110q58 40 131 63q72 21 150 21q100 0 187 -34
q88 -35 138 -99l-58 -78q-37 60 -109 91q-71 31 -161 31q-140 0 -228 -71q-88 -70 -88 -186q0 -121 90 -189q89 -68 219 -68q104 0 187 53q81 52 108 146h-360v90z" />
    <glyph glyph-name="gcircumflex" unicode="&#x11d;" horiz-adv-x="760" 
d="M342 607l-58 -79h-110l121 136h94l121 -136h-110zM601 474h88v-417q0 -123 -99 -190q-98 -67 -249 -67q-96 0 -170 28q-74 27 -109 75l67 60q19 -37 77 -57t136 -20q114 0 187 43q72 42 72 123v30q-46 -46 -116 -70q-69 -25 -143 -25q-76 0 -143 27q-68 26 -115 85
t-47 138q0 80 46 138q44 57 113 85q67 27 146 27q72 0 143 -24q68 -23 116 -71v82zM365 74q106 0 171 46q65 45 65 117q0 73 -65 118q-66 45 -171 45q-107 0 -171 -45q-66 -45 -66 -118q0 -72 66 -117q65 -46 171 -46z" />
    <glyph glyph-name="Gbreve" unicode="&#x11e;" horiz-adv-x="896" 
d="M451 706q-70 0 -120 41q-51 41 -51 100h102q0 -37 21 -58q19 -22 48 -22t50 22q21 21 21 58h100q0 -59 -50 -100q-52 -41 -121 -41zM380 365h445v-365h-90v122q-41 -66 -120 -101q-77 -34 -172 -34q-58 0 -111 13q-55 12 -107 40q-55 30 -93 68q-39 38 -64 98
q-25 57 -25 127q0 85 36 152q35 68 95 110q58 40 131 63q72 21 150 21q100 0 187 -34q88 -35 138 -99l-58 -78q-37 60 -109 91q-71 31 -161 31q-140 0 -228 -71q-88 -70 -88 -186q0 -121 90 -189q89 -68 219 -68q104 0 187 53q81 52 108 146h-360v90z" />
    <glyph glyph-name="gbreve" unicode="&#x11f;" horiz-adv-x="760" 
d="M341 523q-70 0 -120 41q-51 40 -51 100h102q0 -37 21 -58q19 -22 48 -22t50 22q21 21 21 58h100q0 -59 -50 -100q-52 -41 -121 -41zM601 474h88v-417q0 -123 -99 -190q-98 -67 -249 -67q-96 0 -170 28q-74 27 -109 75l67 60q19 -37 77 -57t136 -20q114 0 187 43
q72 42 72 123v30q-46 -46 -116 -70q-69 -25 -143 -25q-76 0 -143 27q-68 26 -115 85t-47 138q0 80 46 138q44 57 113 85q67 27 146 27q72 0 143 -24q68 -23 116 -71v82zM365 74q106 0 171 46q65 45 65 117q0 73 -65 118q-66 45 -171 45q-107 0 -171 -45q-66 -45 -66 -118
q0 -72 66 -117q65 -46 171 -46z" />
    <glyph glyph-name="Gdotaccent" unicode="&#x120;" horiz-adv-x="896" 
d="M452 703q-31 0 -51 16q-21 17 -21 40q0 25 21 41q22 17 51 17t51 -17q21 -17 21 -41q0 -23 -21 -40q-20 -16 -51 -16zM380 365h445v-365h-90v122q-41 -66 -120 -101q-77 -34 -172 -34q-58 0 -111 13q-55 12 -107 40q-55 30 -93 68q-39 38 -64 98q-25 57 -25 127
q0 85 36 152q35 68 95 110q58 40 131 63q72 21 150 21q100 0 187 -34q88 -35 138 -99l-58 -78q-37 60 -109 91q-71 31 -161 31q-140 0 -228 -71q-88 -70 -88 -186q0 -121 90 -189q89 -68 219 -68q104 0 187 53q81 52 108 146h-360v90z" />
    <glyph glyph-name="gdotaccent" unicode="&#x121;" horiz-adv-x="760" 
d="M342 521q-31 0 -51 16q-21 17 -21 40q0 25 21 41q22 17 51 17t51 -17q21 -16 21 -41q0 -23 -21 -40q-20 -16 -51 -16zM601 474h88v-417q0 -123 -99 -190q-98 -67 -249 -67q-96 0 -170 28q-74 27 -109 75l67 60q19 -37 77 -57t136 -20q114 0 187 43q72 42 72 123v30
q-46 -46 -116 -70q-69 -25 -143 -25q-76 0 -143 27q-68 26 -115 85t-47 138q0 80 46 138q44 57 113 85q67 27 146 27q72 0 143 -24q68 -23 116 -71v82zM365 74q106 0 171 46q65 45 65 117q0 73 -65 118q-66 45 -171 45q-107 0 -171 -45q-66 -45 -66 -118q0 -72 66 -117
q65 -46 171 -46z" />
    <glyph glyph-name="Gcommaaccent" unicode="&#x122;" horiz-adv-x="896" 
d="M380 365h445v-365h-90v122q-41 -66 -120 -101q-77 -34 -172 -34q-58 0 -111 13q-55 12 -107 40q-55 30 -93 68q-39 38 -64 98q-25 57 -25 127q0 85 36 152q35 68 95 110q58 40 131 63q72 21 150 21q100 0 187 -34q88 -35 138 -99l-58 -78q-37 60 -109 91q-71 31 -161 31
q-140 0 -228 -71q-88 -70 -88 -186q0 -121 90 -189q89 -68 219 -68q104 0 187 53q81 52 108 146h-360v90zM442 -46q31 0 52 -18q20 -20 20 -51q-2 -58 -40 -89q-39 -33 -104 -33v40q62 0 90 39q-36 -6 -62 10q-28 16 -28 44q0 24 21 41q22 17 51 17z" />
    <glyph glyph-name="gcommaaccent" unicode="&#x123;" horiz-adv-x="760" 
d="M345 521q-32 0 -51 19q-21 18 -21 50q2 57 40 90q40 32 104 32v-40q-61 0 -90 -39q35 6 63 -10q27 -17 27 -44q0 -25 -21 -41q-22 -17 -51 -17zM601 474h88v-417q0 -123 -99 -190q-98 -67 -249 -67q-96 0 -170 28q-74 27 -109 75l67 60q19 -37 77 -57t136 -20
q114 0 187 43q72 42 72 123v30q-46 -46 -116 -70q-69 -25 -143 -25q-76 0 -143 27q-68 26 -115 85t-47 138q0 80 46 138q44 57 113 85q67 27 146 27q72 0 143 -24q68 -23 116 -71v82zM365 74q106 0 171 46q65 45 65 117q0 73 -65 118q-66 45 -171 45q-107 0 -171 -45
q-66 -45 -66 -118q0 -72 66 -117q65 -46 171 -46z" />
    <glyph glyph-name="Hcircumflex" unicode="&#x124;" horiz-adv-x="895" 
d="M448 790l-58 -79h-110l121 136h94l121 -136h-110zM721 664h90v-664h-90v305h-547v-305h-90v664h90v-270h547v270z" />
    <glyph glyph-name="hcircumflex" unicode="&#x125;" horiz-adv-x="765" 
d="M176 711l-58 79l-58 -79h-110l121 136h94l121 -136h-110zM423 488q122 0 201 -55q78 -55 78 -162v-270l-88 -1v250q0 81 -50 116t-150 35q-49 0 -94 -15q-46 -15 -81 -43q-37 -28 -58 -74q-22 -45 -22 -105v-164h-88v664h88v-292q48 57 116 86q69 30 148 30z" />
    <glyph glyph-name="Hbar" unicode="&#x126;" horiz-adv-x="895" 
d="M895 564v-84h-84v-480h-90v305h-547v-305h-90v480h-84v84h84v100h90v-100h547v100h90v-100h84zM721 394v86h-547v-86h547z" />
    <glyph glyph-name="hbar" unicode="&#x127;" horiz-adv-x="765" 
d="M423 488q122 0 201 -55q78 -55 78 -162v-270l-88 -1v250q0 81 -50 116t-150 35q-49 0 -94 -15q-46 -15 -81 -43q-37 -28 -58 -74q-22 -45 -22 -105v-164h-88v534h-71v84h71v46h88v-46h164v-84h-164v-162q48 57 116 86q69 30 148 30z" />
    <glyph glyph-name="Itilde" unicode="&#x128;" horiz-adv-x="258" 
d="M205 706q-30 0 -55 13q-30 16 -50 32q-27 19 -37 24q-13 4 -18 -7q-4 -11 -4 -57h-101q0 64 33 103t80 39q30 0 55 -13q30 -16 50 -32q23 -19 37 -25q5 -1 11 -1q4 0 7 8q1 8 3 21q1 9 1 36h101q0 -63 -33 -102t-80 -39zM84 0v664h90v-664h-90z" />
    <glyph glyph-name="itilde" unicode="&#x129;" horiz-adv-x="230" 
d="M192 523q-30 0 -55 13q-30 16 -50 32q-27 19 -37 24q-13 4 -18 -7q-4 -11 -4 -57h-101q0 64 33 103t80 39q30 0 55 -13q30 -16 50 -32q23 -19 37 -25q5 -1 11 -1q4 0 7 8q2 7 3 21q1 9 1 36h101q0 -63 -33 -102t-80 -39zM71 0v474h88v-474h-88z" />
    <glyph glyph-name="Imacron" unicode="&#x12a;" horiz-adv-x="258" 
d="M-21 711v75h300v-75h-300zM84 0v664h90v-664h-90z" />
    <glyph glyph-name="imacron" unicode="&#x12b;" horiz-adv-x="230" 
d="M-35 528v75h300v-75h-300zM71 0v474h88v-474h-88z" />
    <glyph glyph-name="Ibreve" unicode="&#x12c;" horiz-adv-x="258" 
d="M128 706q-70 0 -120 41q-51 41 -51 100h102q0 -37 21 -58q19 -22 48 -22t50 22q21 21 21 58h100q0 -59 -50 -100q-52 -41 -121 -41zM84 0v664h90v-664h-90z" />
    <glyph glyph-name="ibreve" unicode="&#x12d;" horiz-adv-x="230" 
d="M114 523q-70 0 -120 41q-51 40 -51 100h102q0 -37 21 -58q19 -22 48 -22t50 22q21 21 21 58h100q0 -59 -50 -100q-52 -41 -121 -41zM71 0v474h88v-474h-88z" />
    <glyph glyph-name="Iogonek" unicode="&#x12e;" horiz-adv-x="258" 
d="M174 0q-52 -10 -95 -37q-40 -25 -40 -50q0 -27 26 -38q24 -10 104 -10l-15 -44q-125 0 -183 16q-60 17 -60 55t51 69q52 31 122 47v656h90v-664z" />
    <glyph glyph-name="iogonek" unicode="&#x12f;" horiz-adv-x="230" 
d="M115 635q29 0 51 -17q21 -16 21 -41q0 -23 -21 -40q-20 -16 -51 -16t-51 16q-21 17 -21 40q0 25 21 41q22 17 51 17zM71 9v465h88v-474q-52 -10 -95 -37q-40 -25 -40 -50q0 -27 26 -38q24 -10 104 -10l-15 -44q-125 0 -183 16q-60 17 -60 55t52 69t123 48z" />
    <glyph glyph-name="Idot" unicode="&#x130;" horiz-adv-x="258" 
d="M129 703q-31 0 -51 16q-21 17 -21 40q0 25 21 41q22 17 51 17t51 -17q21 -17 21 -41q0 -23 -21 -40q-20 -16 -51 -16zM84 0v664h90v-664h-90z" />
    <glyph glyph-name="dotlessi" unicode="&#x131;" horiz-adv-x="230" 
d="M71 0v474h88v-474h-88z" />
    <glyph glyph-name="IJ" unicode="&#x132;" horiz-adv-x="1049" 
d="M84 0v664h90v-664h-90zM598 -13q-101 0 -187 34q-90 35 -138 98l58 78q36 -59 109 -90q71 -31 158 -31q125 0 207 61q82 60 82 164v363h90v-371q0 -140 -110 -223q-112 -83 -269 -83z" />
    <glyph glyph-name="ij" unicode="&#x133;" horiz-adv-x="460" 
d="M115 521q-31 0 -51 16q-21 17 -21 40q0 25 21 41q22 17 51 17t51 -17q21 -16 21 -41q0 -23 -21 -40q-20 -16 -51 -16zM345 521q-31 0 -51 16q-21 17 -21 40q0 25 21 41q22 17 51 17t51 -17q21 -16 21 -41q0 -23 -21 -40q-20 -16 -51 -16zM71 0v474h88v-474h-88zM210 -200
q-3 0 -33 2l33 85q43 0 67 21q24 20 24 59v507h88v-517q0 -69 -51 -113q-53 -44 -128 -44z" />
    <glyph glyph-name="Jcircumflex" unicode="&#x134;" horiz-adv-x="791" 
d="M721 847l121 -136h-110l-58 79l-58 -79h-110l121 136h94zM629 301v363h90v-371q0 -140 -110 -223q-112 -83 -269 -83q-101 0 -187 34q-90 35 -138 98l58 78q36 -59 109 -90q71 -31 158 -31q125 0 207 61q82 60 82 164z" />
    <glyph glyph-name="jcircumflex" unicode="&#x135;" horiz-adv-x="230" 
d="M162 664l121 -136h-110l-58 79l-58 -79h-110l121 136h94zM71 -33v507h88v-517q0 -69 -51 -113q-53 -44 -128 -44q-51 0 -93 21q-43 20 -65 57l72 53q20 -44 86 -44q43 0 67 21q24 20 24 59z" />
    <glyph glyph-name="Kcommaaccent" unicode="&#x136;" horiz-adv-x="809" 
d="M468 371l344 -371h-120l-290 311l-228 -202v-109h-90v664h90v-436l495 436h133zM433 -46q31 0 52 -18q20 -20 20 -51q-2 -58 -40 -89q-39 -33 -104 -33v40q61 0 90 39q-36 -6 -62 10q-28 16 -28 44q0 24 21 41q22 17 51 17z" />
    <glyph glyph-name="kcommaaccent" unicode="&#x137;" horiz-adv-x="686" 
d="M376 272l314 -272h-131l-256 221l-144 -102v-119h-88v664h88v-441l368 251h154zM363 -46q31 0 52 -18q20 -20 20 -51q-2 -58 -40 -89q-39 -33 -104 -33v40q61 0 90 39q-36 -6 -62 10q-28 16 -28 44q0 24 21 41q22 17 51 17z" />
    <glyph glyph-name="kgreenlandic" unicode="&#x138;" horiz-adv-x="686" 
d="M559 0l-256 221l-144 -102v-119h-88v474h88v-251l368 251h154l-305 -202l314 -272h-131z" />
    <glyph glyph-name="Lacute" unicode="&#x139;" horiz-adv-x="724" 
d="M294 847l-121 -136h-88l98 136h111zM174 89h532v-89h-622v664h90v-575z" />
    <glyph glyph-name="lacute" unicode="&#x13a;" horiz-adv-x="230" 
d="M71 710l98 136h111l-121 -136h-88zM71 0v664h88v-664h-88z" />
    <glyph glyph-name="Lcommaaccent" unicode="&#x13b;" horiz-adv-x="724" 
d="M174 89h532v-89h-622v664h90v-575zM395 -46q31 0 52 -18q20 -20 20 -51q-2 -58 -40 -89q-39 -33 -104 -33v40q61 0 90 39q-36 -6 -62 10q-28 16 -28 44q0 24 21 41q22 17 51 17z" />
    <glyph glyph-name="lcommaaccent" unicode="&#x13c;" horiz-adv-x="230" 
d="M71 0v664h88v-664h-88zM43 -237v40q61 0 90 39q-36 -6 -62 10q-28 16 -28 44q0 24 21 41q22 17 51 17q31 0 52 -18q20 -20 20 -51q-2 -58 -40 -89q-39 -33 -104 -33z" />
    <glyph glyph-name="Lcaron" unicode="&#x13d;" horiz-adv-x="724" 
d="M297 846l-121 -136h-94l-121 136h110l58 -79l58 79h110zM174 89h532v-89h-622v664h90v-575z" />
    <glyph glyph-name="lcaron" unicode="&#x13e;" horiz-adv-x="457" 
d="M271 481v40q61 0 90 39q-36 -6 -62 10q-28 16 -28 44q0 24 21 41q22 17 51 17q31 0 52 -18q20 -20 20 -51q-2 -58 -40 -89q-39 -33 -104 -33zM71 0v664h88v-664h-88z" />
    <glyph glyph-name="Ldot" unicode="&#x13f;" horiz-adv-x="728" 
d="M174 89h532v-89h-622v664h90v-575zM494 224q-31 0 -51 16q-21 17 -21 40q0 24 21 41q22 17 51 17t51 -17q21 -17 21 -41t-21 -40q-20 -16 -51 -16z" />
    <glyph glyph-name="ldot" unicode="&#x140;" horiz-adv-x="493" 
d="M71 0v664h88v-664h-88zM362 368q-31 0 -51 16q-21 16 -21 40t21 41q22 17 51 17t51 -17q21 -17 21 -41t-21 -40q-20 -16 -51 -16z" />
    <glyph glyph-name="Lslash" unicode="&#x141;" horiz-adv-x="724" 
d="M174 89h532v-89h-622v284l-84 -48v98l84 48v282h90v-230l175 101v-98l-175 -101v-247z" />
    <glyph glyph-name="lslash" unicode="&#x142;" horiz-adv-x="373" 
d="M349 487v-98l-190 -109v-280h-88v229l-71 -41v98l71 41v337h88v-286z" />
    <glyph glyph-name="Nacute" unicode="&#x143;" horiz-adv-x="959" 
d="M645 831l-121 -136h-88l98 136h111zM785 664h90v-664h-109l-592 560v-560h-90v664h110l591 -559v559z" />
    <glyph glyph-name="nacute" unicode="&#x144;" horiz-adv-x="765" 
d="M593 664l-121 -136h-88l98 136h111zM423 488q122 0 201 -55q78 -55 78 -162v-270l-88 -1v250q0 81 -50 116t-150 35q-49 0 -94 -15q-46 -15 -81 -43q-37 -28 -58 -74q-22 -45 -22 -105v-164h-88v474h88v-102q48 57 116 86q69 30 148 30z" />
    <glyph glyph-name="Ncommaaccent" unicode="&#x145;" horiz-adv-x="959" 
d="M785 664h90v-664h-109l-592 560v-560h-90v664h110l591 -559v559zM480 -46q31 0 52 -18q20 -20 20 -51q-2 -58 -40 -89q-39 -33 -104 -33v40q62 0 90 39q-36 -6 -62 10q-28 16 -28 44q0 24 21 41q22 17 51 17z" />
    <glyph glyph-name="ncommaaccent" unicode="&#x146;" horiz-adv-x="765" 
d="M423 488q122 0 201 -55q78 -55 78 -162v-270l-88 -1v250q0 81 -50 116t-150 35q-49 0 -94 -15q-46 -15 -81 -43q-37 -28 -58 -74q-22 -45 -22 -105v-164h-88v474h88v-102q48 57 116 86q69 30 148 30zM392 -46q31 0 52 -18q20 -20 20 -51q-2 -58 -40 -89q-39 -33 -104 -33
v40q62 0 90 39q-36 -6 -62 10q-28 16 -28 44q0 24 21 41q22 17 51 17z" />
    <glyph glyph-name="Ncaron" unicode="&#x147;" horiz-adv-x="959" 
d="M527 694h-94l-121 136h110l58 -79l58 79h110zM785 664h90v-664h-109l-592 560v-560h-90v664h110l591 -559v559z" />
    <glyph glyph-name="ncaron" unicode="&#x148;" horiz-adv-x="765" 
d="M475 528h-94l-121 136h110l58 -79l58 79h110zM423 488q122 0 201 -55q78 -55 78 -162v-270l-88 -1v250q0 81 -50 116t-150 35q-49 0 -94 -15q-46 -15 -81 -43q-37 -28 -58 -74q-22 -45 -22 -105v-164h-88v474h88v-102q48 57 116 86q69 30 148 30z" />
    <glyph glyph-name="napostrophe" unicode="&#x149;" horiz-adv-x="962" 
d="M113 672q31 0 52 -18q20 -20 20 -51q-2 -58 -40 -89q-39 -33 -104 -33v40q61 0 90 39q-36 -6 -62 10q-28 16 -28 44q0 24 21 41q22 17 51 17zM620 488q122 0 201 -55q78 -55 78 -162v-270l-88 -1v250q0 81 -50 116t-150 35q-49 0 -94 -15q-46 -15 -81 -43
q-37 -28 -58 -74q-22 -45 -22 -105v-164h-88v474h88v-102q48 57 116 86q69 30 148 30z" />
    <glyph glyph-name="Eng" unicode="&#x14a;" horiz-adv-x="959" 
d="M785 664h90v-707q0 -69 -51 -113q-53 -44 -128 -44q-3 0 -33 2l33 85q43 0 67 21q24 19 24 59v33h-21l-592 560v-560h-90v664h110l591 -559v559z" />
    <glyph glyph-name="eng" unicode="&#x14b;" horiz-adv-x="765" 
d="M423 488q122 0 201 -55q78 -55 78 -162v-314q0 -69 -51 -113q-53 -44 -128 -44q-3 0 -33 2l33 85q43 0 67 21q24 19 24 59v283q0 81 -50 116t-150 35q-49 0 -94 -15q-46 -15 -81 -43q-37 -28 -58 -74q-22 -45 -22 -105v-164h-88v474h88v-102q48 57 116 86q69 30 148 30z
" />
    <glyph glyph-name="Omacron" unicode="&#x14c;" horiz-adv-x="900" 
d="M300 711v75h300v-75h-300zM450 -13q-74 0 -144 21q-70 19 -130 60q-60 39 -96 108q-37 68 -37 157q0 85 36 152q34 67 94 110q58 40 130 63q71 21 147 21t147 -21q72 -23 130 -63q59 -42 95 -110q35 -68 35 -152q0 -88 -36 -157q-38 -70 -97 -108q-60 -41 -130 -60
q-70 -21 -144 -21zM450 76q57 0 111 15q55 15 101 45q45 27 74 80q28 50 28 117q0 83 -48 144q-48 60 -117 87q-70 26 -149 26t-149 -26q-69 -27 -117 -87q-48 -61 -48 -144q0 -67 28 -117q29 -52 75 -80q47 -30 100 -45q54 -15 111 -15z" />
    <glyph glyph-name="omacron" unicode="&#x14d;" horiz-adv-x="732" 
d="M216 528v75h300v-75h-300zM366 -13q-82 0 -153 25q-73 25 -124 84q-52 58 -52 141q0 81 51 140q50 59 123 84q73 26 155 26q81 0 156 -26q72 -25 123 -84q50 -59 50 -140q0 -83 -51 -141q-53 -59 -124 -84q-72 -25 -154 -25zM366 74q94 0 166 42t72 121q0 77 -71 121
q-72 42 -167 42t-166 -42q-72 -44 -72 -121q0 -79 72 -121t166 -42z" />
    <glyph glyph-name="Obreve" unicode="&#x14e;" horiz-adv-x="900" 
d="M449 706q-70 0 -120 41q-51 41 -51 100h102q0 -37 21 -58q19 -22 48 -22t50 22q21 21 21 58h100q0 -59 -50 -100q-52 -41 -121 -41zM450 -13q-74 0 -144 21q-70 19 -130 60q-60 39 -96 108q-37 68 -37 157q0 85 36 152q34 67 94 110q58 40 130 63q71 21 147 21t147 -21
q72 -23 130 -63q59 -42 95 -110q35 -68 35 -152q0 -88 -36 -157q-38 -70 -97 -108q-60 -41 -130 -60q-70 -21 -144 -21zM450 76q57 0 111 15q55 15 101 45q45 27 74 80q28 50 28 117q0 83 -48 144q-48 60 -117 87q-70 26 -149 26t-149 -26q-69 -27 -117 -87
q-48 -61 -48 -144q0 -67 28 -117q29 -52 75 -80q47 -30 100 -45q54 -15 111 -15z" />
    <glyph glyph-name="obreve" unicode="&#x14f;" horiz-adv-x="732" 
d="M365 523q-70 0 -120 41q-51 40 -51 100h102q0 -37 21 -58q19 -22 48 -22t50 22q21 21 21 58h100q0 -59 -50 -100q-52 -41 -121 -41zM366 -13q-82 0 -153 25q-73 25 -124 84q-52 58 -52 141q0 81 51 140q50 59 123 84q73 26 155 26q81 0 156 -26q72 -25 123 -84
q50 -59 50 -140q0 -83 -51 -141q-53 -59 -124 -84q-72 -25 -154 -25zM366 74q94 0 166 42t72 121q0 77 -71 121q-72 42 -167 42t-166 -42q-72 -44 -72 -121q0 -79 72 -121t166 -42z" />
    <glyph glyph-name="Ohungarumlaut" unicode="&#x150;" horiz-adv-x="900" 
d="M334 711l98 135h95l-120 -135h-73zM494 711l98 135h95l-121 -135h-72zM450 -13q-74 0 -144 21q-70 19 -130 60q-60 39 -96 108q-37 68 -37 157q0 85 36 152q34 67 94 110q58 40 130 63q71 21 147 21t147 -21q72 -23 130 -63q59 -42 95 -110q35 -68 35 -152
q0 -88 -36 -157q-38 -70 -97 -108q-60 -41 -130 -60q-70 -21 -144 -21zM450 76q57 0 111 15q55 15 101 45q45 27 74 80q28 50 28 117q0 83 -48 144q-48 60 -117 87q-70 26 -149 26t-149 -26q-69 -27 -117 -87q-48 -61 -48 -144q0 -67 28 -117q29 -52 75 -80q47 -30 100 -45
q54 -15 111 -15z" />
    <glyph glyph-name="ohungarumlaut" unicode="&#x151;" horiz-adv-x="732" 
d="M250 529l98 135h95l-120 -135h-73zM410 529l98 135h95l-121 -135h-72zM366 -13q-82 0 -153 25q-73 25 -124 84q-52 58 -52 141q0 81 51 140q50 59 123 84q73 26 155 26q81 0 156 -26q72 -25 123 -84q50 -59 50 -140q0 -83 -51 -141q-53 -59 -124 -84q-72 -25 -154 -25z
M366 74q94 0 166 42t72 121q0 77 -71 121q-72 42 -167 42t-166 -42q-72 -44 -72 -121q0 -79 72 -121t166 -42z" />
    <glyph glyph-name="OE" unicode="&#x152;" horiz-adv-x="1457" 
d="M1413 664v-89h-662q81 -73 101 -181h485v-89h-481q-10 -132 -105 -216h662v-89h-845q-53 -13 -118 -13q-74 0 -144 21q-70 19 -130 60q-60 39 -96 108q-37 68 -37 157q0 85 36 152q34 67 94 110q58 40 130 63q71 21 147 21q64 0 124 -15h839zM450 76q57 0 111 15
q55 15 101 45q45 27 74 80q28 50 28 117q0 83 -48 144q-48 60 -117 87q-70 26 -149 26t-149 -26q-69 -27 -117 -87q-48 -61 -48 -144q0 -67 28 -117q29 -52 75 -80q47 -30 100 -45q54 -15 111 -15z" />
    <glyph glyph-name="oe" unicode="&#x153;" horiz-adv-x="1298" 
d="M933 487q148 0 244 -75q95 -77 83 -208h-561q15 -64 83 -97q67 -34 151 -34q131 0 199 68l68 -59q-46 -46 -119 -70q-71 -25 -148 -25q-85 0 -161 30q-78 28 -122 85q-46 -57 -122 -85q-78 -30 -162 -30q-82 0 -153 25q-73 25 -124 84q-52 58 -52 141q0 81 51 140
q50 59 123 84q73 26 155 26q84 0 162 -29q77 -30 122 -86q44 56 121 86q78 29 162 29zM933 401q-77 0 -142 -30t-87 -85h458q-22 55 -87 85t-142 30zM366 74q94 0 166 42t72 121q0 77 -71 121q-72 42 -167 42t-166 -42q-72 -44 -72 -121q0 -79 72 -121t166 -42z" />
    <glyph glyph-name="Racute" unicode="&#x154;" horiz-adv-x="841" 
d="M578 847l-121 -136h-88l98 136h111zM808 0h-119l-229 251h-286v-251h-90v664q119 7 360 7q355 0 355 -213q0 -167 -227 -199zM174 578v-239h270q143 0 203 30q59 29 59 89q0 62 -61 93t-201 31q-163 0 -270 -4z" />
    <glyph glyph-name="racute" unicode="&#x155;" horiz-adv-x="707" 
d="M600 664l-121 -136h-88l98 136h111zM683 295l-87 -46q7 67 -42 109q-51 42 -144 42q-104 0 -177 -49q-74 -50 -74 -140v-211h-88v474h88v-94q46 51 118 79q71 28 158 28q109 0 176 -54t72 -138z" />
    <glyph glyph-name="Rcommaaccent" unicode="&#x156;" horiz-adv-x="841" 
d="M572 259l236 -259h-119l-229 251h-286v-251h-90v664q119 7 360 7q355 0 355 -213q0 -167 -227 -199zM174 578v-239h270q143 0 203 30q59 29 59 89q0 62 -61 93t-201 31q-163 0 -270 -4zM432 -46q31 0 52 -18q20 -20 20 -51q-2 -58 -40 -89q-39 -33 -104 -33v40
q62 0 90 39q-36 -6 -62 10q-28 16 -28 44q0 24 21 41q22 17 51 17z" />
    <glyph glyph-name="rcommaaccent" unicode="&#x157;" horiz-adv-x="707" 
d="M683 295l-87 -46q7 67 -42 109q-51 42 -144 42q-104 0 -177 -49q-74 -50 -74 -140v-211h-88v474h88v-94q46 51 118 79q71 28 158 28q109 0 176 -54t72 -138zM378 -46q31 0 52 -18q20 -20 20 -51q-2 -58 -40 -89q-39 -33 -104 -33v40q62 0 90 39q-36 -6 -62 10
q-28 16 -28 44q0 24 21 41q22 17 51 17z" />
    <glyph glyph-name="Rcaron" unicode="&#x158;" horiz-adv-x="841" 
d="M460 710h-94l-121 136h110l58 -79l58 79h110zM808 0h-119l-229 251h-286v-251h-90v664q119 7 360 7q355 0 355 -213q0 -167 -227 -199zM174 578v-239h270q143 0 203 30q59 29 59 89q0 62 -61 93t-201 31q-163 0 -270 -4z" />
    <glyph glyph-name="rcaron" unicode="&#x159;" horiz-adv-x="707" 
d="M482 528h-94l-121 136h110l58 -79l58 79h110zM683 295l-87 -46q7 67 -42 109q-51 42 -144 42q-104 0 -177 -49q-74 -50 -74 -140v-211h-88v474h88v-94q46 51 118 79q71 28 158 28q109 0 176 -54t72 -138z" />
    <glyph glyph-name="Sacute" unicode="&#x15a;" horiz-adv-x="852" 
d="M377 711l98 136h111l-121 -136h-88zM430 -13q-154 0 -254 52q-102 52 -121 136l85 41q5 -62 84 -101q80 -39 206 -39q128 0 202 31q74 32 74 79q0 25 -20 45q-20 18 -82 38q-58 17 -171 34q-187 27 -267 73q-82 45 -82 126t93 129t245 48q155 0 246 -49q92 -50 108 -138
l-87 -43q-5 141 -267 141q-108 0 -177 -26q-68 -27 -68 -62q0 -37 60 -62q62 -27 210 -49q193 -28 271 -75t78 -130q0 -94 -100 -146q-101 -53 -266 -53z" />
    <glyph glyph-name="sacute" unicode="&#x15b;" horiz-adv-x="690" 
d="M299 528l98 136h111l-121 -136h-88zM342 -13q-124 0 -208 37q-87 37 -106 98l80 38q13 -43 79 -65q63 -22 166 -22q99 0 157 19q59 20 59 52q0 12 -15 23q-15 8 -67 19q-53 10 -144 18q-148 13 -224 47q-75 31 -75 100q0 65 83 101q84 35 215 35q118 0 199 -35
q79 -36 96 -98l-82 -39q-20 86 -213 86q-99 0 -154 -15q-56 -15 -56 -38q0 -19 56 -33q62 -15 203 -28q149 -13 208 -46q57 -33 57 -102q0 -73 -86 -112q-84 -40 -228 -40z" />
    <glyph glyph-name="Scircumflex" unicode="&#x15c;" horiz-adv-x="852" 
d="M421 790l-58 -79h-110l121 136h94l121 -136h-110zM447 391q193 -28 271 -75t78 -130q0 -94 -100 -146q-101 -53 -266 -53q-154 0 -254 52q-102 52 -121 136l85 41q5 -62 84 -101q80 -39 206 -39q128 0 202 31q74 32 74 79q0 25 -20 45q-20 18 -82 38q-58 17 -171 34
q-187 27 -267 73q-82 45 -82 126t93 129t245 48q155 0 246 -49q92 -50 108 -138l-87 -43q-5 141 -267 141q-108 0 -177 -26q-68 -27 -68 -62q0 -37 60 -62q62 -27 210 -49z" />
    <glyph glyph-name="scircumflex" unicode="&#x15d;" horiz-adv-x="690" 
d="M343 607l-58 -79h-110l121 136h94l121 -136h-110zM391 287q149 -13 208 -46q57 -33 57 -102q0 -73 -86 -112q-84 -40 -228 -40q-124 0 -208 37q-87 37 -106 98l80 38q13 -43 79 -65q63 -22 166 -22q99 0 157 19q59 20 59 52q0 12 -15 23q-15 8 -67 19q-53 10 -144 18
q-148 13 -224 47q-75 31 -75 100q0 65 83 101q84 35 215 35q118 0 199 -35q79 -36 96 -98l-82 -39q-20 86 -213 86q-99 0 -154 -15q-56 -15 -56 -38q0 -19 56 -33q62 -15 203 -28z" />
    <glyph glyph-name="Scedilla" unicode="&#x15e;" horiz-adv-x="852" 
d="M796 186q0 -89 -91 -141q-92 -53 -244 -57l-18 -31q66 0 105 -16q41 -17 41 -48q0 -36 -55 -54q-56 -18 -189 -18l-15 55q147 0 147 22q0 9 -35 15q-41 5 -74 4l35 70q-142 4 -236 56q-92 51 -112 132l85 41q5 -62 84 -101q80 -39 206 -39q128 0 202 31q74 32 74 79
q0 25 -20 45q-20 18 -82 38q-58 17 -171 34q-187 27 -267 73q-82 45 -82 126t93 129t245 48q155 0 246 -49q92 -50 108 -138l-87 -43q-5 141 -267 141q-108 0 -177 -26q-68 -27 -68 -62q0 -37 60 -62q62 -27 210 -49q193 -28 271 -75t78 -130z" />
    <glyph glyph-name="scedilla" unicode="&#x15f;" horiz-adv-x="690" 
d="M656 139q0 -64 -67 -103q-68 -39 -184 -47l-19 -32q66 0 105 -16q41 -17 41 -48q0 -36 -55 -54t-189 -18l-15 55q147 0 147 22q0 9 -35 15q-41 5 -74 4l35 70h-4q-124 0 -208 37q-87 37 -106 98l80 38q13 -43 79 -65q63 -22 166 -22q99 0 157 19q59 20 59 52q0 12 -15 23
q-15 8 -67 19q-53 10 -144 18q-148 13 -224 47q-75 31 -75 100q0 65 83 101q84 35 215 35q118 0 199 -35q79 -36 96 -98l-82 -39q-20 86 -213 86q-99 0 -154 -15q-56 -15 -56 -38q0 -19 56 -33q62 -15 203 -28q149 -13 208 -46q57 -33 57 -102z" />
    <glyph glyph-name="Scaron" unicode="&#x160;" horiz-adv-x="852" 
d="M468 710h-94l-121 136h110l58 -79l58 79h110zM447 391q193 -28 271 -75t78 -130q0 -94 -100 -146q-101 -53 -266 -53q-154 0 -254 52q-102 52 -121 136l85 41q5 -62 84 -101q80 -39 206 -39q128 0 202 31q74 32 74 79q0 25 -20 45q-20 18 -82 38q-58 17 -171 34
q-187 27 -267 73q-82 45 -82 126t93 129t245 48q155 0 246 -49q92 -50 108 -138l-87 -43q-5 141 -267 141q-108 0 -177 -26q-68 -27 -68 -62q0 -37 60 -62q62 -27 210 -49z" />
    <glyph glyph-name="scaron" unicode="&#x161;" horiz-adv-x="690" 
d="M390 528h-94l-121 136h110l58 -79l58 79h110zM391 287q149 -13 208 -46q57 -33 57 -102q0 -73 -86 -112q-84 -40 -228 -40q-124 0 -208 37q-87 37 -106 98l80 38q13 -43 79 -65q63 -22 166 -22q99 0 157 19q59 20 59 52q0 12 -15 23q-15 8 -67 19q-53 10 -144 18
q-148 13 -224 47q-75 31 -75 100q0 65 83 101q84 35 215 35q118 0 199 -35q79 -36 96 -98l-82 -39q-20 86 -213 86q-99 0 -154 -15q-56 -15 -56 -38q0 -19 56 -33q62 -15 203 -28z" />
    <glyph glyph-name="uni0162" unicode="&#x162;" horiz-adv-x="759" 
d="M424 0h-6l-26 -43q66 0 105 -16q41 -17 41 -48q0 -36 -55 -54t-189 -18l-15 55q147 0 147 22q0 9 -35 15q-41 5 -74 4l41 83h-24v575h-316v89h723v-89h-317v-575z" />
    <glyph glyph-name="uni0163" unicode="&#x163;" horiz-adv-x="510" 
d="M367 -43q66 0 105 -16q41 -17 41 -48q0 -36 -55 -54q-56 -18 -189 -18l-15 55q147 0 147 22q0 9 -35 15q-41 5 -74 4l35 72q-65 7 -109 50q-43 42 -43 105v243h-140v87h140v95l88 51v-146h198v-87h-198v-233q0 -40 24 -59q24 -21 67 -21q66 0 86 44l72 -53
q-40 -63 -125 -76z" />
    <glyph glyph-name="Tcaron" unicode="&#x164;" horiz-adv-x="759" 
d="M426 710h-94l-121 136h110l58 -79l58 79h110zM741 664v-89h-317v-575h-90v575h-316v89h723z" />
    <glyph glyph-name="tcaron" unicode="&#x165;" horiz-adv-x="737" 
d="M623 672q31 0 52 -18q20 -20 20 -51q-2 -58 -40 -89q-39 -33 -104 -33v40q61 0 90 39q-36 -6 -62 10q-28 16 -28 44q0 24 21 41q22 17 51 17zM354 74q66 0 86 44l72 -53q-22 -37 -65 -57q-42 -21 -93 -21q-75 0 -127 44q-52 43 -52 113v243h-140v87h140v95l88 51v-146
h198v-87h-198v-233q0 -40 24 -59q24 -21 67 -21z" />
    <glyph glyph-name="Tbar" unicode="&#x166;" horiz-adv-x="759" 
d="M741 575h-317v-183h117v-84h-117v-308h-90v308h-116v84h116v183h-316v89h723v-89z" />
    <glyph glyph-name="tbar" unicode="&#x167;" horiz-adv-x="510" 
d="M440 118l72 -53q-22 -37 -65 -57q-42 -21 -93 -21q-75 0 -127 44q-52 43 -52 113v112h-88v84h88v47h-140v87h140v95l88 51v-146h198v-87h-198v-47h147v-84h-147v-102q0 -40 24 -59q24 -21 67 -21q66 0 86 44z" />
    <glyph glyph-name="Utilde" unicode="&#x168;" horiz-adv-x="903" 
d="M527 706q-30 0 -55 13q-30 16 -50 32q-27 19 -37 24q-13 4 -18 -7q-4 -11 -4 -57h-101q0 64 33 103t80 39q30 0 55 -13q30 -16 50 -32q23 -19 37 -25q5 -1 11 -1q4 0 7 8q1 8 3 21q1 9 1 36h101q0 -63 -33 -102t-80 -39zM451 -13q-158 0 -268 83q-111 82 -111 223v371h90
v-363q0 -104 82 -164q82 -61 207 -61q126 0 208 61q82 60 82 164v363h90v-371q0 -140 -110 -223q-112 -83 -270 -83z" />
    <glyph glyph-name="utilde" unicode="&#x169;" horiz-adv-x="765" 
d="M315 592q-13 4 -18 -7q-4 -11 -4 -57h-101q0 64 33 103t80 39q30 0 55 -13q30 -16 50 -32q23 -19 37 -25q5 -1 11 -1q4 0 7 8l3 21q1 9 1 36h101q0 -63 -33 -102t-80 -39q-30 0 -55 13q-30 16 -50 32q-27 19 -37 24zM606 474h88v-474h-88v91q-44 -51 -113 -77
q-69 -27 -147 -27q-120 0 -201 63t-81 175v249h88v-233q0 -83 56 -125q55 -43 150 -43q106 0 177 51q71 50 71 141v209z" />
    <glyph glyph-name="Umacron" unicode="&#x16a;" horiz-adv-x="903" 
d="M301 711v75h300v-75h-300zM451 -13q-158 0 -268 83q-111 82 -111 223v371h90v-363q0 -104 82 -164q82 -61 207 -61q126 0 208 61q82 60 82 164v363h90v-371q0 -140 -110 -223q-112 -83 -270 -83z" />
    <glyph glyph-name="umacron" unicode="&#x16b;" horiz-adv-x="765" 
d="M530 603v-75h-300v75h300zM606 474h88v-474h-88v91q-44 -51 -113 -77q-69 -27 -147 -27q-120 0 -201 63t-81 175v249h88v-233q0 -83 56 -125q55 -43 150 -43q106 0 177 51q71 50 71 141v209z" />
    <glyph glyph-name="Ubreve" unicode="&#x16c;" horiz-adv-x="903" 
d="M450 706q-70 0 -120 41q-51 41 -51 100h102q0 -37 21 -58q19 -22 48 -22t50 22q21 21 21 58h100q0 -59 -50 -100q-52 -41 -121 -41zM451 -13q-158 0 -268 83q-111 82 -111 223v371h90v-363q0 -104 82 -164q82 -61 207 -61q126 0 208 61q82 60 82 164v363h90v-371
q0 -140 -110 -223q-112 -83 -270 -83z" />
    <glyph glyph-name="ubreve" unicode="&#x16d;" horiz-adv-x="765" 
d="M379 523q-70 0 -120 41q-51 40 -51 100h102q0 -37 21 -58q19 -22 48 -22t50 22q21 21 21 58h100q0 -59 -50 -100q-52 -41 -121 -41zM606 474h88v-474h-88v91q-44 -51 -113 -77q-69 -27 -147 -27q-120 0 -201 63t-81 175v249h88v-233q0 -83 56 -125q55 -43 150 -43
q106 0 177 51q71 50 71 141v209z" />
    <glyph glyph-name="Uring" unicode="&#x16e;" horiz-adv-x="903" 
d="M451 707q-67 0 -118 21t-51 51q0 28 52 50q51 21 117 21q69 0 119 -21t50 -50q0 -30 -49 -51t-120 -21zM452 741q27 0 47 11q19 10 19 27q0 15 -19 25q-20 11 -47 11q-28 0 -48 -11t-20 -25q0 -16 20 -27t48 -11zM451 -13q-158 0 -268 83q-111 82 -111 223v371h90v-363
q0 -104 82 -164q82 -61 207 -61q126 0 208 61q82 60 82 164v363h90v-371q0 -140 -110 -223q-112 -83 -270 -83z" />
    <glyph glyph-name="uring" unicode="&#x16f;" horiz-adv-x="765" 
d="M380 524q-67 0 -118 21t-51 51q0 28 52 50q51 21 117 21q70 0 119 -21q50 -21 50 -50q0 -30 -49 -51q-50 -21 -120 -21zM381 632q-28 0 -48 -11t-20 -25q0 -16 20 -27t48 -11q27 0 47 11q19 10 19 27q0 15 -19 25q-20 11 -47 11zM606 474h88v-474h-88v91
q-44 -51 -113 -77q-69 -27 -147 -27q-120 0 -201 63t-81 175v249h88v-233q0 -83 56 -125q55 -43 150 -43q106 0 177 51q71 50 71 141v209z" />
    <glyph glyph-name="Uhungarumlaut" unicode="&#x170;" horiz-adv-x="903" 
d="M335 711l98 135h95l-120 -135h-73zM495 711l98 135h95l-121 -135h-72zM451 -13q-158 0 -268 83q-111 82 -111 223v371h90v-363q0 -104 82 -164q82 -61 207 -61q126 0 208 61q82 60 82 164v363h90v-371q0 -140 -110 -223q-112 -83 -270 -83z" />
    <glyph glyph-name="uhungarumlaut" unicode="&#x171;" horiz-adv-x="765" 
d="M457 664l-120 -135h-73l98 135h95zM496 529h-72l98 135h95zM606 474h88v-474h-88v91q-44 -51 -113 -77q-69 -27 -147 -27q-120 0 -201 63t-81 175v249h88v-233q0 -83 56 -125q55 -43 150 -43q106 0 177 51q71 50 71 141v209z" />
    <glyph glyph-name="Uogonek" unicode="&#x172;" horiz-adv-x="902" 
d="M741 664h90v-371q0 -108 -68 -184q-67 -75 -179 -105q-54 -13 -97 -40q-40 -27 -40 -51q0 -27 26 -38q24 -10 104 -10l-15 -44q-125 0 -183 16q-60 17 -60 55q0 52 105 96q-151 8 -250 89q-102 81 -102 216v371h90v-363q0 -104 82 -164q82 -61 207 -61q126 0 208 61
q82 60 82 164v363z" />
    <glyph glyph-name="uogonek" unicode="&#x173;" horiz-adv-x="768" 
d="M694 0q-52 -10 -95 -37q-40 -25 -40 -50q0 -27 26 -38q24 -10 104 -10l-15 -44q-125 0 -183 16q-60 17 -60 55t52 69q53 31 123 48v82q-44 -51 -113 -77q-69 -27 -147 -27q-120 0 -201 63t-81 175v249h88v-233q0 -83 56 -125q55 -43 150 -43q106 0 177 51q71 50 71 141
v209h88v-474z" />
    <glyph glyph-name="Wcircumflex" unicode="&#x174;" horiz-adv-x="1166" 
d="M583 790l-58 -79h-110l121 136h94l121 -136h-110zM1061 664h96l-247 -664h-119l-209 567l-210 -567h-118l-245 664h95l210 -565l209 565h118l209 -563z" />
    <glyph glyph-name="wcircumflex" unicode="&#x175;" horiz-adv-x="1153" 
d="M576 607l-58 -79h-110l121 136h94l121 -136h-110zM1053 474h99l-256 -474h-104l-215 398l-216 -398h-104l-256 474h99l209 -387l210 387h115l210 -387z" />
    <glyph glyph-name="Ycircumflex" unicode="&#x176;" horiz-adv-x="903" 
d="M452 790l-58 -79h-110l121 136h94l121 -136h-110zM891 664l-394 -436v-228h-90v227l-395 437h119l321 -353l320 353h119z" />
    <glyph glyph-name="ycircumflex" unicode="&#x177;" horiz-adv-x="733" 
d="M366 607l-58 -79h-110l121 136h94l121 -136h-110zM629 474h103l-425 -659h-103l120 185l-323 474h104l270 -394z" />
    <glyph glyph-name="Ydieresis" unicode="&#x178;" horiz-adv-x="903" 
d="M338 703q-31 0 -51 16q-21 17 -21 40q0 25 21 41q22 17 51 17t51 -17q21 -17 21 -41q0 -23 -21 -40q-20 -16 -51 -16zM546 703q-31 0 -51 16q-21 17 -21 40q0 25 21 41q22 17 51 17t51 -17q21 -17 21 -41q0 -23 -21 -40q-20 -16 -51 -16zM891 664l-394 -436v-228h-90v227
l-395 437h119l321 -353l320 353h119z" />
    <glyph glyph-name="Zacute" unicode="&#x179;" horiz-adv-x="741" 
d="M536 847l-121 -136h-88l98 136h111zM700 664v-89l-529 -486h526v-89h-656v89l529 486h-525v89h655z" />
    <glyph glyph-name="zacute" unicode="&#x17a;" horiz-adv-x="650" 
d="M490 664l-121 -136h-88l98 136h111zM610 474v-87l-422 -300h419v-87h-567v87l421 300h-414v87h563z" />
    <glyph glyph-name="Zdotaccent" unicode="&#x17b;" horiz-adv-x="741" 
d="M371 703q-31 0 -51 16q-21 17 -21 40q0 25 21 41q22 17 51 17t51 -17q21 -17 21 -41q0 -23 -21 -40q-20 -16 -51 -16zM700 664v-89l-529 -486h526v-89h-656v89l529 486h-525v89h655z" />
    <glyph glyph-name="zdotaccent" unicode="&#x17c;" horiz-adv-x="650" 
d="M325 521q-31 0 -51 16q-21 17 -21 40q0 25 21 41q22 17 51 17t51 -17q21 -16 21 -41q0 -23 -21 -40q-20 -16 -51 -16zM610 474v-87l-422 -300h419v-87h-567v87l421 300h-414v87h563z" />
    <glyph glyph-name="Zcaron" unicode="&#x17d;" horiz-adv-x="741" 
d="M418 710h-94l-121 136h110l58 -79l58 79h110zM700 664v-89l-529 -486h526v-89h-656v89l529 486h-525v89h655z" />
    <glyph glyph-name="zcaron" unicode="&#x17e;" horiz-adv-x="650" 
d="M372 528h-94l-121 136h110l58 -79l58 79h110zM610 474v-87l-422 -300h419v-87h-567v87l421 300h-414v87h563z" />
    <glyph glyph-name="longs" unicode="&#x17f;" horiz-adv-x="509" 
d="M354 679q50 0 92 -21q43 -23 65 -58l-74 -54q-7 20 -30 34q-23 12 -53 12q-39 0 -64 -20q-24 -20 -24 -60v-512h-91v388h-140v87h140v47q0 71 52 114q50 43 127 43z" />
    <glyph glyph-name="uni018F" unicode="&#x18f;" horiz-adv-x="902" 
d="M450 678q76 0 148 -21q72 -23 130 -63t95 -109q36 -67 36 -152q0 -71 -24 -130q-27 -61 -65 -98q-40 -39 -93 -66q-52 -28 -111 -40q-57 -12 -116 -12q-74 0 -144 21q-70 19 -130 60q-60 39 -96 108q-37 68 -37 157q0 35 6 54h712q-13 67 -63 114t-113 68q-66 20 -135 20
q-82 0 -155 -26q-71 -27 -115 -80l-65 66q58 64 149 97q91 32 186 32zM450 76q76 0 140 21t115 73q50 53 59 129h-626q9 -76 59 -129q48 -51 115 -73q64 -21 138 -21z" />
    <glyph glyph-name="florin" unicode="&#x192;" horiz-adv-x="713" 
d="M660 586q-94 0 -164 -43q-69 -43 -77 -113l-4 -41l-2 -15h169v-84h-177l-22 -213q-8 -68 -59 -121q-52 -53 -127 -81q-72 -28 -153 -28l8 90q96 2 166 45q69 43 77 112l5 51l14 145h-182v84h191l7 74q10 100 114 165q101 64 225 64z" />
    <glyph glyph-name="uni019D" unicode="&#x19d;" horiz-adv-x="946" 
d="M772 664h90v-664h-109l-592 560v-603q0 -70 -52 -113q-53 -44 -129 -44q-3 0 -33 2l33 85q43 0 67 21q24 20 24 59v697h110l591 -559v559z" />
    <glyph glyph-name="uni01CD" unicode="&#x1cd;" horiz-adv-x="838" 
d="M466 710h-94l-121 136h110l58 -79l58 79h110zM731 0l-78 145h-468l-78 -145h-101l356 664h114l356 -664h-101zM232 233h374l-187 349z" />
    <glyph glyph-name="uni01CE" unicode="&#x1ce;" horiz-adv-x="760" 
d="M399 528h-94l-121 136h110l58 -79l58 79h110zM601 474h88v-474h-88v82q-46 -46 -116 -70q-69 -25 -143 -25q-76 0 -143 27q-68 26 -115 85t-47 138q0 80 46 138q44 57 113 85q67 27 146 27q72 0 143 -24q68 -23 116 -71v82zM365 74q106 0 171 46q65 45 65 117
q0 73 -65 118q-66 45 -171 45q-107 0 -171 -45q-66 -45 -66 -118q0 -72 66 -117q65 -46 171 -46z" />
    <glyph glyph-name="uni01CF" unicode="&#x1cf;" horiz-adv-x="258" 
d="M187 846h110l-121 -136h-94l-121 136h110l58 -79zM84 0v664h90v-664h-90z" />
    <glyph glyph-name="uni01D0" unicode="&#x1d0;" horiz-adv-x="230" 
d="M173 664h110l-121 -136h-94l-121 136h110l58 -79zM71 0v474h88v-474h-88z" />
    <glyph glyph-name="uni01D1" unicode="&#x1d1;" horiz-adv-x="900" 
d="M497 710h-94l-121 136h110l58 -79l58 79h110zM450 679q76 0 147 -21q72 -23 130 -63q59 -42 95 -110q35 -68 35 -152q0 -88 -36 -157q-38 -70 -97 -108q-60 -41 -130 -60q-70 -21 -144 -21t-144 21q-70 19 -130 60q-60 39 -96 108q-37 68 -37 157q0 85 36 152
q34 67 94 110q58 40 130 63q71 21 147 21zM450 76q57 0 111 15q55 15 101 45q45 27 74 80q28 50 28 117q0 83 -48 144q-48 60 -117 87q-70 26 -149 26t-149 -26q-69 -27 -117 -87q-48 -61 -48 -144q0 -67 28 -117q29 -52 75 -80q47 -30 100 -45q54 -15 111 -15z" />
    <glyph glyph-name="uni01D2" unicode="&#x1d2;" horiz-adv-x="732" 
d="M413 528h-94l-121 136h110l58 -79l58 79h110zM366 487q81 0 156 -26q72 -25 123 -84q50 -59 50 -140q0 -83 -51 -141q-53 -59 -124 -84q-72 -25 -154 -25t-153 25q-73 25 -124 84q-52 58 -52 141q0 81 51 140q50 59 123 84q73 26 155 26zM366 74q94 0 166 42t72 121
q0 77 -71 121q-72 42 -167 42t-166 -42q-72 -44 -72 -121q0 -79 72 -121t166 -42z" />
    <glyph glyph-name="uni01D3" unicode="&#x1d3;" horiz-adv-x="903" 
d="M498 710h-94l-121 136h110l58 -79l58 79h110zM741 664h90v-371q0 -140 -110 -223q-112 -83 -270 -83t-268 83q-111 82 -111 223v371h90v-363q0 -104 82 -164q82 -61 207 -61q126 0 208 61q82 60 82 164v363z" />
    <glyph glyph-name="uni01D4" unicode="&#x1d4;" horiz-adv-x="765" 
d="M427 528h-94l-121 136h110l58 -79l58 79h110zM606 474h88v-474h-88v91q-44 -51 -113 -77q-69 -27 -147 -27q-120 0 -201 63t-81 175v249h88v-233q0 -83 56 -125q55 -43 150 -43q106 0 177 51q71 50 71 141v209z" />
    <glyph glyph-name="uni01E2" unicode="&#x1e2;" horiz-adv-x="1417" 
d="M1042 786v-75h-300v75h300zM1373 575h-853l97 -181h681v-89h-634l116 -216h593v-89h-646l-78 145h-468l-78 -145h-101l356 664h1015v-89zM602 233l-183 342h-7v1l-184 -343h374z" />
    <glyph glyph-name="uni01E3" unicode="&#x1e3;" horiz-adv-x="1318" 
d="M798 603v-75h-300v75h300zM953 487q148 0 244 -75q95 -77 83 -208h-561q15 -64 83 -97q67 -34 151 -34q131 0 199 68l68 -59q-46 -46 -119 -70q-71 -25 -148 -25q-75 0 -146 24q-72 23 -118 69v-80h-88v82q-46 -46 -116 -70q-69 -25 -143 -25q-76 0 -143 27
q-68 26 -115 85t-47 138q0 80 46 138q44 57 113 85q67 27 146 27q72 0 143 -24q68 -23 116 -71v82h88v-80q46 46 117 70q72 23 147 23zM953 401q-77 0 -142 -30t-87 -85h458q-22 55 -87 85t-142 30zM365 74q106 0 171 46q65 45 65 117q0 73 -65 118q-66 45 -171 45
q-107 0 -171 -45q-66 -45 -66 -118q0 -72 66 -117q65 -46 171 -46z" />
    <glyph glyph-name="Gcaron" unicode="&#x1e6;" horiz-adv-x="896" 
d="M499 710h-94l-121 136h110l58 -79l58 79h110zM380 365h445v-365h-90v122q-41 -66 -120 -101q-77 -34 -172 -34q-58 0 -111 13q-55 12 -107 40q-55 30 -93 68q-39 38 -64 98q-25 57 -25 127q0 85 36 152q35 68 95 110q58 40 131 63q72 21 150 21q100 0 187 -34
q88 -35 138 -99l-58 -78q-37 60 -109 91q-71 31 -161 31q-140 0 -228 -71q-88 -70 -88 -186q0 -121 90 -189q89 -68 219 -68q104 0 187 53q81 52 108 146h-360v90z" />
    <glyph glyph-name="gcaron" unicode="&#x1e7;" horiz-adv-x="760" 
d="M389 528h-94l-121 136h110l58 -79l58 79h110zM601 474h88v-417q0 -123 -99 -190q-98 -67 -249 -67q-96 0 -170 28q-74 27 -109 75l67 60q19 -37 77 -57t136 -20q114 0 187 43q72 42 72 123v30q-46 -46 -116 -70q-69 -25 -143 -25q-76 0 -143 27q-68 26 -115 85t-47 138
q0 80 46 138q44 57 113 85q67 27 146 27q72 0 143 -24q68 -23 116 -71v82zM365 74q106 0 171 46q65 45 65 117q0 73 -65 118q-66 45 -171 45q-107 0 -171 -45q-66 -45 -66 -118q0 -72 66 -117q65 -46 171 -46z" />
    <glyph glyph-name="uni01EA" unicode="&#x1ea;" horiz-adv-x="900" 
d="M857 333q0 -133 -76 -215t-196 -114q-54 -13 -97 -40q-40 -27 -40 -51q0 -27 26 -38q24 -10 104 -10l-15 -44q-125 0 -183 16q-60 17 -60 55q0 52 105 96q-74 3 -137 25q-70 24 -122 62q-57 42 -89 107q-34 67 -34 151q0 85 36 152q34 67 94 110q58 40 130 63
q71 21 147 21t147 -21q72 -23 130 -63q59 -42 95 -110q35 -68 35 -152zM450 76q57 0 111 15q55 15 101 45q45 27 74 80q28 50 28 117q0 83 -48 144q-48 60 -117 87q-70 26 -149 26t-149 -26q-69 -27 -117 -87q-48 -61 -48 -144q0 -67 28 -117q29 -52 75 -80q47 -30 100 -45
q54 -15 111 -15z" />
    <glyph glyph-name="uni01EB" unicode="&#x1eb;" horiz-adv-x="731" 
d="M467 -2q-46 -16 -77 -40q-32 -24 -32 -45q0 -27 26 -38q24 -10 104 -10l-15 -44q-125 0 -183 16q-60 17 -60 55q0 54 106 96q-76 4 -142 32q-65 25 -111 83q-46 56 -46 134q0 81 51 140q50 59 123 84q73 26 155 26q81 0 156 -26q72 -25 123 -84q50 -59 50 -140
q0 -96 -64 -156q-63 -60 -164 -83zM128 237q0 -79 72 -121t166 -42t166 42t72 121q0 77 -71 121q-72 42 -167 42t-166 -42q-72 -44 -72 -121z" />
    <glyph glyph-name="Aringacute" unicode="&#x1fa;" horiz-adv-x="838" 
d="M419 707q-67 0 -118 21t-51 51q0 28 52 50q51 21 117 21q3 0 35 -2l41 57h111l-68 -76q50 -21 50 -50q0 -30 -49 -51t-120 -21zM420 815q-28 0 -48 -11t-20 -25q0 -16 20 -27t48 -11q27 0 47 11q19 10 19 27q0 15 -19 25q-20 11 -47 11zM731 0l-78 145h-468l-78 -145
h-101l356 664h114l356 -664h-101zM232 233h374l-187 349z" />
    <glyph glyph-name="aringacute" unicode="&#x1fb;" horiz-adv-x="760" 
d="M352 524q-67 0 -118 21t-51 51q0 28 52 50q51 21 117 21q3 0 35 -2l41 57h111l-68 -76q50 -21 50 -50q0 -30 -49 -51q-50 -21 -120 -21zM353 632q-28 0 -48 -11t-20 -25q0 -16 20 -27t48 -11q27 0 47 11q19 10 19 27q0 15 -19 25q-20 11 -47 11zM601 474h88v-474h-88v82
q-46 -46 -116 -70q-69 -25 -143 -25q-76 0 -143 27q-68 26 -115 85t-47 138q0 80 46 138q44 57 113 85q67 27 146 27q72 0 143 -24q68 -23 116 -71v82zM365 74q106 0 171 46q65 45 65 117q0 73 -65 118q-66 45 -171 45q-107 0 -171 -45q-66 -45 -66 -118q0 -72 66 -117
q65 -46 171 -46z" />
    <glyph glyph-name="AEacute" unicode="&#x1fc;" horiz-adv-x="1417" 
d="M1057 847l-121 -136h-88l98 136h111zM1373 575h-853l97 -181h681v-89h-634l116 -216h593v-89h-646l-78 145h-468l-78 -145h-101l356 664h1015v-89zM602 233l-183 342h-7v1l-184 -343h374z" />
    <glyph glyph-name="aeacute" unicode="&#x1fd;" horiz-adv-x="1318" 
d="M1118 664l-121 -136h-88l98 136h111zM953 487q148 0 244 -75q95 -77 83 -208h-561q15 -64 83 -97q67 -34 151 -34q131 0 199 68l68 -59q-46 -46 -119 -70q-71 -25 -148 -25q-75 0 -146 24q-72 23 -118 69v-80h-88v82q-46 -46 -116 -70q-69 -25 -143 -25q-76 0 -143 27
q-68 26 -115 85t-47 138q0 80 46 138q44 57 113 85q67 27 146 27q72 0 143 -24q68 -23 116 -71v82h88v-80q46 46 117 70q72 23 147 23zM953 401q-77 0 -142 -30t-87 -85h458q-22 55 -87 85t-142 30zM365 74q106 0 171 46q65 45 65 117q0 73 -65 118q-66 45 -171 45
q-107 0 -171 -45q-66 -45 -66 -118q0 -72 66 -117q65 -46 171 -46z" />
    <glyph glyph-name="Oslashacute" unicode="&#x1fe;" horiz-adv-x="900" 
d="M617 847l-121 -136h-88l98 136h111zM857 599l-73 -58q73 -85 73 -208q0 -88 -36 -157q-38 -70 -97 -108q-60 -41 -130 -60q-70 -21 -144 -21q-158 0 -271 78l-81 -64l-55 66l72 57q-72 86 -72 209q0 85 36 152q34 67 94 110q58 40 130 63q71 21 147 21q155 0 270 -80
l83 66zM136 333q0 -90 52 -152l456 359q-83 50 -194 50q-79 0 -149 -26q-69 -27 -117 -87q-48 -61 -48 -144zM764 333q0 87 -53 151l-456 -359q83 -49 195 -49q57 0 111 15q55 15 101 45q45 27 74 80q28 50 28 117z" />
    <glyph glyph-name="oslashacute" unicode="&#x1ff;" horiz-adv-x="732" 
d="M533 664l-121 -136h-88l98 136h111zM698 419l-55 -40q52 -59 52 -142t-51 -141q-53 -59 -124 -84q-72 -25 -154 -25q-111 0 -200 47l-82 -60l-50 68l62 45q-59 62 -59 150q0 81 51 140q50 59 123 84q73 26 155 26q119 0 210 -52l72 52zM128 237q0 -56 41 -97l326 236
q-59 24 -129 24q-95 0 -166 -42q-72 -44 -72 -121zM604 237q0 52 -34 89l-322 -233q53 -19 118 -19q94 0 166 42t72 121z" />
    <glyph glyph-name="Scommaaccent" unicode="&#x218;" horiz-adv-x="852" 
d="M430 -13q-154 0 -254 52q-102 52 -121 136l85 41q5 -62 84 -101q80 -39 206 -39q128 0 202 31q74 32 74 79q0 25 -20 45q-20 18 -82 38q-58 17 -171 34q-187 27 -267 73q-82 45 -82 126t93 129t245 48q155 0 246 -49q92 -50 108 -138l-87 -43q-5 141 -267 141
q-108 0 -177 -26q-68 -27 -68 -62q0 -37 60 -62q62 -27 210 -49q193 -28 271 -75t78 -130q0 -94 -100 -146q-101 -53 -266 -53zM358 -237v40q62 0 90 39q-36 -6 -62 10q-28 16 -28 44q0 24 21 41q22 17 51 17q31 0 52 -18q20 -20 20 -51q-2 -58 -40 -89q-39 -33 -104 -33z
" />
    <glyph glyph-name="scommaaccent" unicode="&#x219;" horiz-adv-x="690" 
d="M342 -13q-124 0 -208 37q-87 37 -106 98l80 38q13 -43 79 -65q63 -22 166 -22q99 0 157 19q59 20 59 52q0 12 -15 23q-15 8 -67 19q-53 10 -144 18q-148 13 -224 47q-75 31 -75 100q0 65 83 101q84 35 215 35q118 0 199 -35q79 -36 96 -98l-82 -39q-20 86 -213 86
q-99 0 -154 -15q-56 -15 -56 -38q0 -19 56 -33q62 -15 203 -28q149 -13 208 -46q57 -33 57 -102q0 -73 -86 -112q-84 -40 -228 -40zM301 -237v40q61 0 90 39q-36 -6 -62 10q-28 16 -28 44q0 24 21 41q22 17 51 17q31 0 52 -18q20 -20 20 -51q-2 -58 -40 -89
q-39 -33 -104 -33z" />
    <glyph glyph-name="uni021A" unicode="&#x21a;" horiz-adv-x="759" 
d="M18 664h723v-89h-317v-575h-90v575h-316v89zM379 -46q31 0 52 -18q20 -20 20 -51q-2 -58 -40 -89q-39 -33 -104 -33v40q61 0 90 39q-36 -6 -62 10q-28 16 -28 44q0 24 21 41q22 17 51 17z" />
    <glyph glyph-name="uni021B" unicode="&#x21b;" horiz-adv-x="510" 
d="M440 118l72 -53q-22 -37 -65 -57q-42 -21 -93 -21q-75 0 -127 44q-52 43 -52 113v243h-140v87h140v95l88 51v-146h198v-87h-198v-233q0 -40 24 -59q24 -21 67 -21q66 0 86 44zM354 -46q31 0 52 -18q20 -20 20 -51q-2 -58 -40 -89q-39 -33 -104 -33v40q62 0 90 39
q-36 -6 -62 10q-28 16 -28 44q0 24 21 41q22 17 51 17z" />
    <glyph glyph-name="uni0232" unicode="&#x232;" horiz-adv-x="903" 
d="M602 786v-75h-300v75h300zM891 664l-394 -436v-228h-90v227l-395 437h119l321 -353l320 353h119z" />
    <glyph glyph-name="uni0233" unicode="&#x233;" horiz-adv-x="733" 
d="M516 603v-75h-300v75h300zM629 474h103l-425 -659h-103l120 185l-323 474h104l270 -394z" />
    <glyph glyph-name="uni0237" unicode="&#x237;" horiz-adv-x="230" 
d="M-20 -200q-51 0 -93 21q-43 20 -65 57l72 53q20 -44 86 -44q43 0 67 21q24 20 24 59v507h88v-517q0 -69 -51 -113q-53 -44 -128 -44z" />
    <glyph glyph-name="uni0259" unicode="&#x259;" horiz-adv-x="731" 
d="M365 487q82 0 154 -25q71 -25 124 -84q51 -58 51 -141q0 -80 -50 -139q-52 -60 -123 -85q-75 -26 -156 -26q-149 0 -243 76q-96 75 -84 207h561q-15 63 -83 98q-68 33 -151 33q-131 0 -199 -68l-68 59q45 45 119 71q72 24 148 24zM365 73q77 0 142 30t87 85h-458
q22 -55 87 -85t142 -30z" />
    <glyph glyph-name="uni0272" unicode="&#x272;" horiz-adv-x="765" 
d="M423 488q122 0 201 -55q78 -55 78 -162v-270l-88 -1v250q0 81 -50 116t-150 35q-49 0 -94 -15q-46 -15 -81 -43q-37 -28 -58 -74q-22 -45 -22 -105v-207q0 -69 -51 -113q-53 -44 -128 -44q-3 0 -33 2l33 85q43 0 67 21q24 20 24 59v507h88v-102q48 57 116 86
q69 30 148 30z" />
    <glyph glyph-name="circumflex" unicode="&#x2c6;" horiz-adv-x="396" 
d="M366 711h-110l-58 79l-58 -79h-110l121 136h94z" />
    <glyph glyph-name="caron" unicode="&#x2c7;" horiz-adv-x="490" 
d="M303 847h110l-121 -136h-94l-121 136h110l58 -79z" />
    <glyph glyph-name="uni02C9" unicode="&#x2c9;" horiz-adv-x="300" 
d="M0 715v75h300v-75h-300z" />
    <glyph glyph-name="breve" unicode="&#x2d8;" horiz-adv-x="428" 
d="M214 706q-70 0 -120 41q-51 41 -51 100h102q0 -37 21 -58q19 -22 48 -22t50 22q21 21 21 58h100q0 -59 -50 -100q-52 -41 -121 -41z" />
    <glyph glyph-name="dotaccent" unicode="&#x2d9;" horiz-adv-x="226" 
d="M113 703q-31 0 -51 16q-21 17 -21 40q0 25 21 41q22 17 51 17t51 -17q21 -17 21 -41q0 -23 -21 -40q-20 -16 -51 -16z" />
    <glyph glyph-name="ring" unicode="&#x2da;" horiz-adv-x="428" 
d="M214 707q-67 0 -118 21t-51 51q0 28 52 50q51 21 117 21q70 0 119 -21q50 -21 50 -50q0 -30 -49 -51q-50 -21 -120 -21zM215 741q27 0 47 11q19 10 19 27q0 15 -19 25q-20 11 -47 11q-28 0 -48 -11t-20 -25q0 -16 20 -27t48 -11z" />
    <glyph glyph-name="ogonek" unicode="&#x2db;" horiz-adv-x="343" 
d="M272 -179q-125 0 -183 16q-60 17 -60 55q0 26 24 48q21 21 60 38q36 16 75 27q32 9 75 14l29 -19q-52 -10 -95 -37q-40 -25 -40 -50q0 -27 26 -38q24 -10 104 -10z" />
    <glyph glyph-name="tilde" unicode="&#x2dc;" horiz-adv-x="435" 
d="M294 706q-30 0 -55 13q-30 16 -50 32q-27 19 -37 24q-13 4 -18 -7q-4 -11 -4 -57h-101q0 64 33 103t80 39q30 0 55 -13q30 -16 50 -32q23 -19 37 -25q5 -1 11 -1q4 0 7 8q2 8 3 21q1 9 1 36h101q0 -63 -33 -102t-80 -39z" />
    <glyph glyph-name="hungarumlaut" unicode="&#x2dd;" horiz-adv-x="232" 
d="M0 711l98 135h95l-120 -135h-73zM160 711l98 135h95l-121 -135h-72z" />
    <glyph glyph-name="gravecomb" unicode="&#x300;" horiz-adv-x="0" 
d="M0 710h-88l-121 136h111z" />
    <glyph glyph-name="acutecomb" unicode="&#x301;" horiz-adv-x="0" 
d="M-88 710l98 136h111l-121 -136h-88z" />
    <glyph glyph-name="uni0302" unicode="&#x302;" horiz-adv-x="0" 
d="M-30 710h-110l-58 79l-58 -79h-110l121 136h94z" />
    <glyph glyph-name="tildecomb" unicode="&#x303;" horiz-adv-x="0" 
d="M-141 705q-30 0 -55 13q-30 16 -50 32q-27 19 -37 24q-13 4 -18 -7q-4 -11 -4 -57h-101q0 64 33 103t80 39q30 0 55 -13q30 -16 50 -32q23 -19 37 -25q5 -1 11 -1q4 0 7 8l3 21q1 9 1 36h101q0 -63 -33 -102t-80 -39z" />
    <glyph glyph-name="uni0304" unicode="&#x304;" horiz-adv-x="0" 
d="M-305 710v75h300v-75h-300z" />
    <glyph glyph-name="uni0306" unicode="&#x306;" horiz-adv-x="0" 
d="M-214 705q-70 0 -120 41q-51 40 -51 100h102q0 -37 21 -58q19 -22 48 -22t50 22q21 21 21 58h100q0 -59 -50 -100q-52 -41 -121 -41z" />
    <glyph glyph-name="uni0307" unicode="&#x307;" horiz-adv-x="0" 
d="M-113 703q-31 0 -51 16q-21 17 -21 40q0 25 21 41q22 17 51 17t51 -17q21 -16 21 -41q0 -23 -21 -40q-20 -16 -51 -16z" />
    <glyph glyph-name="uni0308" unicode="&#x308;" horiz-adv-x="0" 
d="M-332 703q-31 0 -51 16q-21 17 -21 40q0 25 21 41q22 17 51 17t51 -17q21 -16 21 -41q0 -23 -21 -40q-20 -16 -51 -16zM-124 703q-31 0 -51 16q-21 17 -21 40q0 25 21 41q22 17 51 17t51 -17q21 -16 21 -41q0 -23 -21 -40q-20 -16 -51 -16z" />
    <glyph glyph-name="uni030A" unicode="&#x30a;" horiz-adv-x="0" 
d="M-214 706q-67 0 -118 21t-51 51q0 28 52 50q51 21 117 21q70 0 119 -21q50 -21 50 -50q0 -30 -49 -51q-50 -21 -120 -21zM-213 740q27 0 47 11q19 10 19 27q0 15 -19 25q-20 11 -47 11q-28 0 -48 -11t-20 -25q0 -16 20 -27t48 -11z" />
    <glyph glyph-name="uni030B" unicode="&#x30b;" horiz-adv-x="0" 
d="M-232 711l98 135h95l-120 -135h-73zM-72 711l98 135h95l-121 -135h-72z" />
    <glyph glyph-name="uni030C" unicode="&#x30c;" horiz-adv-x="0" 
d="M-186 846h110l-121 -136h-94l-121 136h110l58 -79z" />
    <glyph glyph-name="uni0312" unicode="&#x312;" horiz-adv-x="0" 
d="M-45 887v-40q-61 0 -90 -39q35 6 63 -10q27 -16 27 -44q0 -24 -21 -41q-22 -17 -51 -17q-32 0 -51 19q-21 18 -21 50q2 57 40 90q40 32 104 32z" />
    <glyph glyph-name="dotbelowcomb" unicode="&#x323;" horiz-adv-x="0" 
d="M-119 -161q-31 0 -51 16q-21 17 -21 40q0 25 21 41q22 17 51 17t51 -17q21 -16 21 -41q0 -23 -21 -40q-20 -16 -51 -16z" />
    <glyph glyph-name="uni0326" unicode="&#x326;" horiz-adv-x="0" 
d="M-191 -237v40q61 0 90 39q-36 -6 -62 10q-28 16 -28 44q0 24 21 41q22 17 51 17q31 0 52 -18q20 -20 20 -51q-2 -58 -40 -89q-39 -33 -104 -33z" />
    <glyph glyph-name="uni0327" unicode="&#x327;" horiz-adv-x="0" 
d="M-295 -179l-15 55q147 0 147 22q0 9 -35 15q-41 5 -74 4l41 83h60l-26 -43q66 0 105 -16q41 -17 41 -48q0 -36 -55 -54q-56 -18 -189 -18z" />
    <glyph glyph-name="uni0328" unicode="&#x328;" horiz-adv-x="0" 
d="M-71 -179q-125 0 -183 16q-60 17 -60 55q0 26 24 48q21 21 60 38q36 16 75 27q32 9 75 14l29 -19q-52 -10 -95 -37q-40 -25 -40 -50q0 -27 26 -38q24 -10 104 -10z" />
    <glyph glyph-name="uni0335" unicode="&#x335;" horiz-adv-x="0" 
d="M-338 550v84h323v-84h-323z" />
    <glyph glyph-name="uni0336" unicode="&#x336;" horiz-adv-x="0" 
d="M-338 402h323v-40h-323v40z" />
    <glyph glyph-name="uni0337" unicode="&#x337;" horiz-adv-x="0" 
d="M-601 -26l-50 68l614 445l50 -68z" />
    <glyph glyph-name="uni0338" unicode="&#x338;" horiz-adv-x="0" 
d="M-731 0l-55 66l760 598l54 -66z" />
    <glyph glyph-name="uni03BC" unicode="&#x3bc;" horiz-adv-x="765" 
d="M606 474h88v-474h-88v91q-44 -51 -113 -77q-69 -27 -147 -27q-118 0 -194 57v-216h-88v646h88v-233q0 -83 56 -125q55 -43 150 -43q106 0 177 51q71 50 71 141v209z" />
    <glyph glyph-name="pi" unicode="&#x3c0;" horiz-adv-x="788" 
d="M748 384h-231l-1 -180q0 -56 66 -98t158 -42v-90q-121 0 -218 65q-98 65 -96 165l1 180h-129v-384h-90v384h-168v90h708v-90z" />
    <glyph glyph-name="Wgrave" unicode="&#x1e80;" horiz-adv-x="1166" 
d="M627 711h-88l-121 136h111zM1061 664h96l-247 -664h-119l-209 567l-210 -567h-118l-245 664h95l210 -565l209 565h118l209 -563z" />
    <glyph glyph-name="wgrave" unicode="&#x1e81;" horiz-adv-x="1153" 
d="M620 528h-88l-121 136h111zM1053 474h99l-256 -474h-104l-215 398l-216 -398h-104l-256 474h99l209 -387l210 387h115l210 -387z" />
    <glyph glyph-name="Wacute" unicode="&#x1e82;" horiz-adv-x="1166" 
d="M748 847l-121 -136h-88l98 136h111zM1061 664h96l-247 -664h-119l-209 567l-210 -567h-118l-245 664h95l210 -565l209 565h118l209 -563z" />
    <glyph glyph-name="wacute" unicode="&#x1e83;" horiz-adv-x="1153" 
d="M741 664l-121 -136h-88l98 136h111zM1053 474h99l-256 -474h-104l-215 398l-216 -398h-104l-256 474h99l209 -387l210 387h115l210 -387z" />
    <glyph glyph-name="Wdieresis" unicode="&#x1e84;" horiz-adv-x="1166" 
d="M469 703q-31 0 -51 16q-21 17 -21 40q0 25 21 41q22 17 51 17t51 -17q21 -17 21 -41q0 -23 -21 -40q-20 -16 -51 -16zM677 703q-31 0 -51 16q-21 17 -21 40q0 25 21 41q22 17 51 17t51 -17q21 -17 21 -41q0 -23 -21 -40q-20 -16 -51 -16zM1061 664h96l-247 -664h-119
l-209 567l-210 -567h-118l-245 664h95l210 -565l209 565h118l209 -563z" />
    <glyph glyph-name="wdieresis" unicode="&#x1e85;" horiz-adv-x="1153" 
d="M472 521q-31 0 -51 16q-21 17 -21 40q0 25 21 41q22 17 51 17t51 -17q21 -16 21 -41q0 -23 -21 -40q-20 -16 -51 -16zM680 521q-31 0 -51 16q-21 17 -21 40q0 25 21 41q22 17 51 17t51 -17q21 -16 21 -41q0 -23 -21 -40q-20 -16 -51 -16zM1053 474h99l-256 -474h-104
l-215 398l-216 -398h-104l-256 474h99l209 -387l210 387h115l210 -387z" />
    <glyph glyph-name="uni1E8A" unicode="&#x1e8a;" horiz-adv-x="807" 
d="M404 703q-31 0 -51 16q-21 17 -21 40q0 25 21 41q22 17 51 17t51 -17q21 -17 21 -41q0 -23 -21 -40q-20 -16 -51 -16zM818 0h-124l-290 291l-291 -291h-124l351 353l-308 311h123l249 -248l248 248h123l-308 -311z" />
    <glyph glyph-name="uni1E8B" unicode="&#x1e8b;" horiz-adv-x="698" 
d="M350 521q-31 0 -51 16q-21 17 -21 40q0 25 21 41q22 17 51 17t51 -17q21 -16 21 -41q0 -23 -21 -40q-20 -16 -51 -16zM702 0h-130l-223 191l-223 -191h-130l288 247l-264 227h130l199 -171l200 171h130l-265 -227z" />
    <glyph glyph-name="uni1E9E" unicode="&#x1e9e;" horiz-adv-x="1006" 
d="M714 387q118 -11 183 -62q65 -53 65 -132q0 -99 -102 -152q-104 -53 -263 -53q-260 0 -373 134l76 50q90 -95 297 -95q124 0 199 29q73 28 73 87q0 50 -54 80q-57 29 -163 28h-127l-30 88h105l160 186h-343q-107 0 -175 -45q-68 -47 -68 -121v-412h-90v437q0 100 95 165
t213 65h556z" />
    <glyph glyph-name="uni1EA0" unicode="&#x1ea0;" horiz-adv-x="838" 
d="M832 0h-101l-78 145h-468l-78 -145h-101l356 664h114zM232 233h374l-187 349zM418 -47q29 0 51 -17q21 -16 21 -41q0 -23 -21 -40q-20 -16 -51 -16t-51 16q-21 17 -21 40q0 25 21 41q22 17 51 17z" />
    <glyph glyph-name="uni1EA1" unicode="&#x1ea1;" horiz-adv-x="760" 
d="M601 474h88v-474h-88v82q-46 -46 -116 -70q-69 -25 -143 -25q-76 0 -143 27q-68 26 -115 85t-47 138q0 80 46 138q44 57 113 85q67 27 146 27q72 0 143 -24q68 -23 116 -71v82zM365 74q106 0 171 46q65 45 65 117q0 73 -65 118q-66 45 -171 45q-107 0 -171 -45
q-66 -45 -66 -118q0 -72 66 -117q65 -46 171 -46zM341 -47q29 0 51 -17q21 -16 21 -41q0 -23 -21 -40q-20 -16 -51 -16t-51 16q-21 17 -21 40q0 25 21 41q22 17 51 17z" />
    <glyph glyph-name="uni1EB8" unicode="&#x1eb8;" horiz-adv-x="775" 
d="M731 575h-557v-181h481v-89h-481v-216h557v-89h-647v664h647v-89zM407 -47q29 0 51 -17q21 -16 21 -41q0 -23 -21 -40q-20 -16 -51 -16t-51 16q-21 17 -21 40q0 25 21 41q22 17 51 17z" />
    <glyph glyph-name="uni1EB9" unicode="&#x1eb9;" horiz-adv-x="731" 
d="M366 487q148 0 244 -75q95 -77 83 -208h-561q15 -64 83 -97q67 -34 151 -34q131 0 199 68l68 -59q-45 -46 -119 -70q-71 -25 -148 -25q-82 0 -153 25q-73 25 -124 84q-52 58 -52 141q0 81 51 140q50 59 123 84q73 26 155 26zM366 401q-77 0 -142 -30t-87 -85h458
q-22 55 -87 85t-142 30zM365 -47q29 0 51 -17q21 -16 21 -41q0 -23 -21 -40q-20 -16 -51 -16t-51 16q-21 17 -21 40q0 25 21 41q22 17 51 17z" />
    <glyph glyph-name="uni1EBC" unicode="&#x1ebc;" horiz-adv-x="775" 
d="M342 775q-13 4 -18 -7q-4 -11 -4 -57h-101q0 64 33 103t80 39q30 0 55 -13q30 -16 50 -32q23 -19 37 -25q5 -1 11 -1q4 0 7 8q2 8 3 21q1 9 1 36h101q0 -63 -33 -102t-80 -39q-30 0 -55 13q-30 16 -50 32q-27 19 -37 24zM731 575h-557v-181h481v-89h-481v-216h557v-89
h-647v664h647v-89z" />
    <glyph glyph-name="uni1EBD" unicode="&#x1ebd;" horiz-adv-x="731" 
d="M301 592q-13 4 -18 -7q-4 -11 -4 -57h-101q0 64 33 103t80 39q30 0 55 -13q30 -16 50 -32q23 -19 37 -25q5 -1 11 -1q4 0 7 8l3 21q1 9 1 36h101q0 -63 -33 -102t-80 -39q-30 0 -55 13q-30 16 -50 32q-27 19 -37 24zM366 487q148 0 244 -75q95 -77 83 -208h-561
q15 -64 83 -97q67 -34 151 -34q131 0 199 68l68 -59q-45 -46 -119 -70q-71 -25 -148 -25q-82 0 -153 25q-73 25 -124 84q-52 58 -52 141q0 81 51 140q50 59 123 84q73 26 155 26zM366 401q-77 0 -142 -30t-87 -85h458q-22 55 -87 85t-142 30z" />
    <glyph glyph-name="uni1ECA" unicode="&#x1eca;" horiz-adv-x="258" 
d="M84 0v664h90v-664h-90zM128 -161q-31 0 -51 16q-21 17 -21 40q0 25 21 41q22 17 51 17t51 -17q21 -16 21 -41q0 -23 -21 -40q-20 -16 -51 -16z" />
    <glyph glyph-name="uni1ECB" unicode="&#x1ecb;" horiz-adv-x="230" 
d="M115 521q-31 0 -51 16q-21 17 -21 40q0 25 21 41q22 17 51 17t51 -17q21 -16 21 -41q0 -23 -21 -40q-20 -16 -51 -16zM71 0v474h88v-474h-88zM114 -161q-31 0 -51 16q-21 17 -21 40q0 25 21 41q22 17 51 17t51 -17q21 -16 21 -41q0 -23 -21 -40q-20 -16 -51 -16z" />
    <glyph glyph-name="uni1ECC" unicode="&#x1ecc;" horiz-adv-x="900" 
d="M450 -13q-74 0 -144 21q-70 19 -130 60q-60 39 -96 108q-37 68 -37 157q0 85 36 152q34 67 94 110q58 40 130 63q71 21 147 21t147 -21q72 -23 130 -63q59 -42 95 -110q35 -68 35 -152q0 -88 -36 -157q-38 -70 -97 -108q-60 -41 -130 -60q-70 -21 -144 -21zM450 76
q57 0 111 15q55 15 101 45q45 27 74 80q28 50 28 117q0 83 -48 144q-48 60 -117 87q-70 26 -149 26t-149 -26q-69 -27 -117 -87q-48 -61 -48 -144q0 -67 28 -117q29 -52 75 -80q47 -30 100 -45q54 -15 111 -15zM449 -161q-31 0 -51 16q-21 17 -21 40q0 25 21 41q22 17 51 17
t51 -17q21 -16 21 -41q0 -23 -21 -40q-20 -16 -51 -16z" />
    <glyph glyph-name="uni1ECD" unicode="&#x1ecd;" horiz-adv-x="732" 
d="M366 -13q-82 0 -153 25q-73 25 -124 84q-52 58 -52 141q0 81 51 140q50 59 123 84q73 26 155 26q81 0 156 -26q72 -25 123 -84q50 -59 50 -140q0 -83 -51 -141q-53 -59 -124 -84q-72 -25 -154 -25zM366 74q94 0 166 42t72 121q0 77 -71 121q-72 42 -167 42t-166 -42
q-72 -44 -72 -121q0 -79 72 -121t166 -42zM365 -161q-31 0 -51 16q-21 17 -21 40q0 25 21 41q22 17 51 17t51 -17q21 -16 21 -41q0 -23 -21 -40q-20 -16 -51 -16z" />
    <glyph glyph-name="uni1EE4" unicode="&#x1ee4;" horiz-adv-x="903" 
d="M451 -13q-158 0 -268 83q-111 82 -111 223v371h90v-363q0 -104 82 -164q82 -61 207 -61q126 0 208 61q82 60 82 164v363h90v-371q0 -140 -110 -223q-112 -83 -270 -83zM450 -161q-31 0 -51 16q-21 17 -21 40q0 25 21 41q22 17 51 17t51 -17q21 -16 21 -41q0 -23 -21 -40
q-20 -16 -51 -16z" />
    <glyph glyph-name="uni1EE5" unicode="&#x1ee5;" horiz-adv-x="765" 
d="M606 474h88v-474h-88v91q-44 -51 -113 -77q-69 -27 -147 -27q-120 0 -201 63t-81 175v249h88v-233q0 -83 56 -125q55 -43 150 -43q106 0 177 51q71 50 71 141v209zM385 -47q29 0 51 -17q21 -16 21 -41q0 -23 -21 -40q-20 -16 -51 -16t-51 16q-21 17 -21 40q0 25 21 41
q22 17 51 17z" />
    <glyph glyph-name="Ygrave" unicode="&#x1ef2;" horiz-adv-x="903" 
d="M496 711h-88l-121 136h111zM891 664l-394 -436v-228h-90v227l-395 437h119l321 -353l320 353h119z" />
    <glyph glyph-name="ygrave" unicode="&#x1ef3;" horiz-adv-x="733" 
d="M410 528h-88l-121 136h111zM629 474h103l-425 -659h-103l120 185l-323 474h104l270 -394z" />
    <glyph glyph-name="uni1EF8" unicode="&#x1ef8;" horiz-adv-x="903" 
d="M386 775q-13 4 -18 -7q-4 -11 -4 -57h-101q0 64 33 103t80 39q30 0 55 -13q30 -16 50 -32q23 -19 37 -25q5 -1 11 -1q4 0 7 8q2 8 3 21q1 9 1 36h101q0 -63 -33 -102t-80 -39q-30 0 -55 13q-30 16 -50 32q-27 19 -37 24zM891 664l-394 -436v-228h-90v227l-395 437h119
l321 -353l320 353h119z" />
    <glyph glyph-name="uni1EF9" unicode="&#x1ef9;" horiz-adv-x="733" 
d="M301 592q-13 4 -18 -7q-4 -11 -4 -57h-101q0 64 33 103t80 39q30 0 55 -13q30 -16 50 -32q23 -19 37 -25q5 -1 11 -1q4 0 7 8l3 21q1 9 1 36h101q0 -63 -33 -102t-80 -39q-30 0 -55 13q-30 16 -50 32q-27 19 -37 24zM629 474h103l-425 -659h-103l120 185l-323 474h104
l270 -394z" />
    <glyph glyph-name="endash" unicode="&#x2013;" horiz-adv-x="628" 
d="M64 217v88h500v-88h-500z" />
    <glyph glyph-name="emdash" unicode="&#x2014;" horiz-adv-x="1064" 
d="M64 217v88h936v-88h-936z" />
    <glyph glyph-name="quoteleft" unicode="&#x2018;" horiz-adv-x="227" 
d="M185 672v-40q-61 0 -90 -39q35 6 63 -10q27 -17 27 -44q0 -25 -21 -41q-22 -17 -51 -17q-32 0 -51 19q-21 18 -21 50q2 57 40 90q40 32 104 32z" />
    <glyph glyph-name="quoteright" unicode="&#x2019;" horiz-adv-x="227" 
d="M41 481v40q61 0 90 39q-36 -6 -62 10q-28 16 -28 44q0 24 21 41q22 17 51 17q31 0 52 -18q20 -20 20 -51q-2 -58 -40 -89q-39 -33 -104 -33z" />
    <glyph glyph-name="quotesinglbase" unicode="&#x201a;" horiz-adv-x="248" 
d="M52 -85v40q62 0 90 39q-36 -6 -62 10q-28 16 -28 44q0 24 21 41q22 17 51 17q31 0 52 -18q20 -20 20 -51q-2 -58 -40 -89q-39 -33 -104 -33z" />
    <glyph glyph-name="quotereversed" unicode="&#x201b;" horiz-adv-x="227" 
d="M185 481q-65 0 -104 33q-38 31 -40 89q0 31 21 51q20 18 51 18q29 0 51 -17q21 -17 21 -41q0 -28 -27 -44q-28 -16 -63 -10q29 -39 90 -39v-40z" />
    <glyph glyph-name="quotedblleft" unicode="&#x201c;" horiz-adv-x="400" 
d="M185 672v-40q-61 0 -90 -39q35 6 63 -10q27 -17 27 -44q0 -25 -21 -41q-22 -17 -51 -17q-32 0 -51 19q-21 18 -21 50q2 57 40 90q40 32 104 32zM358 672v-40q-62 0 -90 -39q35 6 63 -10q27 -17 27 -44q0 -25 -21 -41q-22 -17 -51 -17q-32 0 -51 19q-21 18 -21 50
q2 57 40 90q40 32 104 32z" />
    <glyph glyph-name="quotedblright" unicode="&#x201d;" horiz-adv-x="400" 
d="M41 481v40q61 0 90 39q-36 -6 -62 10q-28 16 -28 44q0 24 21 41q22 17 51 17q31 0 52 -18q20 -20 20 -51q-2 -58 -40 -89q-39 -33 -104 -33zM214 481v40q62 0 90 39q-36 -6 -62 10q-28 16 -28 44q0 24 21 41q22 17 51 17q31 0 52 -18q20 -20 20 -51q-2 -58 -40 -89
q-39 -33 -104 -33z" />
    <glyph glyph-name="quotedblbase" unicode="&#x201e;" horiz-adv-x="421" 
d="M52 -85v40q62 0 90 39q-36 -6 -62 10q-28 16 -28 44q0 24 21 41q22 17 51 17q31 0 52 -18q20 -20 20 -51q-2 -58 -40 -89q-39 -33 -104 -33zM225 -85v40q61 0 90 39q-36 -6 -62 10q-28 16 -28 44q0 24 21 41q22 17 51 17q31 0 52 -18q20 -20 20 -51q-2 -58 -40 -89
q-39 -33 -104 -33z" />
    <glyph glyph-name="uni201F" unicode="&#x201f;" horiz-adv-x="400" 
d="M185 481q-65 0 -104 33q-38 31 -40 89q0 31 21 51q20 18 51 18q29 0 51 -17q21 -17 21 -41q0 -28 -27 -44q-28 -16 -63 -10q29 -39 90 -39v-40zM358 481q-65 0 -104 33q-38 31 -40 89q0 31 21 51q19 18 51 18q29 0 51 -17q21 -17 21 -41q0 -28 -27 -44q-28 -16 -63 -10
q28 -39 90 -39v-40z" />
    <glyph glyph-name="dagger" unicode="&#x2020;" horiz-adv-x="710" 
d="M658 490v-90l-268 6l11 -406h-92l11 406l-268 -6v90l268 -6l-11 180h92l-11 -180z" />
    <glyph glyph-name="daggerdbl" unicode="&#x2021;" horiz-adv-x="710" 
d="M309 0l11 180l-268 -6v90l268 -6v148l-268 -6v90l268 -6l-11 180h92l-11 -180l268 6v-90l-268 6v-148l268 6v-90l-268 6l11 -180h-92z" />
    <glyph glyph-name="bullet" unicode="&#x2022;" horiz-adv-x="574" 
d="M285 -13q-102 0 -175 73t-73 175q0 106 73 179t175 73q106 0 179 -73t73 -179q0 -102 -73 -175t-179 -73z" />
    <glyph glyph-name="ellipsis" unicode="&#x2026;" horiz-adv-x="744" 
d="M124 -8q-31 0 -51 16q-21 17 -21 40q0 24 21 41q22 17 51 17t51 -17q21 -17 21 -41t-21 -40q-20 -16 -51 -16zM372 -8q-31 0 -51 16q-21 17 -21 40q0 24 21 41q22 17 51 17t51 -17q21 -17 21 -41t-21 -40q-20 -16 -51 -16zM620 -8q-31 0 -51 16q-21 16 -21 40t21 41
q22 17 51 17t51 -17q21 -17 21 -41t-21 -40q-20 -16 -51 -16z" />
    <glyph glyph-name="perthousand" unicode="&#x2030;" horiz-adv-x="1500" 
d="M248 292q-93 0 -154 55q-62 54 -62 136q0 83 62 139q61 55 154 55q92 0 153 -55q62 -56 62 -139q0 -82 -61 -136q-61 -55 -154 -55zM327 0l298 664h75l-298 -664h-75zM248 368q62 0 102 33t40 83q0 49 -41 84q-40 33 -101 33q-62 0 -102 -33q-41 -35 -41 -84t41 -82
q40 -34 102 -34zM779 -13q-92 0 -153 55q-62 56 -62 137q0 82 62 138q61 55 153 55q93 0 154 -55t61 -138q0 -82 -61 -137t-154 -55zM1253 -13q-92 0 -153 55q-62 56 -62 137q0 82 62 138q61 55 153 55q93 0 154 -55t61 -138q0 -82 -61 -137t-154 -55zM779 63q61 0 102 33
q40 33 40 83t-40 84q-41 33 -102 33t-101 -33q-41 -35 -41 -84t41 -82q40 -34 101 -34zM1253 63q61 0 102 33q40 33 40 83t-40 84q-41 33 -102 33t-101 -33q-41 -35 -41 -84t41 -82q40 -34 101 -34z" />
    <glyph glyph-name="minute" unicode="&#x2032;" horiz-adv-x="188" 
d="M49 338l-8 326h105l-22 -326h-75z" />
    <glyph glyph-name="second" unicode="&#x2033;" horiz-adv-x="376" 
d="M49 338l-8 326h105l-22 -326h-75zM237 338l-8 326h105l-22 -326h-75z" />
    <glyph glyph-name="uni2034" unicode="&#x2034;" horiz-adv-x="564" 
d="M49 338l-8 326h105l-22 -326h-75zM237 338l-8 326h105l-22 -326h-75zM425 338l-8 326h105l-22 -326h-75z" />
    <glyph glyph-name="guilsinglleft" unicode="&#x2039;" horiz-adv-x="387" 
d="M280 -13l-250 250l250 250l63 -63l-190 -187l190 -187z" />
    <glyph glyph-name="guilsinglright" unicode="&#x203a;" horiz-adv-x="387" 
d="M107 -13l-63 63l190 187l-190 187l63 63l250 -250z" />
    <glyph glyph-name="fraction" unicode="&#x2044;" horiz-adv-x="293" 
d="M258 664h75l-298 -664h-75z" />
    <glyph glyph-name="Euro" unicode="&#x20ac;" horiz-adv-x="825" 
d="M722 178l68 -62q-59 -65 -148 -96q-92 -33 -187 -33q-81 0 -159 23q-77 23 -142 77q-64 54 -93 132h-61v86h44q-1 6 -1 28q0 21 1 26h-44v86h61q25 75 89 130q62 53 141 79q76 25 164 25q100 0 187 -34q88 -35 138 -99l-58 -78q-37 60 -109 91q-71 31 -161 31
q-102 0 -178 -38q-75 -38 -112 -107h386v-86h-411q-1 -5 -1 -26q0 -22 1 -28h411v-86h-385q36 -68 112 -105q78 -38 180 -38q83 0 154 27q69 25 113 75z" />
    <glyph glyph-name="uni20BA" unicode="&#x20ba;" horiz-adv-x="626" 
d="M490 346h93q0 -72 -24 -130q-27 -61 -65 -98q-40 -39 -93 -66q-52 -28 -111 -40q-57 -12 -116 -12h-90v270l-83 -48v100l83 48v41l-84 -48v100l84 48v153h90v-101l175 101v-100l-175 -101v-41l176 101v-100l-176 -101v-233q58 0 112 15q52 13 101 43q47 29 75 81
q28 50 28 118z" />
    <glyph glyph-name="uni20BD" unicode="&#x20bd;" horiz-adv-x="827" 
d="M174 251v-48h376v-86h-376v-117h-90v117h-84v86h84v48h-84v88h84v325q119 7 360 7q355 0 355 -213q0 -108 -90 -157q-91 -50 -265 -50h-270zM174 578v-239h270q143 0 203 30q59 29 59 89q0 62 -61 93t-201 31q-163 0 -270 -4z" />
    <glyph glyph-name="uni2116" unicode="&#x2116;" horiz-adv-x="1691" 
d="M1319 679q81 0 156 -26q72 -25 123 -84q50 -59 50 -140q0 -83 -51 -141q-53 -59 -124 -84q-72 -25 -154 -25t-153 25q-73 25 -124 84q-52 58 -52 141q0 81 51 140q49 59 123 84q73 26 155 26zM785 105v559h90v-664h-109l-592 560v-560h-90v664h110zM1319 266q94 0 166 42
t72 121q0 77 -71 121q-72 42 -167 42t-166 -42q-72 -44 -72 -121q0 -79 72 -121t166 -42zM1319 106q29 0 51 -17q21 -17 21 -41t-21 -40q-20 -16 -51 -16t-51 16q-21 17 -21 40q0 24 21 41q22 17 51 17z" />
    <glyph glyph-name="trademark" unicode="&#x2122;" horiz-adv-x="1212" 
d="M18 580v84h452v-84h-182v-331h-88v331h-182zM1034 664h94v-415h-84v278l-179 -278h-67l-179 278v-278h-84v415h94l202 -319z" />
    <glyph glyph-name="Omega" unicode="&#x2126;" horiz-adv-x="897" 
d="M854 355q0 -89 -45 -156q-46 -70 -120 -110h111v-89h-287v40l-2 49q103 6 177 81q73 73 73 167q0 115 -92 184q-92 68 -221 68q-128 0 -220 -68q-92 -69 -92 -184q0 -94 73 -167q74 -75 176 -81l-1 -49v-40h-289v89h113q-74 40 -120 110q-45 67 -45 156q0 76 36 139
q35 62 93 102q58 38 130 61q71 21 146 21q100 0 192 -36t153 -111q61 -76 61 -176z" />
    <glyph glyph-name="estimated" unicode="&#x212e;" horiz-adv-x="842" 
d="M421 -13q-169 0 -273 94q-105 95 -105 251q0 155 106 251q106 95 272 95q170 0 271 -92q99 -92 107 -264h-601q-8 0 -11 -3q-4 -3 -4 -14v-169q0 -34 71 -78t167 -44q70 0 133 31q64 30 107 79h70q-69 -77 -137 -107q-69 -30 -173 -30zM198 344h444q11 0 14 4q3 3 3 12
v166q0 42 -79 85t-160 43q-90 0 -163 -46q-74 -47 -74 -75v-180q0 -9 15 -9z" />
    <glyph glyph-name="uni2153" unicode="&#x2153;" horiz-adv-x="1654" 
d="M664 212v-70h-519l-16 70h233v298q-44 -64 -120 -104q-78 -43 -176 -56l-36 70q137 10 229 77q89 66 103 167h71v-452h231zM944 664h75l-298 -664h-75zM1464 277q155 -41 155 -141q0 -66 -84 -107q-85 -42 -194 -42q-275 0 -329 135l70 20q40 -85 247 -85q94 0 157 26
q60 25 60 62q0 43 -73 68q-72 25 -195 25h-56l-16 68h63q105 0 176 24q69 24 69 61q0 30 -51 51t-136 21q-89 0 -152 -20q-61 -19 -78 -56l-67 33q25 54 109 85q84 29 188 29q107 0 184 -36q76 -37 76 -100q0 -38 -33 -69q-32 -32 -90 -52z" />
    <glyph glyph-name="uni2154" unicode="&#x2154;" horiz-adv-x="1615" 
d="M611 496q0 -75 -89 -143q-88 -67 -270 -138h342v-70h-519l-14 70q251 83 364 155q112 70 112 126q0 45 -59 80q-58 33 -147 33q-93 0 -159 -36q-66 -37 -66 -85q0 -32 47 -70l-43 -57q-77 60 -77 127q0 81 89 137q88 54 209 54q115 0 198 -51q82 -51 82 -132zM905 664h75
l-298 -664h-75zM1425 277q155 -41 155 -141q0 -66 -84 -107q-86 -42 -194 -42q-275 0 -329 135l70 20q40 -85 247 -85q94 0 157 26q60 25 60 62q0 43 -73 68q-72 25 -195 25h-56l-16 68h63q106 0 176 24q69 24 69 61q0 30 -51 51t-136 21q-89 0 -152 -20q-61 -19 -78 -56
l-67 33q25 54 109 85q84 29 188 29q108 0 184 -36q76 -37 76 -100q0 -38 -33 -69q-32 -32 -90 -52z" />
    <glyph glyph-name="oneeighth" unicode="&#x215b;" horiz-adv-x="1674" 
d="M664 212v-70h-519l-16 70h233v298q-44 -64 -120 -104q-78 -43 -176 -56l-36 70q137 10 229 77q89 66 103 167h71v-452h231zM944 664h75l-298 -664h-75zM1494 281q68 -21 108 -56q38 -36 38 -81q0 -70 -90 -113q-93 -44 -224 -44q-130 0 -223 44q-91 43 -91 113
q0 45 39 81q38 35 107 56q-114 44 -114 116q0 59 82 98q84 38 200 38q117 0 201 -38q82 -39 82 -98q0 -73 -115 -116zM1117 390q0 -33 60 -54q59 -21 149 -21t150 21q59 21 59 54q0 34 -62 54q-60 19 -147 19t-147 -19q-62 -20 -62 -54zM1326 57q103 0 172 28t69 67
q0 38 -71 67q-71 28 -170 28q-98 0 -169 -28q-72 -29 -72 -67q0 -39 70 -67q69 -28 171 -28z" />
    <glyph glyph-name="threeeighths" unicode="&#x215c;" horiz-adv-x="1663" 
d="M485 422q155 -41 155 -141q0 -67 -84 -107q-86 -42 -194 -42q-275 0 -329 135l70 20q40 -85 247 -85q94 0 157 26q60 26 60 62q0 43 -73 68q-72 25 -195 25h-56l-16 68h63q106 0 176 24q69 24 69 61q0 30 -51 51t-136 21q-89 0 -152 -20q-61 -19 -78 -56l-67 33
q25 54 109 85q84 29 188 29q108 0 184 -36q76 -37 76 -100q0 -37 -33 -69q-32 -32 -90 -52zM933 664h75l-298 -664h-75zM1483 281q68 -21 108 -56q38 -36 38 -81q0 -70 -90 -113q-93 -44 -224 -44q-130 0 -223 44q-91 43 -91 113q0 45 39 81q38 35 107 56q-114 44 -114 116
q0 59 82 98q84 38 200 38q117 0 201 -38q82 -39 82 -98q0 -73 -115 -116zM1106 390q0 -33 60 -54q58 -21 149 -21q90 0 150 21q59 21 59 54q0 34 -62 54q-60 19 -147 19t-147 -19q-62 -20 -62 -54zM1315 57q103 0 172 28t69 67q0 38 -71 67q-71 28 -170 28q-98 0 -169 -28
q-72 -29 -72 -67q0 -39 70 -67q69 -28 171 -28z" />
    <glyph glyph-name="fiveeighths" unicode="&#x215d;" horiz-adv-x="1655" 
d="M366 506q121 0 194 -49t73 -132q0 -88 -86 -142q-87 -54 -217 -54q-98 0 -178 28q-82 29 -126 73l54 47q39 -36 105 -57t145 -21q106 0 167 36q62 36 62 93q0 50 -55 80q-56 29 -140 29q-166 0 -244 -89l-67 23l57 293h491v-71h-433l-32 -163q94 76 230 76zM925 664h75
l-298 -664h-75zM1475 281q68 -21 108 -56q38 -36 38 -81q0 -70 -90 -113q-93 -44 -224 -44q-130 0 -223 44q-91 43 -91 113q0 45 39 81q38 35 107 56q-114 44 -114 116q0 59 82 98q84 38 200 38q117 0 201 -38q82 -39 82 -98q0 -73 -115 -116zM1098 390q0 -33 60 -54
q58 -21 149 -21q90 0 150 21q59 21 59 54q0 34 -62 54q-60 19 -147 19t-147 -19q-62 -20 -62 -54zM1307 57q103 0 172 28t69 67q0 38 -71 67q-71 28 -170 28q-98 0 -169 -28q-72 -29 -72 -67q0 -39 70 -67q69 -28 171 -28z" />
    <glyph glyph-name="seveneighths" unicode="&#x215e;" horiz-adv-x="1499" 
d="M632 594q-84 -8 -155 -40q-73 -33 -128 -88t-84 -139q-30 -85 -23 -185h-75q-7 150 61 270q67 118 185 182h-394v70h613v-70zM769 664h75l-298 -664h-75zM1319 281q68 -21 108 -56q38 -36 38 -81q0 -70 -90 -113q-93 -44 -224 -44q-130 0 -223 44q-91 43 -91 113
q0 45 39 81q38 35 107 56q-114 44 -114 116q0 59 82 98q84 38 200 38q117 0 201 -38q82 -39 82 -98q0 -73 -115 -116zM942 390q0 -33 60 -54q58 -21 149 -21q90 0 150 21q59 21 59 54q0 34 -62 54q-60 19 -147 19t-147 -19q-62 -20 -62 -54zM1151 57q103 0 172 28t69 67
q0 38 -71 67q-71 28 -170 28q-98 0 -169 -28q-72 -29 -72 -67q0 -39 70 -67q69 -28 171 -28z" />
    <glyph glyph-name="uni2170" unicode="&#x2170;" horiz-adv-x="617" 
d="M575 575h-224v-486h224v-89h-532v89h218v486h-218v89h532v-89z" />
    <glyph glyph-name="uni2171" unicode="&#x2171;" horiz-adv-x="837" 
d="M794 575h-224v-486h224v-89h-751v89h218v486h-218v89h751v-89zM480 575h-129v-486h129v486z" />
    <glyph glyph-name="uni2172" unicode="&#x2172;" horiz-adv-x="1056" 
d="M1013 575h-223v-486h223v-89h-980v89h228v486h-228v89h980v-89zM480 575h-129v-486h129v486zM700 575h-130v-486h130v486z" />
    <glyph glyph-name="uni2173" unicode="&#x2173;" horiz-adv-x="1434" 
d="M1393 575h-188l-268 -486h456v-89h-1352v89h219v486h-219v89h1352v-89zM734 89l-268 486h-116v-486h384zM1104 575h-537l268 -489z" />
    <glyph glyph-name="uni2174" unicode="&#x2174;" horiz-adv-x="1200" 
d="M1157 575h-186l-268 -486h454v-89l-1114 1v88h454l-268 486h-186v90l1114 -1v-89zM869 575h-537l269 -490z" />
    <glyph glyph-name="uni2175" unicode="&#x2175;" horiz-adv-x="1437" 
d="M1394 575h-218v-486h218v-89h-1351v89h455l-268 486h-187v89h1351v-89zM869 575h-538l270 -490zM1086 575h-116l-268 -486h384v486z" />
    <glyph glyph-name="uni2176" unicode="&#x2176;" horiz-adv-x="1656" 
d="M1613 575h-218v-486h218v-89h-1570v89h455l-268 486h-187v89h1570v-89zM869 575h-538l270 -490zM1086 575h-116l-268 -486h384v486zM1305 575h-129v-486h129v486z" />
    <glyph glyph-name="uni2177" unicode="&#x2177;" horiz-adv-x="1875" 
d="M1833 575h-219v-486h219v-89h-1790v89h455l-268 486h-187v89h1790v-89zM869 575h-538l270 -490zM1086 575h-116l-268 -486h384v486zM1305 575h-129v-486h129v486zM1524 575h-129v-486h129v486z" />
    <glyph glyph-name="uni2178" unicode="&#x2178;" horiz-adv-x="1387" 
d="M1168 575l-276 -225l319 -261h133v-89h-1301v89h218v486h-218v89h1301v-89h-176zM745 350l-276 225h-118v-486h75zM819 400l212 175h-425zM819 299l-255 -210h509z" />
    <glyph glyph-name="uni2179" unicode="&#x2179;" horiz-adv-x="1138" 
d="M918 575l-276 -225l319 -261h135v-89h-1053v89h133l319 261l-276 225h-176v89h1053v-89h-178zM569 400l212 175h-425zM569 299l-255 -210h509z" />
    <glyph glyph-name="uni217A" unicode="&#x217a;" horiz-adv-x="1387" 
d="M1344 575h-218v-486h218v-89h-1301v89h133l319 261l-276 225h-176v89h1301v-89zM569 400l212 175h-425zM1036 575h-118l-276 -225l319 -261h75v486zM569 299l-255 -210h509z" />
    <glyph glyph-name="uni217B" unicode="&#x217b;" horiz-adv-x="1607" 
d="M43 0v89h133l318 260l-276 226h-175v89h1521v-89h-219v-486h219v-89h-1521zM569 399l212 176h-425zM961 89h75v486h-117l-276 -226zM1126 89h129v486h-129v-486zM314 89h509l-254 210z" />
    <glyph glyph-name="arrowleft" unicode="&#x2190;" horiz-adv-x="1060" 
d="M996 377v-89h-668q145 -88 145 -259h-87q0 116 -87 188q-88 71 -235 71v89q148 0 235 72q88 72 86 188h88q0 -171 -146 -260h669z" />
    <glyph glyph-name="arrowup" unicode="&#x2191;" horiz-adv-x="753" 
d="M422 664q0 -148 72 -234q71 -86 188 -86v-91q-173 0 -260 149v-402h-91l1 402q-89 -149 -261 -149v92q116 -1 189 85q71 86 72 233v1h90z" />
    <glyph glyph-name="arrowright" unicode="&#x2192;" horiz-adv-x="1060" 
d="M675 637q-2 -116 86 -188q87 -72 235 -72v-89q-147 0 -235 -71q-87 -72 -87 -188h-87q0 171 145 259h-668v89h669q-146 89 -146 260h88z" />
    <glyph glyph-name="arrowdown" unicode="&#x2193;" horiz-adv-x="753" 
d="M422 262q87 149 260 149v-91q-117 0 -188 -86q-72 -86 -72 -234h-90v1q-2 149 -72 234q-72 85 -189 84v92q172 0 261 -149l-1 402h91v-402z" />
    <glyph glyph-name="arrowboth" unicode="&#x2194;" horiz-adv-x="1423" 
d="M1037 636q0 -115 87 -187t235 -72v-89q-149 0 -235 -73q-87 -73 -87 -188h-87q0 185 162 261h-801q162 -76 162 -261h-87q0 114 -86 188q-86 73 -236 73v89q149 0 236 72q86 72 86 187h87q0 -182 -161 -259h800q-162 77 -162 259h87z" />
    <glyph glyph-name="uni2196" unicode="&#x2196;" horiz-adv-x="827" 
d="M756 60l-62 -66l-438 438q22 -77 2 -155q-19 -75 -81 -137l-62 65q83 79 72 192q-10 112 -116 216l20 21l44 45q103 -103 218 -114q113 -11 193 72l63 -65q-121 -121 -286 -80z" />
    <glyph glyph-name="uni2197" unicode="&#x2197;" horiz-adv-x="827" 
d="M756 613q-106 -104 -116 -216q-10 -113 72 -192l-62 -65q-62 62 -81 137q-20 78 2 155l-438 -438l-62 66l433 432q-165 -41 -286 80l63 65q80 -83 194 -72t217 114l44 -45z" />
    <glyph glyph-name="uni2198" unicode="&#x2198;" horiz-adv-x="827" 
d="M756 65l-20 -21l-44 -45q-103 103 -217 114t-194 -72l-63 65q121 121 286 80l-433 432l62 66l438 -438q-22 77 -2 155q19 75 81 137l62 -65q-82 -79 -72 -191q11 -113 116 -217z" />
    <glyph glyph-name="uni2199" unicode="&#x2199;" horiz-adv-x="827" 
d="M323 186q165 41 286 -80l-63 -65q-80 83 -193 72q-115 -11 -218 -114l-44 45l-20 21q105 104 116 217q10 112 -72 191l62 65q62 -62 81 -137q20 -78 -2 -155l438 438l62 -66z" />
    <glyph glyph-name="uni21B3" unicode="&#x21b3;" horiz-adv-x="1081" 
d="M696 637q-2 -116 86 -188q87 -72 235 -72v-89q-147 0 -235 -71q-87 -72 -87 -188h-87q0 171 145 259h-668l-1 349h90v-260h580q-146 89 -146 260h88z" />
    <glyph glyph-name="partialdiff" unicode="&#x2202;" horiz-adv-x="893" 
d="M494 678q78 0 144 -22q70 -23 121 -64q52 -41 76 -111q24 -69 9 -155q-15 -84 -63 -152q-47 -66 -115 -107t-142 -60q-78 -20 -154 -20q-151 0 -246 67q-96 67 -78 167q16 97 126 150q108 52 242 52q208 0 327 -137q9 30 10 40q12 65 -7 117q-19 50 -61 83q-38 30 -93 47
q-51 16 -112 16q-69 0 -141 -23q-70 -22 -111 -62l-73 44q59 62 156 97q96 33 185 33zM385 76q98 0 182 34q85 33 134 99q-48 64 -116 96q-69 30 -175 30q-113 0 -187 -31t-85 -87q-10 -59 61 -100t186 -41z" />
    <glyph glyph-name="emptyset" unicode="&#x2205;" horiz-adv-x="750" 
d="M707 512l-55 -40q52 -59 52 -142q0 -82 -51 -141q-53 -59 -124 -84q-72 -25 -154 -25q-111 0 -200 47l-82 -60l-50 68l62 45q-59 62 -59 150q0 81 51 140q49 58 123 84q73 26 155 26q119 0 210 -52l72 52zM137 330q0 -56 41 -97l326 236q-58 24 -129 24q-95 0 -166 -42
q-72 -43 -72 -121zM613 330q0 52 -34 89l-322 -233q53 -19 118 -19q94 0 166 42t72 121z" />
    <glyph glyph-name="Delta" unicode="&#x2206;" horiz-adv-x="676" 
d="M6 0l332 664l332 -664h-664zM71 41h534l-267 531z" />
    <glyph glyph-name="product" unicode="&#x220f;" horiz-adv-x="765" 
d="M737 664v-89h-177v-717h-90v717h-176v-717h-90v717h-176v89h709z" />
    <glyph glyph-name="summation" unicode="&#x2211;" horiz-adv-x="590" 
d="M543 -142l-515 4l278 400l-270 402h507v-86h-345l216 -317l-222 -314l352 -3z" />
    <glyph glyph-name="minus" unicode="&#x2212;" horiz-adv-x="650" 
d="M64 217v88h522v-88h-522z" />
    <glyph glyph-name="uni2215" unicode="&#x2215;" horiz-adv-x="254" 
d="M80 -142h-92l186 913h92z" />
    <glyph glyph-name="uni2219" unicode="&#x2219;" horiz-adv-x="574" 
d="M285 -13q-102 0 -175 73t-73 175q0 106 73 179t175 73q106 0 179 -73t73 -179q0 -102 -73 -175t-179 -73z" />
    <glyph glyph-name="radical" unicode="&#x221a;" horiz-adv-x="705" 
d="M709 759v-89h-258l-73 -813h-116l-38 431h-160v88h230l25 -367l52 750h338z" />
    <glyph glyph-name="infinity" unicode="&#x221e;" horiz-adv-x="951" 
d="M692 398q84 0 140 -38q55 -39 55 -99q0 -59 -56 -98q-57 -39 -139 -39q-64 0 -112 22q-48 20 -105 59q-57 -40 -104 -60q-49 -21 -112 -21q-83 0 -138 39q-57 39 -57 98q0 60 55 99q56 38 140 38q63 0 112 -21q49 -23 105 -60q56 39 105 60t111 21zM254 214q67 0 141 47
q-74 47 -141 47q-42 0 -68 -14q-25 -13 -25 -33t25 -33q26 -14 68 -14zM697 214q42 0 68 14q25 13 25 33t-25 33q-26 14 -68 14q-67 0 -141 -47q74 -47 141 -47z" />
    <glyph glyph-name="integral" unicode="&#x222b;" horiz-adv-x="529" 
d="M219 448q0 66 47 121q47 53 118 81q70 27 150 27v-91q-95 0 -159 -43q-65 -44 -65 -113v-41l1 -312q0 -66 -47 -121q-46 -53 -118 -81q-69 -28 -150 -28l-1 90q95 2 161 45q65 44 65 112v105z" />
    <glyph glyph-name="approxequal" unicode="&#x2248;" horiz-adv-x="792" 
d="M559 225q-49 0 -94 22q-44 20 -76 47q-34 27 -71 48q-40 21 -78 21q-39 0 -70 -20q-31 -19 -31 -49h-75q0 68 49 116t121 48q37 0 76 -14q35 -15 65 -35q51 -38 56 -41q30 -21 59 -34q32 -15 63 -15q41 0 72 20q29 20 29 51h74q0 -71 -47 -118q-49 -47 -122 -47zM559 65
q-49 0 -94 22q-45 21 -76 48q-34 27 -71 48q-40 21 -78 21q-39 0 -70 -20q-31 -21 -31 -49h-75q0 68 49 116q50 47 121 47q48 0 94 -21q44 -22 76 -48q31 -26 71 -47q40 -22 78 -22q41 0 72 20q29 20 29 51h74q0 -71 -47 -118q-48 -48 -122 -48z" />
    <glyph glyph-name="notequal" unicode="&#x2260;" horiz-adv-x="650" 
d="M586 305h-190l-43 -89h233v-88h-276l-80 -166l-81 38l62 128h-147v88h190l43 89h-233v88h275l81 167l81 -38l-62 -129h147v-88z" />
    <glyph glyph-name="lessequal" unicode="&#x2264;" horiz-adv-x="610" 
d="M568 132l-528 279l528 278v-99l-340 -179l340 -180v-99zM47 0v89h522v-89h-522z" />
    <glyph glyph-name="greaterequal" unicode="&#x2265;" horiz-adv-x="610" 
d="M42 132v99l340 180l-340 179v99l528 -278zM563 0h-522v89h522v-89z" />
    <glyph glyph-name="circleplus" unicode="&#x2295;" horiz-adv-x="778" 
d="M389 679q142 0 245 -101q101 -103 101 -245q0 -143 -101 -244q-102 -102 -245 -102t-244 102q-102 101 -102 244t102 245q101 101 244 101zM389 28q126 0 217 89q89 89 89 216t-89 216q-91 89 -217 89q-127 0 -216 -89q-90 -89 -90 -216t90 -216q89 -89 216 -89zM409 353
h223v-40h-223v-221h-40v221h-223v40h223v222h40v-222z" />
    <glyph glyph-name="uni2296" unicode="&#x2296;" horiz-adv-x="778" 
d="M389 -13q-143 0 -244 102q-102 101 -102 244t102 245q101 101 244 101q142 0 245 -101q101 -103 101 -245q0 -143 -101 -244q-102 -102 -245 -102zM389 28q126 0 217 89q89 89 89 216t-89 216q-91 89 -217 89q-127 0 -216 -89q-90 -89 -90 -216t90 -216q89 -89 216 -89z
M146 313v40h486v-40h-486z" />
    <glyph glyph-name="circlemultiply" unicode="&#x2297;" horiz-adv-x="778" 
d="M389 679q142 0 245 -101q101 -103 101 -245q0 -143 -101 -244q-102 -102 -245 -102t-244 102q-102 101 -102 244t102 245q101 101 244 101zM389 28q126 0 217 89q89 89 89 216t-89 216q-91 89 -217 89q-127 0 -216 -89q-90 -89 -90 -216t90 -216q89 -89 216 -89zM547 518
l28 -28l-158 -157l158 -157l-28 -28l-158 157l-158 -157l-28 28l158 157l-158 157l28 28l158 -157z" />
    <glyph glyph-name="uni24FF" unicode="&#x24ff;" 
d="M500 -13q-84 0 -162 22q-76 20 -146 62q-67 40 -108 110q-41 68 -41 152q0 81 40 148q40 66 106 110q67 43 147 65q81 23 164 23q82 0 165 -23q79 -22 146 -65q66 -44 106 -110q40 -67 40 -148q0 -84 -41 -152q-41 -70 -108 -110q-70 -42 -146 -62q-78 -22 -162 -22z
M500 124q61 0 115 21q54 19 93 69q38 50 38 119q0 99 -74 155q-73 54 -172 54q-98 0 -172 -54q-74 -56 -74 -155q0 -69 39 -119q37 -49 92 -69q54 -21 115 -21zM500 178q-76 0 -133 39q-57 38 -57 116q0 76 57 116q56 40 133 40t133 -40q57 -40 57 -116q0 -78 -57 -116
q-57 -39 -133 -39z" />
    <glyph glyph-name="filledbox" unicode="&#x25a0;" horiz-adv-x="732" 
d="M84 50v564h564v-564h-564z" />
    <glyph glyph-name="uni25A1" unicode="&#x25a1;" horiz-adv-x="732" 
d="M84 50v564h564v-564h-564zM124 91h484v482h-484v-482z" />
    <glyph glyph-name="triagup" unicode="&#x25b2;" horiz-adv-x="676" 
d="M6 0l332 664l332 -664h-664z" />
    <glyph glyph-name="uni25B3" unicode="&#x25b3;" horiz-adv-x="676" 
d="M6 0l332 664l332 -664h-664zM71 41h534l-267 531z" />
    <glyph glyph-name="uni25B6" unicode="&#x25b6;" horiz-adv-x="778" 
d="M84 664l664 -332l-664 -332v664z" />
    <glyph glyph-name="uni25B7" unicode="&#x25b7;" horiz-adv-x="778" 
d="M84 0v664l664 -332zM124 66l534 266l-534 266v-532z" />
    <glyph glyph-name="triagdn" unicode="&#x25bc;" horiz-adv-x="676" 
d="M6 664h664l-332 -664z" />
    <glyph glyph-name="uni25BD" unicode="&#x25bd;" horiz-adv-x="676" 
d="M338 0l-332 664h664zM338 92l267 531h-534z" />
    <glyph glyph-name="uni25C0" unicode="&#x25c0;" horiz-adv-x="778" 
d="M694 664v-664l-664 332z" />
    <glyph glyph-name="uni25C1" unicode="&#x25c1;" horiz-adv-x="778" 
d="M694 0l-664 332l664 332v-664zM654 66v532l-534 -266z" />
    <glyph glyph-name="uni25C6" unicode="&#x25c6;" horiz-adv-x="775" 
d="M745 332l-359 -357l-356 357l357 358z" />
    <glyph glyph-name="uni25C7" unicode="&#x25c7;" horiz-adv-x="775" 
d="M386 -25l-356 357l357 358l358 -358zM386 33l302 299l-301 300l-301 -300z" />
    <glyph glyph-name="lozenge" unicode="&#x25ca;" horiz-adv-x="625" 
d="M293 -26l-263 358l263 358h40l262 -358l-262 -358h-40zM313 15l232 317l-232 317l-233 -317z" />
    <glyph glyph-name="circle" unicode="&#x25cb;" horiz-adv-x="776" 
d="M386 -13q-141 0 -242 101t-101 242q0 143 101 246q101 101 242 101q145 0 246 -101q101 -103 101 -246q0 -141 -101 -242q-103 -101 -246 -101zM386 28q129 0 218 88q89 89 89 214q0 126 -89 217q-91 89 -218 89q-125 0 -214 -89q-89 -91 -89 -217q0 -124 89 -213
t214 -89z" />
    <glyph glyph-name="uni25CF" unicode="&#x25cf;" horiz-adv-x="776" 
d="M386 -13q-141 0 -242 101t-101 242q0 143 101 246q101 101 242 101q145 0 246 -101q101 -103 101 -246q0 -141 -101 -242q-103 -101 -246 -101z" />
    <glyph glyph-name="uni2609" unicode="&#x2609;" horiz-adv-x="778" 
d="M735 353v-40h-272l235 -136l-20 -34l-235 135l136 -235l-34 -20l-136 234v-270h-40v270l-136 -234l-34 20l136 236l-236 -136l-20 34l235 136h-271v40h271l-235 136l20 34l236 -136l-136 236l34 20l136 -234v270h40v-270l136 234l34 -20l-136 -235l235 135l20 -34
l-235 -136h272z" />
    <glyph glyph-name="uni2610" unicode="&#x2610;" horiz-adv-x="914" 
d="M84 0v664h58v26h688v-648h-82v-42h-664zM127 42h581v580h-581v-580z" />
    <glyph glyph-name="uni2611" unicode="&#x2611;" horiz-adv-x="914" 
d="M84 0v664h60v26h686v-649h-82v-41h-664zM124 41h584v582h-584v-582zM332 95l-163 204l31 26l131 -164l291 382l32 -25z" />
    <glyph glyph-name="uni2612" unicode="&#x2612;" horiz-adv-x="914" 
d="M84 0v664h60v26h686v-649h-82v-41h-664zM416 361l264 262h-528zM124 69l264 263l-264 263v-526zM708 69v526l-264 -263zM152 41h528l-264 262z" />
    <glyph glyph-name="smileface" unicode="&#x263a;" horiz-adv-x="786" 
d="M391 677q145 0 249 -101q103 -102 103 -246q0 -142 -103 -242q-104 -101 -249 -101q-141 0 -245 101q-103 100 -103 242q0 143 103 245q104 102 245 102zM391 20q130 0 222 91q92 92 92 219q0 130 -92 222q-94 92 -222 92q-126 0 -218 -92t-92 -222q0 -127 92 -219
q91 -91 218 -91zM314 333q-20 0 -34 29q-14 30 -14 70q0 39 14 69q13 28 34 28q20 0 35 -28q14 -30 14 -69q0 -40 -14 -70q-15 -29 -35 -29zM467 333q-20 0 -34 29q-14 30 -14 70q0 39 14 69q13 28 34 28q20 0 35 -28q14 -30 14 -69q0 -40 -14 -70q-15 -29 -35 -29zM584 299
q12 -7 19 -16q6 -9 3 -14q-5 -9 -28 0q-26 -67 -75 -108q-50 -41 -112 -41t-112 41q-49 41 -75 108q-23 -9 -28 0q-3 5 4 14q5 8 18 16q12 7 24 9t14 -4q6 -11 -16 -26q20 -53 68 -81q48 -30 103 -30t104 30q47 28 67 81q-22 15 -16 26q2 6 14 4t24 -9z" />
    <glyph glyph-name="invsmileface" unicode="&#x263b;" horiz-adv-x="786" 
d="M391 -13q-141 0 -245 101q-103 100 -103 242q0 143 103 245q104 102 245 102q145 0 249 -101q103 -102 103 -246q0 -142 -103 -242q-104 -101 -249 -101zM314 333q20 0 35 29q14 30 14 70q0 39 -14 69q-15 28 -35 28q-21 0 -34 -28q-14 -30 -14 -69q0 -40 14 -70
q14 -29 34 -29zM467 333q20 0 35 29q14 30 14 70q0 39 -14 69q-15 28 -35 28q-21 0 -34 -28q-14 -30 -14 -69q0 -40 14 -70q14 -29 34 -29zM391 120q62 0 112 41q49 41 75 108q8 -4 18 -4q11 0 11 7q0 9 -17 23q-17 13 -33 13q-12 0 -12 -8q0 -11 17 -22q-20 -53 -67 -81
q-49 -30 -104 -30t-103 30q-48 28 -68 81q17 12 17 22q0 8 -12 8q-17 0 -33 -13q-17 -14 -17 -23q0 -7 11 -7q10 0 18 4q26 -67 75 -108q50 -41 112 -41z" />
    <glyph glyph-name="sun" unicode="&#x263c;" horiz-adv-x="778" 
d="M735 312h-156q-6 -57 -42 -100l110 -110l-28 -28l-110 110q-43 -36 -100 -42v-156h-40v156q-58 6 -101 42l-110 -110l-28 28l110 110q-36 43 -42 100h-155v40h155q6 58 42 101l-110 110l28 28l110 -110q43 36 101 42v155h40v-155q57 -6 100 -42l110 110l28 -28l-110 -110
q36 -43 42 -101h156v-40zM389 181q63 0 107 44t44 107q0 62 -44 108q-44 44 -107 44t-107 -44q-45 -45 -45 -108q0 -62 45 -106q43 -45 107 -45z" />
    <glyph glyph-name="uni263D" unicode="&#x263d;" horiz-adv-x="542" 
d="M153 -13q-59 0 -112 18q103 36 168 126q65 91 65 202t-65 202q-65 89 -168 125q54 19 112 19q144 0 245 -101q101 -103 101 -245q0 -143 -101 -244q-100 -102 -245 -102zM161 26q125 8 212 96q86 89 86 211q0 123 -86 212q-86 87 -212 95q72 -55 113 -136q40 -80 40 -171
t-40 -170q-41 -81 -113 -137z" />
    <glyph glyph-name="uni2709" unicode="&#x2709;" horiz-adv-x="1136" 
d="M84 0v664h968v-664h-968zM568 247l412 376h-824zM124 68l283 271l-283 258v-529zM1012 68v529l-283 -258zM153 41h830l-284 270l-131 -120l-131 120z" />
    <glyph glyph-name="uni270F" unicode="&#x270f;" horiz-adv-x="799" 
d="M41 -26l60 210l507 506l150 -151l-506 -506zM99 33l132 37l470 469l-93 93l-471 -469z" />
    <glyph glyph-name="uni2713" unicode="&#x2713;" horiz-adv-x="1085" 
d="M363 -15l-279 308l30 28l250 -276l608 634l29 -29z" />
    <glyph glyph-name="uni2715" unicode="&#x2715;" horiz-adv-x="858" 
d="M774 649l-316 -316l316 -316l-28 -30l-317 317l-317 -317l-28 30l316 316l-316 316l28 29l317 -317l317 317z" />
    <glyph glyph-name="uni2776" unicode="&#x2776;" 
d="M338 9q-76 20 -146 62q-67 40 -108 110q-41 68 -41 152q0 81 40 148q40 66 106 110q67 43 147 65q81 23 164 23q82 0 165 -23q79 -22 146 -65q66 -44 106 -110q40 -67 40 -148q0 -84 -41 -152q-41 -70 -108 -110q-70 -42 -146 -62q-78 -22 -162 -22t-162 22zM346 134h396
v53h-176v346h-54q-11 -79 -79 -128q-70 -50 -175 -59l5 -53q169 13 249 114v-220h-178z" />
    <glyph glyph-name="uni2777" unicode="&#x2777;" 
d="M338 9q-76 20 -146 62q-67 40 -108 110q-41 68 -41 152q0 81 40 148q40 66 106 110q67 43 147 65q81 23 164 23q82 0 165 -23q79 -22 146 -65q66 -44 106 -110q40 -67 40 -148q0 -84 -41 -152q-41 -70 -108 -110q-70 -42 -146 -62q-78 -22 -162 -22t-162 22zM720 402
q0 62 -62 101q-63 39 -151 39q-91 0 -159 -42t-68 -104q0 -53 58 -96l33 43q-36 29 -36 53q0 36 51 65q49 28 121 28q69 0 113 -25q45 -26 45 -62q0 -42 -86 -96q-85 -54 -278 -118l10 -54h397v54h-263q139 52 207 105q68 51 68 109z" />
    <glyph glyph-name="uni2778" unicode="&#x2778;" 
d="M338 9q-76 20 -146 62q-67 40 -108 110q-41 68 -41 152q0 81 40 148q40 66 106 110q67 43 147 65q81 23 164 23q82 0 165 -23q79 -22 146 -65q66 -44 106 -110q40 -67 40 -148q0 -84 -41 -152q-41 -70 -108 -110q-70 -42 -146 -62q-78 -22 -162 -22t-162 22zM613 346
q45 14 70 39t25 53q0 48 -58 76q-57 28 -141 28q-82 0 -144 -22q-63 -22 -83 -65l51 -26q13 27 60 44q46 15 116 15q65 0 104 -16t39 -39q0 -28 -53 -46q-53 -19 -135 -19h-47l12 -52h43q95 0 149 -19q55 -19 55 -52q0 -28 -46 -47q-48 -20 -120 -20q-156 0 -188 65l-54 -16
q40 -103 251 -103q83 0 149 32q64 31 64 82q0 76 -119 108z" />
    <glyph glyph-name="uni2779" unicode="&#x2779;" 
d="M338 9q-76 20 -146 62q-67 40 -108 110q-41 68 -41 152q0 81 40 148q40 66 106 110q67 43 147 65q81 23 164 23q82 0 165 -23q79 -22 146 -65q66 -44 106 -110q40 -67 40 -148q0 -84 -41 -152q-41 -70 -108 -110q-70 -42 -146 -62q-78 -22 -162 -22t-162 22zM743 259
h-128v166h-54v-166h-190q61 45 97 113q37 69 40 150l-52 28q-2 -104 -58 -189q-57 -85 -141 -102v-53h304v-72h54v72h128v53z" />
    <glyph glyph-name="uni277A" unicode="&#x277a;" 
d="M338 9q-76 20 -146 62q-67 40 -108 110q-41 68 -41 152q0 81 40 148q40 66 106 110q67 43 147 65q81 23 164 23q82 0 165 -23q79 -22 146 -65q66 -44 106 -110q40 -67 40 -148q0 -84 -41 -152q-41 -70 -108 -110q-70 -42 -146 -62q-78 -22 -162 -22t-162 22zM528 412
q-104 0 -176 -57l25 124h330v54h-375l-43 -224l51 -17q58 67 187 67q64 0 107 -22q42 -23 42 -61q0 -43 -47 -70q-47 -28 -128 -28q-125 0 -192 59l-41 -36q33 -33 97 -55q60 -22 136 -22q99 0 165 42q66 40 66 109q0 62 -56 100q-55 37 -148 37z" />
    <glyph glyph-name="uni277B" unicode="&#x277b;" 
d="M338 9q-76 20 -146 62q-67 40 -108 110q-41 68 -41 152q0 81 40 148q40 66 106 110q67 43 147 65q81 23 164 23q82 0 165 -23q79 -22 146 -65q66 -44 106 -110q40 -67 40 -148q0 -84 -41 -152q-41 -70 -108 -110q-70 -42 -146 -62q-78 -22 -162 -22t-162 22zM535 388
q-127 0 -213 -84q-2 22 -2 25q0 77 59 118t135 41q41 0 83 -14q38 -13 60 -37l49 26q-31 38 -84 59q-55 20 -108 20q-64 0 -118 -22q-56 -22 -93 -72q-39 -50 -39 -119q0 -99 75 -152q76 -53 176 -53q91 0 156 41t65 101t-60 91q-59 31 -141 31zM515 178q-130 0 -177 80
q71 77 190 77q69 0 110 -19q42 -20 42 -53q0 -36 -47 -60q-47 -25 -118 -25z" />
    <glyph glyph-name="uni277C" unicode="&#x277c;" 
d="M338 9q-76 20 -146 62q-67 40 -108 110q-41 68 -41 152q0 81 40 148q40 66 106 110q67 43 147 65q81 23 164 23q82 0 165 -23q79 -22 146 -65q66 -44 106 -110q40 -67 40 -148q0 -84 -41 -152q-41 -70 -108 -110q-70 -42 -146 -62q-78 -22 -162 -22t-162 22zM266 533v-54
h304q-92 -50 -144 -139q-52 -90 -47 -206h57q-11 150 78 242q88 93 220 103v54h-468z" />
    <glyph glyph-name="uni277D" unicode="&#x277d;" 
d="M338 9q-76 20 -146 62q-67 40 -108 110q-41 68 -41 152q0 81 40 148q40 66 106 110q67 43 147 65q81 23 164 23q82 0 165 -23q79 -22 146 -65q66 -44 106 -110q40 -67 40 -148q0 -84 -41 -152q-41 -70 -108 -110q-70 -42 -146 -62q-78 -22 -162 -22t-162 22zM628 349
q88 31 88 88q0 45 -62 75q-64 29 -154 29t-153 -29q-62 -30 -62 -75q0 -57 88 -88q-113 -35 -113 -105q0 -53 70 -86q68 -34 170 -34t171 34q69 33 69 86q0 34 -29 61q-31 28 -83 44zM613 473q47 -15 47 -41q0 -24 -45 -41q-48 -17 -115 -17q-68 0 -114 17q-45 17 -45 41
q0 26 47 41q46 15 112 15q65 0 113 -15zM370 199q-54 21 -54 51t55 51t129 21t129 -21t55 -51t-53 -51q-54 -21 -131 -21q-78 0 -130 21z" />
    <glyph glyph-name="uni277E" unicode="&#x277e;" 
d="M338 9q-76 20 -146 62q-67 40 -108 110q-41 68 -41 152q0 81 40 148q40 66 106 110q67 43 147 65q81 23 164 23q82 0 165 -23q79 -22 146 -65q66 -44 106 -110q40 -67 40 -148q0 -84 -41 -152q-41 -70 -108 -110q-70 -42 -146 -62q-78 -22 -162 -22t-162 22zM485 542
q-92 0 -156 -40q-65 -41 -65 -102q0 -58 60 -90q61 -32 141 -32q127 0 213 80q1 -4 1 -21q0 -81 -55 -120q-56 -39 -137 -39q-42 0 -82 14q-39 14 -60 36l-51 -25q31 -39 85 -58q54 -21 108 -21q65 0 121 21q53 21 91 71q37 49 37 121q0 101 -75 153q-74 52 -176 52z
M473 331q-69 0 -110 19q-42 20 -42 52q0 36 47 62q46 25 117 25q58 0 107 -20q47 -21 70 -62q-70 -76 -189 -76z" />
    <glyph glyph-name="uniE132" unicode="&#xe132;" horiz-adv-x="476" 
d="M71 528l98 136h111l-121 -136h-88zM317 528l98 136h111l-121 -136h-88zM71 0v474h88v-474h-88zM226 -200q-3 0 -33 2l33 85q43 0 67 21q24 20 24 59v507h88v-517q0 -69 -51 -113q-53 -44 -128 -44z" />
    <glyph glyph-name="uniE133" unicode="&#xe133;" horiz-adv-x="1049" 
d="M85 711l98 136h111l-121 -136h-88zM888 711l98 136h111l-121 -136h-88zM84 0v664h90v-664h-90zM598 -13q-101 0 -187 34q-90 35 -138 98l58 78q36 -59 109 -90q71 -31 158 -31q125 0 207 61q82 60 82 164v363h90v-371q0 -140 -110 -223q-112 -83 -269 -83z" />
    <glyph glyph-name="u1F50D" unicode="&#x1f50d;" horiz-adv-x="747" 
d="M747 4l-28 -29l-141 141q-88 -81 -213 -81q-132 0 -227 95t-95 227q0 133 95 228q94 94 227 94q134 0 228 -94t94 -228q0 -121 -80 -213zM365 76q118 0 200 82t82 199t-82 199t-200 82q-117 0 -199 -82q-83 -83 -83 -199t83 -199q82 -82 199 -82z" />
    <glyph glyph-name="u1F5B9" unicode="&#x1f5b9;" horiz-adv-x="660" 
d="M402 664l174 -174v-490h-492v664h318zM536 41v409h-174v173h-238v-582h412zM402 606v-116h117zM180 367v20h300v-20h-300zM180 279v20h300v-20h-300zM180 191v20h300v-20h-300zM180 104v20h300v-20h-300z" />
    <glyph glyph-name="u1F5CE" unicode="&#x1f5ce;" horiz-adv-x="660" 
d="M402 664l174 -174v-490h-492v664h318zM536 41v409h-174v173h-238v-582h412zM402 606v-116h117z" />
    <glyph glyph-name="CR" horiz-adv-x="321" 
 />
    <glyph glyph-name="A.ss10" horiz-adv-x="832" 
d="M727 0l-82 135h-458l-82 -135h-103l414 690l414 -690h-103zM240 224h352l-176 290z" />
    <glyph glyph-name="Aacute.ss10" horiz-adv-x="832" 
d="M581 847l-121 -136h-88l98 136h111zM727 0l-82 135h-458l-82 -135h-103l414 690l414 -690h-103zM240 224h352l-176 290z" />
    <glyph glyph-name="Abreve.ss10" horiz-adv-x="832" 
d="M415 706q-70 0 -120 41q-51 41 -51 100h102q0 -37 21 -58q19 -22 48 -22t50 22q21 21 21 58h100q0 -59 -50 -100q-52 -41 -121 -41zM727 0l-82 135h-458l-82 -135h-103l414 690l414 -690h-103zM240 224h352l-176 290z" />
    <glyph glyph-name="uni01CD.ss10" horiz-adv-x="832" 
d="M463 710h-94l-121 136h110l58 -79l58 79h110zM727 0l-82 135h-458l-82 -135h-103l414 690l414 -690h-103zM240 224h352l-176 290z" />
    <glyph glyph-name="Acircumflex.ss10" horiz-adv-x="832" 
d="M416 790l-58 -79h-110l121 136h94l121 -136h-110zM727 0l-82 135h-458l-82 -135h-103l414 690l414 -690h-103zM240 224h352l-176 290z" />
    <glyph glyph-name="Adieresis.ss10" horiz-adv-x="832" 
d="M302 703q-31 0 -51 16q-21 17 -21 40q0 25 21 41q22 17 51 17t51 -17q21 -17 21 -41q0 -23 -21 -40q-20 -16 -51 -16zM510 703q-31 0 -51 16q-21 17 -21 40q0 25 21 41q22 17 51 17t51 -17q21 -17 21 -41q0 -23 -21 -40q-20 -16 -51 -16zM727 0l-82 135h-458l-82 -135
h-103l414 690l414 -690h-103zM240 224h352l-176 290z" />
    <glyph glyph-name="Adieresis.ss10.ss20" horiz-adv-x="832" 
d="M373 813v-102h-124v102h124zM583 813v-102h-124v102h124zM727 0l-82 135h-458l-82 -135h-103l414 690l414 -690h-103zM240 224h352l-176 290z" />
    <glyph glyph-name="Adieresis.ss20" horiz-adv-x="838" 
d="M376 813v-102h-124v102h124zM586 813v-102h-124v102h124zM731 0l-78 145h-468l-78 -145h-101l356 664h114l356 -664h-101zM232 233h374l-187 349z" />
    <glyph glyph-name="uni1EA0.ss10" horiz-adv-x="832" 
d="M830 0h-103l-82 135h-458l-82 -135h-103l414 690zM240 224h352l-176 290zM415 -47q29 0 51 -17q21 -16 21 -41q0 -23 -21 -40q-20 -16 -51 -16t-51 16q-21 17 -21 40q0 25 21 41q22 17 51 17z" />
    <glyph glyph-name="uni1EA0.ss10.ss20" horiz-adv-x="832" 
d="M830 0h-103l-82 135h-458l-82 -135h-103l414 690zM240 224h352l-176 290zM353 -155v102h124v-102h-124z" />
    <glyph glyph-name="uni1EA0.ss20" horiz-adv-x="838" 
d="M832 0h-101l-78 145h-468l-78 -145h-101l356 664h114zM232 233h374l-187 349zM356 -155v102h124v-102h-124z" />
    <glyph glyph-name="Agrave.ss10" horiz-adv-x="832" 
d="M460 711h-88l-121 136h111zM727 0l-82 135h-458l-82 -135h-103l414 690l414 -690h-103zM240 224h352l-176 290z" />
    <glyph glyph-name="Amacron.ss10" horiz-adv-x="832" 
d="M566 786v-75h-300v75h300zM727 0l-82 135h-458l-82 -135h-103l414 690l414 -690h-103zM240 224h352l-176 290z" />
    <glyph glyph-name="Aogonek.ss10" horiz-adv-x="832" 
d="M695 -87q0 -27 26 -38q24 -10 104 -10l-15 -44q-125 0 -183 16q-60 17 -60 55q0 35 46 65q48 30 112 47l-80 131h-458l-82 -135h-103l414 690l414 -690q-52 -10 -95 -37q-40 -25 -40 -50zM240 224h352l-176 290z" />
    <glyph glyph-name="Aring.ss10" horiz-adv-x="832" 
d="M416 707q-67 0 -118 21t-51 51q0 28 52 50q51 21 117 21q70 0 119 -21q50 -21 50 -50q0 -30 -49 -51q-50 -21 -120 -21zM417 815q-28 0 -48 -11t-20 -25q0 -16 20 -27t48 -11q27 0 47 11q19 10 19 27q0 15 -19 25q-20 11 -47 11zM727 0l-82 135h-458l-82 -135h-103
l414 690l414 -690h-103zM240 224h352l-176 290z" />
    <glyph glyph-name="Aringacute.ss10" horiz-adv-x="832" 
d="M416 707q-67 0 -118 21t-51 51q0 28 52 50q51 21 117 21q3 0 35 -2l41 57h111l-68 -76q50 -21 50 -50q0 -30 -49 -51q-50 -21 -120 -21zM417 815q-28 0 -48 -11t-20 -25q0 -16 20 -27t48 -11q27 0 47 11q19 10 19 27q0 15 -19 25q-20 11 -47 11zM727 0l-82 135h-458
l-82 -135h-103l414 690l414 -690h-103zM240 224h352l-176 290z" />
    <glyph glyph-name="Atilde.ss10" horiz-adv-x="832" 
d="M350 775q-13 4 -18 -7q-4 -11 -4 -57h-101q0 64 33 103t80 39q30 0 55 -13q30 -16 50 -32q23 -19 37 -25q5 -1 11 -1q4 0 7 8q2 8 3 21q1 9 1 36h101q0 -63 -33 -102t-80 -39q-30 0 -55 13q-30 16 -50 32q-27 19 -37 24zM727 0l-82 135h-458l-82 -135h-103l414 690
l414 -690h-103zM240 224h352l-176 290z" />
    <glyph glyph-name="Cdotaccent.ss20" horiz-adv-x="819" 
d="M517 813v-102h-124v102h124zM455 -13q-59 0 -116 12q-59 12 -111 40q-55 28 -95 66q-41 39 -65 98q-25 57 -25 130q0 85 36 152q35 68 95 110q58 40 131 63q72 21 150 21q100 0 187 -34q88 -35 138 -99l-58 -78q-37 60 -109 91q-71 31 -161 31q-140 0 -228 -71
q-88 -70 -88 -186q0 -115 87 -186q88 -71 232 -71q83 0 154 27q69 25 113 75l68 -62q-59 -65 -148 -96q-92 -33 -187 -33z" />
    <glyph glyph-name="Edieresis.ss20" horiz-adv-x="775" 
d="M365 813v-102h-124v102h124zM575 813v-102h-124v102h124zM731 575h-557v-181h481v-89h-481v-216h557v-89h-647v664h647v-89z" />
    <glyph glyph-name="Edotaccent.ss20" horiz-adv-x="775" 
d="M470 813v-102h-124v102h124zM731 575h-557v-181h481v-89h-481v-216h557v-89h-647v664h647v-89z" />
    <glyph glyph-name="uni1EB8.ss20" horiz-adv-x="775" 
d="M731 575h-557v-181h481v-89h-481v-216h557v-89h-647v664h647v-89zM345 -155v102h124v-102h-124z" />
    <glyph glyph-name="Gcommaaccent.ss20" horiz-adv-x="896" 
d="M380 365h445v-365h-90v122q-41 -66 -120 -101q-77 -34 -172 -34q-58 0 -111 13q-55 12 -107 40q-55 30 -93 68q-39 38 -64 98q-25 57 -25 127q0 85 36 152q35 68 95 110q58 40 131 63q72 21 150 21q100 0 187 -34q88 -35 138 -99l-58 -78q-37 60 -109 91q-71 31 -161 31
q-140 0 -228 -71q-88 -70 -88 -186q0 -121 90 -189q89 -68 219 -68q104 0 187 53q81 52 108 146h-360v90zM381 -240v187h130l-100 -187h-30z" />
    <glyph glyph-name="Gdotaccent.ss20" horiz-adv-x="896" 
d="M514 813v-102h-124v102h124zM380 365h445v-365h-90v122q-41 -66 -120 -101q-77 -34 -172 -34q-58 0 -111 13q-55 12 -107 40q-55 30 -93 68q-39 38 -64 98q-25 57 -25 127q0 85 36 152q35 68 95 110q58 40 131 63q72 21 150 21q100 0 187 -34q88 -35 138 -99l-58 -78
q-37 60 -109 91q-71 31 -161 31q-140 0 -228 -71q-88 -70 -88 -186q0 -121 90 -189q89 -68 219 -68q104 0 187 53q81 52 108 146h-360v90z" />
    <glyph glyph-name="I.ss04" horiz-adv-x="624" 
d="M583 575h-226v-486h226v-89h-542v89h226v486h-226v89h542v-89z" />
    <glyph glyph-name="IJ.ss01" horiz-adv-x="724" 
d="M84 0v664h90v-664h-90zM289 -13l-16 89q124 0 206 58q83 57 83 147v383h90v-391q0 -86 -52 -151q-51 -66 -135 -101q-81 -34 -176 -34z" />
    <glyph glyph-name="Iacute.ss04" horiz-adv-x="624" 
d="M268 711l98 136h111l-121 -136h-88zM583 575h-226v-486h226v-89h-542v89h226v486h-226v89h542v-89z" />
    <glyph glyph-name="Ibreve.ss04" horiz-adv-x="624" 
d="M311 706q-70 0 -120 41q-51 41 -51 100h102q0 -37 21 -58q19 -22 48 -22t50 22q21 21 21 58h100q0 -59 -50 -100q-52 -41 -121 -41zM583 575h-226v-486h226v-89h-542v89h226v486h-226v89h542v-89z" />
    <glyph glyph-name="uni01CF.ss04" horiz-adv-x="624" 
d="M359 710h-94l-121 136h110l58 -79l58 79h110zM583 575h-226v-486h226v-89h-542v89h226v486h-226v89h542v-89z" />
    <glyph glyph-name="Icircumflex.ss04" horiz-adv-x="624" 
d="M312 790l-58 -79h-110l121 136h94l121 -136h-110zM583 575h-226v-486h226v-89h-542v89h226v486h-226v89h542v-89z" />
    <glyph glyph-name="Idieresis.ss04" horiz-adv-x="624" 
d="M198 703q-31 0 -51 16q-21 17 -21 40q0 25 21 41q22 17 51 17t51 -17q21 -17 21 -41q0 -23 -21 -40q-20 -16 -51 -16zM406 703q-31 0 -51 16q-21 17 -21 40q0 25 21 41q22 17 51 17t51 -17q21 -17 21 -41q0 -23 -21 -40q-20 -16 -51 -16zM583 575h-226v-486h226v-89h-542
v89h226v486h-226v89h542v-89z" />
    <glyph glyph-name="Idieresis.ss04.ss20" horiz-adv-x="624" 
d="M145 711v102h124v-102h-124zM355 711v102h124v-102h-124zM583 575h-226v-486h226v-89h-542v89h226v486h-226v89h542v-89z" />
    <glyph glyph-name="Idieresis.ss20" horiz-adv-x="258" 
d="M-38 711v102h124v-102h-124zM172 711v102h124v-102h-124zM84 0v664h90v-664h-90z" />
    <glyph glyph-name="Idotaccent.ss04" horiz-adv-x="624" 
d="M312 703q-31 0 -51 16q-21 17 -21 40q0 25 21 41q22 17 51 17t51 -17q21 -17 21 -41q0 -23 -21 -40q-20 -16 -51 -16zM583 575h-226v-486h226v-89h-542v89h226v486h-226v89h542v-89z" />
    <glyph glyph-name="Idotaccent.ss04.ss20" horiz-adv-x="624" 
d="M374 813v-102h-124v102h124zM583 575h-226v-486h226v-89h-542v89h226v486h-226v89h542v-89z" />
    <glyph glyph-name="Idotaccent.ss20" horiz-adv-x="258" 
d="M191 813v-102h-124v102h124zM84 0v664h90v-664h-90z" />
    <glyph glyph-name="uni1ECA.ss04" horiz-adv-x="624" 
d="M583 575h-226v-486h226v-89h-542v89h226v486h-226v89h542v-89zM311 -161q-31 0 -51 16q-21 17 -21 40q0 25 21 41q22 17 51 17t51 -17q21 -16 21 -41q0 -23 -21 -40q-20 -16 -51 -16z" />
    <glyph glyph-name="uni1ECA.ss04.ss20" horiz-adv-x="624" 
d="M583 575h-226v-486h226v-89h-542v89h226v486h-226v89h542v-89zM249 -155v102h124v-102h-124z" />
    <glyph glyph-name="uni1ECA.ss20" horiz-adv-x="258" 
d="M84 0v664h90v-664h-90zM66 -155v102h124v-102h-124z" />
    <glyph glyph-name="Igrave.ss04" horiz-adv-x="624" 
d="M356 711h-88l-121 136h111zM583 575h-226v-486h226v-89h-542v89h226v486h-226v89h542v-89z" />
    <glyph glyph-name="Imacron.ss04" horiz-adv-x="624" 
d="M162 711v75h300v-75h-300zM583 575h-226v-486h226v-89h-542v89h226v486h-226v89h542v-89z" />
    <glyph glyph-name="Iogonek.ss04" horiz-adv-x="624" 
d="M583 575h-226v-486h226v-89q-52 -10 -95 -37q-40 -25 -40 -50q0 -27 26 -38q24 -10 104 -10l-15 -44q-125 0 -183 16q-60 17 -60 55q0 33 41 62q39 28 102 46h-422v89h226v486h-226v89h542v-89z" />
    <glyph glyph-name="Itilde.ss04" horiz-adv-x="624" 
d="M388 706q-30 0 -55 13q-30 16 -50 32q-27 19 -37 24q-13 4 -18 -7q-4 -11 -4 -57h-101q0 64 33 103t80 39q30 0 55 -13q30 -16 50 -32q23 -19 37 -25q5 -1 11 -1q4 0 7 8q2 8 3 21q1 9 1 36h101q0 -63 -33 -102t-80 -39zM583 575h-226v-486h226v-89h-542v89h226v486h-226
v89h542v-89z" />
    <glyph glyph-name="J.ss01" horiz-adv-x="466" 
d="M31 -13l-16 89q124 0 206 58q83 57 83 147v383h90v-391q0 -86 -52 -151q-51 -66 -135 -101q-81 -34 -176 -34z" />
    <glyph glyph-name="uni00A40301" horiz-adv-x="791" 
d="M630 711l98 136h111l-121 -136h-88zM340 -13q-101 0 -187 34q-90 35 -138 98l58 78q36 -59 109 -90q71 -31 158 -31q125 0 207 61q82 60 82 164v363h90v-371q0 -140 -110 -223q-112 -83 -269 -83z" />
    <glyph glyph-name="uni00A40301.ss01" horiz-adv-x="466" 
d="M305 711l98 136h111l-121 -136h-88zM31 -13l-16 89q124 0 206 58q83 57 83 147v383h90v-391q0 -86 -52 -151q-51 -66 -135 -101q-81 -34 -176 -34z" />
    <glyph glyph-name="Jcircumflex.ss01" horiz-adv-x="466" 
d="M396 847l121 -136h-110l-58 79l-58 -79h-110l121 136h94zM304 281v383h90v-391q0 -86 -52 -151q-51 -66 -135 -101q-81 -34 -176 -34l-16 89q124 0 206 58q83 57 83 147z" />
    <glyph glyph-name="Kcommaaccent.ss20" horiz-adv-x="809" 
d="M468 371l344 -371h-120l-290 311l-228 -202v-109h-90v664h90v-436l495 436h133zM372 -240v187h130l-100 -187h-30z" />
    <glyph glyph-name="Lcommaaccent.ss20" horiz-adv-x="724" 
d="M174 89h532v-89h-622v664h90v-575zM334 -240v187h130l-100 -187h-30z" />
    <glyph glyph-name="Ldot.ss20" horiz-adv-x="728" 
d="M174 89h532v-89h-622v664h90v-575zM570 331v-102h-121v102h121z" />
    <glyph glyph-name="M.ss10" horiz-adv-x="1117" 
d="M559 116l474 574v-690h-90v438l-384 -464l-385 464v-438h-90v690z" />
    <glyph glyph-name="M.ss11" horiz-adv-x="1117" 
d="M559 276l474 414v-690h-90v491l-384 -334l-385 334v-491h-90v690z" />
    <glyph glyph-name="N.ss10" horiz-adv-x="959" 
d="M875 664v-690l-701 533v-507h-90v690l701 -533v507h90z" />
    <glyph glyph-name="Nacute.ss10" horiz-adv-x="959" 
d="M645 847l-121 -136h-88l98 136h111zM875 664v-690l-701 533v-507h-90v690l701 -533v507h90z" />
    <glyph glyph-name="Ncaron.ss10" horiz-adv-x="959" 
d="M527 710h-94l-121 136h110l58 -79l58 79h110zM875 664v-690l-701 533v-507h-90v690l701 -533v507h90z" />
    <glyph glyph-name="Ncommaaccent.ss10" horiz-adv-x="959" 
d="M785 664h90v-690l-701 533v-507h-90v690l701 -533v507zM480 -46q31 0 52 -18q20 -20 20 -51q-2 -58 -40 -89q-39 -33 -104 -33v40q62 0 90 39q-36 -6 -62 10q-28 16 -28 44q0 24 21 41q22 17 51 17z" />
    <glyph glyph-name="Ncommaaccent.ss10.ss20" horiz-adv-x="959" 
d="M785 664h90v-690l-701 533v-507h-90v690l701 -533v507zM419 -240v187h130l-100 -187h-30z" />
    <glyph glyph-name="Ncommaaccent.ss20" horiz-adv-x="959" 
d="M785 664h90v-664h-109l-592 560v-560h-90v664h110l591 -559v559zM419 -240v187h130l-100 -187h-30z" />
    <glyph glyph-name="Eng.ss10" horiz-adv-x="959" 
d="M785 664h90v-707q0 -69 -51 -113q-53 -44 -128 -44q-3 0 -33 2l33 85q43 0 67 21q24 19 24 59v74l-613 466v-507h-90v690l701 -533v507z" />
    <glyph glyph-name="uni019D.ss10" horiz-adv-x="946" 
d="M862 664v-690l-701 533v-550q0 -70 -52 -113q-53 -44 -129 -44q-3 0 -33 2l33 85q43 0 67 21q24 20 24 59v723l701 -533v507h90z" />
    <glyph glyph-name="Ntilde.ss10" horiz-adv-x="959" 
d="M414 775q-13 4 -18 -7q-4 -11 -4 -57h-101q0 64 33 103t80 39q30 0 55 -13q30 -16 50 -32q23 -19 37 -25q5 -1 11 -1q4 0 7 8q2 8 3 21q1 9 1 36h101q0 -63 -33 -102t-80 -39q-30 0 -55 13q-30 16 -50 32q-27 19 -37 24zM875 664v-690l-701 533v-507h-90v690l701 -533
v507h90z" />
    <glyph glyph-name="Odieresis.ss20" horiz-adv-x="900" 
d="M283 711v102h124v-102h-124zM493 711v102h124v-102h-124zM450 -13q-74 0 -144 21q-70 19 -130 60q-60 39 -96 108q-37 68 -37 157q0 85 36 152q34 67 94 110q58 40 130 63q71 21 147 21t147 -21q72 -23 130 -63q59 -42 95 -110q35 -68 35 -152q0 -88 -36 -157
q-38 -70 -97 -108q-60 -41 -130 -60q-70 -21 -144 -21zM450 76q57 0 111 15q55 15 101 45q45 27 74 80q28 50 28 117q0 83 -48 144q-48 60 -117 87q-70 26 -149 26t-149 -26q-69 -27 -117 -87q-48 -61 -48 -144q0 -67 28 -117q29 -52 75 -80q47 -30 100 -45q54 -15 111 -15z
" />
    <glyph glyph-name="uni1ECC.ss20" horiz-adv-x="900" 
d="M450 -13q-74 0 -144 21q-70 19 -130 60q-60 39 -96 108q-37 68 -37 157q0 85 36 152q34 67 94 110q58 40 130 63q71 21 147 21t147 -21q72 -23 130 -63q59 -42 95 -110q35 -68 35 -152q0 -88 -36 -157q-38 -70 -97 -108q-60 -41 -130 -60q-70 -21 -144 -21zM450 76
q57 0 111 15q55 15 101 45q45 27 74 80q28 50 28 117q0 83 -48 144q-48 60 -117 87q-70 26 -149 26t-149 -26q-69 -27 -117 -87q-48 -61 -48 -144q0 -67 28 -117q29 -52 75 -80q47 -30 100 -45q54 -15 111 -15zM387 -155v102h124v-102h-124z" />
    <glyph glyph-name="Q.ss07" horiz-adv-x="901" 
d="M901 0l-53 -70l-157 116q-109 -59 -241 -59q-74 0 -144 21q-70 19 -130 60q-60 39 -96 108q-37 68 -37 157q0 85 36 152q34 67 94 110q58 40 130 63q71 21 147 21t147 -21q72 -23 130 -63q59 -42 95 -110q35 -68 35 -152q0 -142 -93 -232zM450 76q87 0 159 31l-211 156
l54 70l237 -176q75 67 75 176q0 83 -48 144q-48 60 -117 87q-70 26 -149 26t-149 -26q-69 -27 -117 -87q-48 -61 -48 -144q0 -67 28 -117q29 -52 75 -80q47 -30 100 -45q54 -15 111 -15z" />
    <glyph glyph-name="Q.ss13" horiz-adv-x="900" 
d="M671 36q67 -53 125 -136l-83 -39q-67 88 -147 139q-53 -13 -116 -13q-74 0 -144 21q-70 19 -130 60q-60 39 -96 108q-37 68 -37 157q0 85 36 152q34 67 94 110q58 40 130 63q71 21 147 21t147 -21q72 -23 130 -63q59 -42 95 -110q35 -68 35 -152q0 -106 -50 -180
q-51 -75 -136 -117zM136 333q0 -90 49 -148q49 -59 129 -87q57 35 124 34q68 -2 140 -36q82 25 135 86q51 58 51 151q0 83 -48 144q-48 60 -117 87q-70 26 -149 26t-149 -26q-69 -27 -117 -87q-48 -61 -48 -144z" />
    <glyph glyph-name="Q.ss15" horiz-adv-x="900" 
d="M857 333q0 -127 -70 -207q-69 -81 -182 -116l116 -7l-6 -89l-435 26l5 73q-107 36 -175 117q-67 79 -67 203q0 85 36 152q34 67 94 110q58 40 130 63q71 21 147 21t147 -21q72 -23 130 -63q59 -42 95 -110q35 -68 35 -152zM450 76q57 0 111 15q55 15 101 45q45 27 74 80
q28 50 28 117q0 83 -48 144q-48 60 -117 87q-70 26 -149 26t-149 -26q-69 -27 -117 -87q-48 -61 -48 -144q0 -67 28 -117q29 -52 75 -80q47 -30 100 -45q54 -15 111 -15z" />
    <glyph glyph-name="R.ss03" horiz-adv-x="837" 
d="M552 256q28 -74 96 -121q67 -46 154 -46v-89q-116 1 -214 69q-99 69 -130 182h-284v-251h-90v664q119 7 360 7q355 0 355 -213q0 -174 -247 -202zM174 339h270q143 0 203 30q59 29 59 89q0 62 -61 93t-201 31q-163 0 -270 -4v-239z" />
    <glyph glyph-name="R.ss05" horiz-adv-x="841" 
d="M799 458q0 -189 -289 -205l278 -172v-107l-427 277h-187v-251h-90v664q119 7 360 7q355 0 355 -213zM174 578v-239h270q143 0 203 30q59 29 59 89q0 62 -61 93t-201 31q-163 0 -270 -4z" />
    <glyph glyph-name="R.ss08" horiz-adv-x="841" 
d="M585 261q167 -87 223 -261h-100q-37 114 -139 182q-103 68 -246 68v1h-149v-251h-90v664q119 7 360 7q355 0 355 -213q0 -163 -214 -197zM174 578v-239h270q143 0 203 30q59 29 59 89q0 62 -61 93t-201 31q-163 0 -270 -4z" />
    <glyph glyph-name="Racute.ss03" horiz-adv-x="837" 
d="M578 847l-121 -136h-88l98 136h111zM552 256q28 -74 96 -121q67 -46 154 -46v-89q-116 1 -214 69q-99 69 -130 182h-284v-251h-90v664q119 7 360 7q355 0 355 -213q0 -174 -247 -202zM174 339h270q143 0 203 30q59 29 59 89q0 62 -61 93t-201 31q-163 0 -270 -4v-239z
" />
    <glyph glyph-name="Racute.ss05" horiz-adv-x="841" 
d="M578 847l-121 -136h-88l98 136h111zM799 458q0 -189 -289 -205l278 -172v-107l-427 277h-187v-251h-90v664q119 7 360 7q355 0 355 -213zM174 578v-239h270q143 0 203 30q59 29 59 89q0 62 -61 93t-201 31q-163 0 -270 -4z" />
    <glyph glyph-name="Racute.ss08" horiz-adv-x="841" 
d="M578 847l-121 -136h-88l98 136h111zM585 261q167 -87 223 -261h-100q-37 114 -139 182q-103 68 -246 68v1h-149v-251h-90v664q119 7 360 7q355 0 355 -213q0 -163 -214 -197zM174 578v-239h270q143 0 203 30q59 29 59 89q0 62 -61 93t-201 31q-163 0 -270 -4z" />
    <glyph glyph-name="Rcaron.ss03" horiz-adv-x="837" 
d="M460 710h-94l-121 136h110l58 -79l58 79h110zM552 256q28 -74 96 -121q67 -46 154 -46v-89q-116 1 -214 69q-99 69 -130 182h-284v-251h-90v664q119 7 360 7q355 0 355 -213q0 -174 -247 -202zM174 339h270q143 0 203 30q59 29 59 89q0 62 -61 93t-201 31q-163 0 -270 -4
v-239z" />
    <glyph glyph-name="Rcaron.ss05" horiz-adv-x="841" 
d="M460 710h-94l-121 136h110l58 -79l58 79h110zM799 458q0 -189 -289 -205l278 -172v-107l-427 277h-187v-251h-90v664q119 7 360 7q355 0 355 -213zM174 578v-239h270q143 0 203 30q59 29 59 89q0 62 -61 93t-201 31q-163 0 -270 -4z" />
    <glyph glyph-name="Rcaron.ss08" horiz-adv-x="841" 
d="M460 710h-94l-121 136h110l58 -79l58 79h110zM585 261q167 -87 223 -261h-100q-37 114 -139 182q-103 68 -246 68v1h-149v-251h-90v664q119 7 360 7q355 0 355 -213q0 -163 -214 -197zM174 578v-239h270q143 0 203 30q59 29 59 89q0 62 -61 93t-201 31q-163 0 -270 -4z
" />
    <glyph glyph-name="Rcommaaccent.ss03" horiz-adv-x="837" 
d="M552 256q28 -74 96 -121q67 -46 154 -46v-89q-116 1 -214 69q-99 69 -130 182h-284v-251h-90v664q119 7 360 7q355 0 355 -213q0 -174 -247 -202zM174 339h270q143 0 203 30q59 29 59 89q0 62 -61 93t-201 31q-163 0 -270 -4v-239zM413 -46q31 0 52 -18q20 -20 20 -51
q-2 -58 -40 -89q-39 -33 -104 -33v40q61 0 90 39q-36 -6 -62 10q-28 16 -28 44q0 24 21 41q22 17 51 17z" />
    <glyph glyph-name="Rcommaaccent.ss03.ss20" horiz-adv-x="837" 
d="M552 256q28 -74 96 -121q67 -46 154 -46v-89q-116 1 -214 69q-99 69 -130 182h-284v-251h-90v664q119 7 360 7q355 0 355 -213q0 -174 -247 -202zM174 339h270q143 0 203 30q59 29 59 89q0 62 -61 93t-201 31q-163 0 -270 -4v-239zM352 -240v187h130l-100 -187h-30z" />
    <glyph glyph-name="Rcommaaccent.ss05" horiz-adv-x="841" 
d="M799 458q0 -189 -289 -205l278 -172v-107l-427 277h-187v-251h-90v664q119 7 360 7q355 0 355 -213zM174 578v-239h270q143 0 203 30q59 29 59 89q0 62 -61 93t-201 31q-163 0 -270 -4zM432 -46q31 0 52 -18q20 -20 20 -51q-2 -58 -40 -89q-39 -33 -104 -33v40
q62 0 90 39q-36 -6 -62 10q-28 16 -28 44q0 24 21 41q22 17 51 17z" />
    <glyph glyph-name="Rcommaaccent.ss05.ss20" horiz-adv-x="841" 
d="M799 458q0 -189 -289 -205l278 -172v-107l-427 277h-187v-251h-90v664q119 7 360 7q355 0 355 -213zM174 578v-239h270q143 0 203 30q59 29 59 89q0 62 -61 93t-201 31q-163 0 -270 -4zM371 -240v187h130l-100 -187h-30z" />
    <glyph glyph-name="Rcommaaccent.ss08" horiz-adv-x="841" 
d="M585 261q167 -87 223 -261h-100q-37 114 -139 182q-103 68 -246 68v1h-149v-251h-90v664q119 7 360 7q355 0 355 -213q0 -163 -214 -197zM174 578v-239h270q143 0 203 30q59 29 59 89q0 62 -61 93t-201 31q-163 0 -270 -4zM432 -46q31 0 52 -18q20 -20 20 -51
q-2 -58 -40 -89q-39 -33 -104 -33v40q62 0 90 39q-36 -6 -62 10q-28 16 -28 44q0 24 21 41q22 17 51 17z" />
    <glyph glyph-name="Rcommaaccent.ss08.ss20" horiz-adv-x="841" 
d="M585 261q167 -87 223 -261h-100q-37 114 -139 182q-103 68 -246 68v1h-149v-251h-90v664q119 7 360 7q355 0 355 -213q0 -163 -214 -197zM174 578v-239h270q143 0 203 30q59 29 59 89q0 62 -61 93t-201 31q-163 0 -270 -4zM371 -240v187h130l-100 -187h-30z" />
    <glyph glyph-name="Rcommaaccent.ss20" horiz-adv-x="841" 
d="M572 259l236 -259h-119l-229 251h-286v-251h-90v664q119 7 360 7q355 0 355 -213q0 -167 -227 -199zM174 578v-239h270q143 0 203 30q59 29 59 89q0 62 -61 93t-201 31q-163 0 -270 -4zM371 -240v187h130l-100 -187h-30z" />
    <glyph glyph-name="Scommaaccent.ss20" horiz-adv-x="852" 
d="M430 -13q-154 0 -254 52q-102 52 -121 136l85 41q5 -62 84 -101q80 -39 206 -39q128 0 202 31q74 32 74 79q0 25 -20 45q-20 18 -82 38q-58 17 -171 34q-187 27 -267 73q-82 45 -82 126t93 129t245 48q155 0 246 -49q92 -50 108 -138l-87 -43q-5 141 -267 141
q-108 0 -177 -26q-68 -27 -68 -62q0 -37 60 -62q62 -27 210 -49q193 -28 271 -75t78 -130q0 -94 -100 -146q-101 -53 -266 -53zM369 -240v187h130l-100 -187h-30z" />
    <glyph glyph-name="uni021A.ss20" horiz-adv-x="759" 
d="M18 664h723v-89h-317v-575h-90v575h-316v89zM318 -240v187h130l-100 -187h-30z" />
    <glyph glyph-name="Udieresis.ss20" horiz-adv-x="903" 
d="M284 711v102h124v-102h-124zM494 711v102h124v-102h-124zM451 -13q-158 0 -268 83q-111 82 -111 223v371h90v-363q0 -104 82 -164q82 -61 207 -61q126 0 208 61q82 60 82 164v363h90v-371q0 -140 -110 -223q-112 -83 -270 -83z" />
    <glyph glyph-name="uni1EE4.ss20" horiz-adv-x="903" 
d="M451 -13q-158 0 -268 83q-111 82 -111 223v371h90v-363q0 -104 82 -164q82 -61 207 -61q126 0 208 61q82 60 82 164v363h90v-371q0 -140 -110 -223q-112 -83 -270 -83zM388 -155v102h124v-102h-124z" />
    <glyph glyph-name="V.ss10" horiz-adv-x="832" 
d="M727 664h103l-414 -690l-414 690h103l311 -514z" />
    <glyph glyph-name="W.ss07" horiz-adv-x="1200" 
d="M1093 664h101l-356 -664h-114l-124 231l-124 -231h-114l-356 664h101l312 -581l130 243l-181 338h101l131 -244l131 244h101l-181 -338l130 -243z" />
    <glyph glyph-name="W.ss07.ss10" horiz-adv-x="1194" 
d="M1192 664l-414 -690l-181 302l-181 -302l-414 690h103l311 -514l129 213l-181 301h103l130 -215l130 215h103l-181 -301l129 -213l311 514h103z" />
    <glyph glyph-name="W.ss10" horiz-adv-x="1160" 
d="M1154 664l-333 -690l-241 501l-241 -501l-333 690h99l234 -481l241 507l242 -507l233 481h99z" />
    <glyph glyph-name="Wacute.ss07" horiz-adv-x="1200" 
d="M765 847l-121 -136h-88l98 136h111zM1093 664h101l-356 -664h-114l-124 231l-124 -231h-114l-356 664h101l312 -581l130 243l-181 338h101l131 -244l131 244h101l-181 -338l130 -243z" />
    <glyph glyph-name="Wacute.ss07.ss10" horiz-adv-x="1194" 
d="M762 847l-121 -136h-88l98 136h111zM1192 664l-414 -690l-181 302l-181 -302l-414 690h103l311 -514l129 213l-181 301h103l130 -215l130 215h103l-181 -301l129 -213l311 514h103z" />
    <glyph glyph-name="Wacute.ss10" horiz-adv-x="1160" 
d="M745 847l-121 -136h-88l98 136h111zM1154 664l-333 -690l-241 501l-241 -501l-333 690h99l234 -481l241 507l242 -507l233 481h99z" />
    <glyph glyph-name="Wcircumflex.ss07" horiz-adv-x="1200" 
d="M600 790l-58 -79h-110l121 136h94l121 -136h-110zM1093 664h101l-356 -664h-114l-124 231l-124 -231h-114l-356 664h101l312 -581l130 243l-181 338h101l131 -244l131 244h101l-181 -338l130 -243z" />
    <glyph glyph-name="Wcircumflex.ss07.ss10" horiz-adv-x="1194" 
d="M597 790l-58 -79h-110l121 136h94l121 -136h-110zM1192 664l-414 -690l-181 302l-181 -302l-414 690h103l311 -514l129 213l-181 301h103l130 -215l130 215h103l-181 -301l129 -213l311 514h103z" />
    <glyph glyph-name="Wcircumflex.ss10" horiz-adv-x="1160" 
d="M580 790l-58 -79h-110l121 136h94l121 -136h-110zM1154 664l-333 -690l-241 501l-241 -501l-333 690h99l234 -481l241 507l242 -507l233 481h99z" />
    <glyph glyph-name="Wdieresis.ss07" horiz-adv-x="1200" 
d="M486 703q-31 0 -51 16q-21 17 -21 40q0 25 21 41q22 17 51 17t51 -17q21 -17 21 -41q0 -23 -21 -40q-20 -16 -51 -16zM694 703q-31 0 -51 16q-21 17 -21 40q0 25 21 41q22 17 51 17t51 -17q21 -17 21 -41q0 -23 -21 -40q-20 -16 -51 -16zM1093 664h101l-356 -664h-114
l-124 231l-124 -231h-114l-356 664h101l312 -581l130 243l-181 338h101l131 -244l131 244h101l-181 -338l130 -243z" />
    <glyph glyph-name="Wdieresis.ss07.ss10" horiz-adv-x="1194" 
d="M483 703q-31 0 -51 16q-21 17 -21 40q0 25 21 41q22 17 51 17t51 -17q21 -17 21 -41q0 -23 -21 -40q-20 -16 -51 -16zM691 703q-31 0 -51 16q-21 17 -21 40q0 25 21 41q22 17 51 17t51 -17q21 -17 21 -41q0 -23 -21 -40q-20 -16 -51 -16zM1192 664l-414 -690l-181 302
l-181 -302l-414 690h103l311 -514l129 213l-181 301h103l130 -215l130 215h103l-181 -301l129 -213l311 514h103z" />
    <glyph glyph-name="Wdieresis.ss07.ss10.ss20" horiz-adv-x="1194" 
d="M554 813v-102h-124v102h124zM764 813v-102h-124v102h124zM1192 664l-414 -690l-181 302l-181 -302l-414 690h103l311 -514l129 213l-181 301h103l130 -215l130 215h103l-181 -301l129 -213l311 514h103z" />
    <glyph glyph-name="Wdieresis.ss07.ss20" horiz-adv-x="1200" 
d="M557 813v-102h-124v102h124zM767 813v-102h-124v102h124zM1093 664h101l-356 -664h-114l-124 231l-124 -231h-114l-356 664h101l312 -581l130 243l-181 338h101l131 -244l131 244h101l-181 -338l130 -243z" />
    <glyph glyph-name="Wdieresis.ss10" horiz-adv-x="1160" 
d="M466 703q-31 0 -51 16q-21 17 -21 40q0 25 21 41q22 17 51 17t51 -17q21 -17 21 -41q0 -23 -21 -40q-20 -16 -51 -16zM674 703q-31 0 -51 16q-21 17 -21 40q0 25 21 41q22 17 51 17t51 -17q21 -17 21 -41q0 -23 -21 -40q-20 -16 -51 -16zM1154 664l-333 -690l-241 501
l-241 -501l-333 690h99l234 -481l241 507l242 -507l233 481h99z" />
    <glyph glyph-name="Wdieresis.ss10.ss20" horiz-adv-x="1160" 
d="M537 813v-102h-124v102h124zM747 813v-102h-124v102h124zM1154 664l-333 -690l-241 501l-241 -501l-333 690h99l234 -481l241 507l242 -507l233 481h99z" />
    <glyph glyph-name="Wdieresis.ss20" horiz-adv-x="1166" 
d="M540 813v-102h-124v102h124zM750 813v-102h-124v102h124zM1061 664h96l-247 -664h-119l-209 567l-210 -567h-118l-245 664h95l210 -565l209 565h118l209 -563z" />
    <glyph glyph-name="Wgrave.ss07" horiz-adv-x="1200" 
d="M644 711h-88l-121 136h111zM1093 664h101l-356 -664h-114l-124 231l-124 -231h-114l-356 664h101l312 -581l130 243l-181 338h101l131 -244l131 244h101l-181 -338l130 -243z" />
    <glyph glyph-name="Wgrave.ss07.ss10" horiz-adv-x="1194" 
d="M641 711h-88l-121 136h111zM1192 664l-414 -690l-181 302l-181 -302l-414 690h103l311 -514l129 213l-181 301h103l130 -215l130 215h103l-181 -301l129 -213l311 514h103z" />
    <glyph glyph-name="Wgrave.ss10" horiz-adv-x="1160" 
d="M624 711h-88l-121 136h111zM1154 664l-333 -690l-241 501l-241 -501l-333 690h99l234 -481l241 507l242 -507l233 481h99z" />
    <glyph glyph-name="uni1E8A.ss20" horiz-adv-x="807" 
d="M466 813v-102h-124v102h124zM818 0h-124l-290 291l-291 -291h-124l351 353l-308 311h123l249 -248l248 248h123l-308 -311z" />
    <glyph glyph-name="Y.ss03" horiz-adv-x="911" 
d="M749 664h90v-371q0 -140 -110 -223q-112 -83 -269 -83q-101 0 -187 34q-90 35 -138 98l58 78q36 -59 109 -90q71 -31 158 -31q125 0 207 61q82 60 82 164v69q-51 -67 -137 -102q-87 -36 -186 -36q-76 0 -143 18q-65 16 -123 52q-56 34 -87 93q-33 59 -33 132q0 75 41 152
l87 -27q-35 -61 -35 -123q0 -99 82 -153q82 -55 221 -55q135 0 224 64q89 63 89 168v111z" />
    <glyph glyph-name="Yacute.ss03" horiz-adv-x="911" 
d="M626 847l-121 -136h-88l98 136h111zM749 664h90v-371q0 -140 -110 -223q-112 -83 -269 -83q-101 0 -187 34q-90 35 -138 98l58 78q36 -59 109 -90q71 -31 158 -31q125 0 207 61q82 60 82 164v69q-51 -67 -137 -102q-87 -36 -186 -36q-76 0 -143 18q-65 16 -123 52
q-56 34 -87 93q-33 59 -33 132q0 75 41 152l87 -27q-35 -61 -35 -123q0 -99 82 -153q82 -55 221 -55q135 0 224 64q89 63 89 168v111z" />
    <glyph glyph-name="Ycircumflex.ss03" horiz-adv-x="911" 
d="M461 790l-58 -79h-110l121 136h94l121 -136h-110zM749 664h90v-371q0 -140 -110 -223q-112 -83 -269 -83q-101 0 -187 34q-90 35 -138 98l58 78q36 -59 109 -90q71 -31 158 -31q125 0 207 61q82 60 82 164v69q-51 -67 -137 -102q-87 -36 -186 -36q-76 0 -143 18
q-65 16 -123 52q-56 34 -87 93q-33 59 -33 132q0 75 41 152l87 -27q-35 -61 -35 -123q0 -99 82 -153q82 -55 221 -55q135 0 224 64q89 63 89 168v111z" />
    <glyph glyph-name="Ydieresis.ss03" horiz-adv-x="911" 
d="M347 703q-31 0 -51 16q-21 17 -21 40q0 25 21 41q22 17 51 17t51 -17q21 -17 21 -41q0 -23 -21 -40q-20 -16 -51 -16zM555 703q-31 0 -51 16q-21 17 -21 40q0 25 21 41q22 17 51 17t51 -17q21 -17 21 -41q0 -23 -21 -40q-20 -16 -51 -16zM749 664h90v-371
q0 -140 -110 -223q-112 -83 -269 -83q-101 0 -187 34q-90 35 -138 98l58 78q36 -59 109 -90q71 -31 158 -31q125 0 207 61q82 60 82 164v69q-51 -67 -137 -102q-87 -36 -186 -36q-76 0 -143 18q-65 16 -123 52q-56 34 -87 93q-33 59 -33 132q0 75 41 152l87 -27
q-35 -61 -35 -123q0 -99 82 -153q82 -55 221 -55q135 0 224 64q89 63 89 168v111z" />
    <glyph glyph-name="Ydieresis.ss03.ss20" horiz-adv-x="911" 
d="M418 813v-102h-124v102h124zM628 813v-102h-124v102h124zM749 664h90v-371q0 -140 -110 -223q-112 -83 -269 -83q-101 0 -187 34q-90 35 -138 98l58 78q36 -59 109 -90q71 -31 158 -31q125 0 207 61q82 60 82 164v69q-51 -67 -137 -102q-87 -36 -186 -36q-76 0 -143 18
q-65 16 -123 52q-56 34 -87 93q-33 59 -33 132q0 75 41 152l87 -27q-35 -61 -35 -123q0 -99 82 -153q82 -55 221 -55q135 0 224 64q89 63 89 168v111z" />
    <glyph glyph-name="Ydieresis.ss20" horiz-adv-x="903" 
d="M409 813v-102h-124v102h124zM619 813v-102h-124v102h124zM891 664l-394 -436v-228h-90v227l-395 437h119l321 -353l320 353h119z" />
    <glyph glyph-name="Ygrave.ss03" horiz-adv-x="911" 
d="M505 711h-88l-121 136h111zM749 664h90v-371q0 -140 -110 -223q-112 -83 -269 -83q-101 0 -187 34q-90 35 -138 98l58 78q36 -59 109 -90q71 -31 158 -31q125 0 207 61q82 60 82 164v69q-51 -67 -137 -102q-87 -36 -186 -36q-76 0 -143 18q-65 16 -123 52q-56 34 -87 93
q-33 59 -33 132q0 75 41 152l87 -27q-35 -61 -35 -123q0 -99 82 -153q82 -55 221 -55q135 0 224 64q89 63 89 168v111z" />
    <glyph glyph-name="uni0232.ss03" horiz-adv-x="911" 
d="M611 786v-75h-300v75h300zM749 664h90v-371q0 -140 -110 -223q-112 -83 -269 -83q-101 0 -187 34q-90 35 -138 98l58 78q36 -59 109 -90q71 -31 158 -31q125 0 207 61q82 60 82 164v69q-51 -67 -137 -102q-87 -36 -186 -36q-76 0 -143 18q-65 16 -123 52q-56 34 -87 93
q-33 59 -33 132q0 75 41 152l87 -27q-35 -61 -35 -123q0 -99 82 -153q82 -55 221 -55q135 0 224 64q89 63 89 168v111z" />
    <glyph glyph-name="uni1EF8.ss03" horiz-adv-x="911" 
d="M395 775q-13 4 -18 -7q-4 -11 -4 -57h-101q0 64 33 103t80 39q30 0 55 -13q30 -16 50 -32q23 -19 37 -25q5 -1 11 -1q4 0 7 8q1 8 3 21q1 9 1 36h101q0 -63 -33 -102t-80 -39q-30 0 -55 13q-30 16 -50 32q-27 19 -37 24zM749 664h90v-371q0 -140 -110 -223
q-112 -83 -269 -83q-101 0 -187 34q-90 35 -138 98l58 78q36 -59 109 -90q71 -31 158 -31q125 0 207 61q82 60 82 164v69q-51 -67 -137 -102q-87 -36 -186 -36q-76 0 -143 18q-65 16 -123 52q-56 34 -87 93q-33 59 -33 132q0 75 41 152l87 -27q-35 -61 -35 -123
q0 -99 82 -153q82 -55 221 -55q135 0 224 64q89 63 89 168v111z" />
    <glyph glyph-name="Z.ss10" horiz-adv-x="735" 
d="M724 664l-516 -575h484v-89h-680l516 575h-487v89h683z" />
    <glyph glyph-name="Zacute.ss10" horiz-adv-x="735" 
d="M533 847l-121 -136h-88l98 136h111zM724 664l-516 -575h484v-89h-680l516 575h-487v89h683z" />
    <glyph glyph-name="Zcaron.ss10" horiz-adv-x="735" 
d="M415 710h-94l-121 136h110l58 -79l58 79h110zM724 664l-516 -575h484v-89h-680l516 575h-487v89h683z" />
    <glyph glyph-name="Zdotaccent.ss10" horiz-adv-x="735" 
d="M368 703q-31 0 -51 16q-21 17 -21 40q0 25 21 41q22 17 51 17t51 -17q21 -17 21 -41q0 -23 -21 -40q-20 -16 -51 -16zM724 664l-516 -575h484v-89h-680l516 575h-487v89h683z" />
    <glyph glyph-name="Zdotaccent.ss10.ss20" horiz-adv-x="735" 
d="M430 813v-102h-124v102h124zM724 664l-516 -575h484v-89h-680l516 575h-487v89h683z" />
    <glyph glyph-name="Zdotaccent.ss20" horiz-adv-x="741" 
d="M433 813v-102h-124v102h124zM700 664v-89l-529 -486h526v-89h-656v89l529 486h-525v89h655z" />
    <glyph glyph-name="adieresis.ss20" horiz-adv-x="760" 
d="M309 630v-102h-124v102h124zM519 630v-102h-124v102h124zM601 474h88v-474h-88v82q-46 -46 -116 -70q-69 -25 -143 -25q-76 0 -143 27q-68 26 -115 85t-47 138q0 80 46 138q44 57 113 85q67 27 146 27q72 0 143 -24q68 -23 116 -71v82zM365 74q106 0 171 46q65 45 65 117
q0 73 -65 118q-66 45 -171 45q-107 0 -171 -45q-66 -45 -66 -118q0 -72 66 -117q65 -46 171 -46z" />
    <glyph glyph-name="uni1EA1.ss20" horiz-adv-x="760" 
d="M601 474h88v-474h-88v82q-46 -46 -116 -70q-69 -25 -143 -25q-76 0 -143 27q-68 26 -115 85t-47 138q0 80 46 138q44 57 113 85q67 27 146 27q72 0 143 -24q68 -23 116 -71v82zM365 74q106 0 171 46q65 45 65 117q0 73 -65 118q-66 45 -171 45q-107 0 -171 -45
q-66 -45 -66 -118q0 -72 66 -117q65 -46 171 -46zM279 -155v102h124v-102h-124z" />
    <glyph glyph-name="cdotaccent.ss20" horiz-adv-x="657" 
d="M428 630v-102h-124v102h124zM366 -13q-82 0 -153 25q-73 25 -124 84q-52 58 -52 141q0 81 51 140q50 59 123 84q73 26 155 26q75 0 141 -22q70 -23 115 -64l-54 -73q-64 72 -202 72q-95 0 -166 -42q-72 -44 -72 -121q0 -79 72 -121t166 -42q134 0 199 68l68 -59
q-47 -47 -119 -71q-71 -25 -148 -25z" />
    <glyph glyph-name="dcaron.ss20" horiz-adv-x="977" 
d="M601 392v272h88v-664h-88v82q-46 -46 -116 -70q-69 -25 -143 -25q-76 0 -143 27q-68 26 -115 85t-47 138q0 80 46 138q44 57 113 85q67 27 146 27q72 0 143 -24q68 -23 116 -71zM825 664h130l-100 -187h-30v187zM365 74q106 0 171 46q65 45 65 117q0 73 -65 118
q-66 45 -171 45q-107 0 -171 -45q-66 -45 -66 -118q0 -72 66 -117q65 -46 171 -46z" />
    <glyph glyph-name="edieresis.ss20" horiz-adv-x="731" 
d="M323 630v-102h-124v102h124zM533 630v-102h-124v102h124zM366 487q148 0 244 -75q95 -77 83 -208h-561q15 -64 83 -97q67 -34 151 -34q131 0 199 68l68 -59q-45 -46 -119 -70q-71 -25 -148 -25q-82 0 -153 25q-73 25 -124 84q-52 58 -52 141q0 81 51 140q50 59 123 84
q73 26 155 26zM366 401q-77 0 -142 -30t-87 -85h458q-22 55 -87 85t-142 30z" />
    <glyph glyph-name="edotaccent.ss20" horiz-adv-x="731" 
d="M428 630v-102h-124v102h124zM366 487q148 0 244 -75q95 -77 83 -208h-561q15 -64 83 -97q67 -34 151 -34q131 0 199 68l68 -59q-45 -46 -119 -70q-71 -25 -148 -25q-82 0 -153 25q-73 25 -124 84q-52 58 -52 141q0 81 51 140q50 59 123 84q73 26 155 26zM366 401
q-77 0 -142 -30t-87 -85h458q-22 55 -87 85t-142 30z" />
    <glyph glyph-name="uni1EB9.ss20" horiz-adv-x="731" 
d="M366 487q148 0 244 -75q95 -77 83 -208h-561q15 -64 83 -97q67 -34 151 -34q131 0 199 68l68 -59q-45 -46 -119 -70q-71 -25 -148 -25q-82 0 -153 25q-73 25 -124 84q-52 58 -52 141q0 81 51 140q50 59 123 84q73 26 155 26zM366 401q-77 0 -142 -30t-87 -85h458
q-22 55 -87 85t-142 30zM303 -155v102h124v-102h-124z" />
    <glyph glyph-name="f.ss16" horiz-adv-x="505" 
d="M212 531q0 -24 19 -40q19 -17 32 -17h198v-87h-198v-387h-88v387h-140v87h140q-13 0 -32 24q-19 22 -19 52q0 51 53 90t126 39q50 0 93 -20q43 -22 65 -58l-72 -53q-20 44 -86 44q-40 0 -65 -19q-26 -20 -26 -42z" />
    <glyph glyph-name="f.ss18" horiz-adv-x="505" 
d="M362 592q-99 0 -99 -72v-46h198v-87h-198v-387h-88v387h-140v87h140v46q0 84 51 122q50 37 126 37q56 0 109 -17v-84q-36 14 -99 14z" />
    <glyph glyph-name="gcommaaccent.ss20" horiz-adv-x="760" 
d="M392 715v-187h-130l100 187h30zM601 474h88v-417q0 -123 -99 -190q-98 -67 -249 -67q-96 0 -170 28q-74 27 -109 75l67 60q19 -37 77 -57t136 -20q114 0 187 43q72 42 72 123v30q-46 -46 -116 -70q-69 -25 -143 -25q-76 0 -143 27q-68 26 -115 85t-47 138q0 80 46 138
q44 57 113 85q67 27 146 27q72 0 143 -24q68 -23 116 -71v82zM365 74q106 0 171 46q65 45 65 117q0 73 -65 118q-66 45 -171 45q-107 0 -171 -45q-66 -45 -66 -118q0 -72 66 -117q65 -46 171 -46z" />
    <glyph glyph-name="gdotaccent.ss20" horiz-adv-x="760" 
d="M404 630v-102h-124v102h124zM601 474h88v-417q0 -123 -99 -190q-98 -67 -249 -67q-96 0 -170 28q-74 27 -109 75l67 60q19 -37 77 -57t136 -20q114 0 187 43q72 42 72 123v30q-46 -46 -116 -70q-69 -25 -143 -25q-76 0 -143 27q-68 26 -115 85t-47 138q0 80 46 138
q44 57 113 85q67 27 146 27q72 0 143 -24q68 -23 116 -71v82zM365 74q106 0 171 46q65 45 65 117q0 73 -65 118q-66 45 -171 45q-107 0 -171 -45q-66 -45 -66 -118q0 -72 66 -117q65 -46 171 -46z" />
    <glyph glyph-name="i.ss04" horiz-adv-x="613" 
d="M322 521q-31 0 -51 16q-21 17 -21 40q0 25 21 41q22 17 51 17t51 -17q21 -16 21 -41q0 -23 -21 -40q-20 -16 -51 -16zM366 87h239v-87h-565v87h238v300h-238v87h326v-387z" />
    <glyph glyph-name="i.ss04.ss20" horiz-adv-x="613" 
d="M384 630v-102h-124v102h124zM366 87h239v-87h-565v87h238v300h-238v87h326v-387z" />
    <glyph glyph-name="i.ss20" horiz-adv-x="230" 
d="M177 630v-102h-124v102h124zM71 0v474h88v-474h-88z" />
    <glyph glyph-name="dotlessi.ss04" horiz-adv-x="613" 
d="M366 87h239v-87h-565v87h238v300h-238v87h326v-387z" />
    <glyph glyph-name="iacute.ss04" horiz-adv-x="613" 
d="M487 664l-121 -136h-88l98 136h111zM366 87h239v-87h-565v87h238v300h-238v87h326v-387z" />
    <glyph glyph-name="ibreve.ss04" horiz-adv-x="613" 
d="M321 523q-70 0 -120 41q-51 40 -51 100h102q0 -37 21 -58q19 -22 48 -22t50 22q21 21 21 58h100q0 -59 -50 -100q-52 -41 -121 -41zM366 87h239v-87h-565v87h238v300h-238v87h326v-387z" />
    <glyph glyph-name="uni01D0.ss04" horiz-adv-x="613" 
d="M369 528h-94l-121 136h110l58 -79l58 79h110zM366 87h239v-87h-565v87h238v300h-238v87h326v-387z" />
    <glyph glyph-name="icircumflex.ss04" horiz-adv-x="613" 
d="M322 607l-58 -79h-110l121 136h94l121 -136h-110zM366 87h239v-87h-565v87h238v300h-238v87h326v-387z" />
    <glyph glyph-name="idieresis.ss04" horiz-adv-x="613" 
d="M218 521q-31 0 -51 16q-21 17 -21 40q0 25 21 41q22 17 51 17t51 -17q21 -16 21 -41q0 -23 -21 -40q-20 -16 -51 -16zM426 521q-31 0 -51 16q-21 17 -21 40q0 25 21 41q22 17 51 17t51 -17q21 -16 21 -41q0 -23 -21 -40q-20 -16 -51 -16zM366 87h239v-87h-565v87h238v300
h-238v87h326v-387z" />
    <glyph glyph-name="idieresis.ss04.ss20" horiz-adv-x="613" 
d="M279 630v-102h-124v102h124zM489 630v-102h-124v102h124zM366 87h239v-87h-565v87h238v300h-238v87h326v-387z" />
    <glyph glyph-name="idieresis.ss20" horiz-adv-x="230" 
d="M-52 528v102h124v-102h-124zM158 528v102h124v-102h-124zM71 0v474h88v-474h-88z" />
    <glyph glyph-name="i.loclTRK" horiz-adv-x="230" 
d="M115 521q-31 0 -51 16q-21 17 -21 40q0 25 21 41q22 17 51 17t51 -17q21 -16 21 -41q0 -23 -21 -40q-20 -16 -51 -16zM71 0v474h88v-474h-88z" />
    <glyph glyph-name="i.loclTRK.ss04" horiz-adv-x="613" 
d="M322 521q-31 0 -51 16q-21 17 -21 40q0 25 21 41q22 17 51 17t51 -17q21 -16 21 -41q0 -23 -21 -40q-20 -16 -51 -16zM366 87h239v-87h-565v87h238v300h-238v87h326v-387z" />
    <glyph glyph-name="i.loclTRK.ss04.ss20" horiz-adv-x="613" 
d="M384 630v-102h-124v102h124zM366 87h239v-87h-565v87h238v300h-238v87h326v-387z" />
    <glyph glyph-name="i.loclTRK.ss20" horiz-adv-x="230" 
d="M177 630v-102h-124v102h124zM71 0v474h88v-474h-88z" />
    </font>
</defs>
</svg>
